<ttFont>
    <TTGlyph name=".notdef" xMin="63" yMin="0" xMax="438" yMax="750">
      <contour>
        <pt x="63" y="0" on="1"/>
        <pt x="63" y="750" on="1"/>
        <pt x="438" y="750" on="1"/>
        <pt x="438" y="0" on="1"/>
      </contour>
      <contour>
        <pt x="125" y="63" on="1"/>
        <pt x="375" y="63" on="1"/>
        <pt x="375" y="688" on="1"/>
        <pt x="125" y="688" on="1"/>
      </contour>
    </TTGlyph>
    <TTGlyph name="A" xMin="-1" yMin="-117" xMax="1138" yMax="669">
      <contour>
        <pt x="946" y="286" on="1"/>
        <pt x="1043" y="288" on="1"/>
        <pt x="1079" y="288" on="0"/>
        <pt x="1079" y="283" on="1"/>
        <pt x="1079" y="270" on="0"/>
        <pt x="933" y="260" on="1"/>
        <pt x="840" y="78" on="0"/>
        <pt x="840" y="12" on="1"/>
        <pt x="840" y="-34" on="0"/>
        <pt x="869" y="-34" on="1"/>
        <pt x="880" y="-34" on="0"/>
        <pt x="913" y="-7" on="0"/>
        <pt x="920" y="-7" on="0"/>
        <pt x="920" y="-12" on="1"/>
        <pt x="915" y="-30" on="0"/>
        <pt x="864" y="-54" on="0"/>
        <pt x="829" y="-54" on="0"/>
        <pt x="819" y="-52" on="1"/>
        <pt x="795" y="-43" on="0"/>
        <pt x="795" y="6" on="1"/>
        <pt x="795" y="107" on="0"/>
        <pt x="872" y="263" on="1"/>
        <pt x="752" y="260" on="1"/>
        <pt x="618" y="129" on="0"/>
        <pt x="483" y="30" on="1"/>
        <pt x="281" y="-117" on="0"/>
        <pt x="167" y="-117" on="1"/>
        <pt x="160" y="-117" on="0"/>
        <pt x="153" y="-116" on="1"/>
        <pt x="-1" y="-103" on="0"/>
        <pt x="-1" y="42" on="1"/>
        <pt x="-1" y="128" on="0"/>
        <pt x="53" y="224" on="1"/>
        <pt x="125" y="352" on="0"/>
        <pt x="375" y="533" on="0"/>
        <pt x="573" y="533" on="0"/>
        <pt x="573" y="460" on="1"/>
        <pt x="573" y="411" on="0"/>
        <pt x="513" y="291" on="0"/>
        <pt x="482" y="275" on="1"/>
        <pt x="479" y="274" on="0"/>
        <pt x="472" y="274" on="0"/>
        <pt x="472" y="276" on="1"/>
        <pt x="505" y="330" on="1"/>
        <pt x="539" y="383" on="0"/>
        <pt x="539" y="463" on="0"/>
        <pt x="504" y="512" on="0"/>
        <pt x="466" y="512" on="1"/>
        <pt x="388" y="512" on="0"/>
        <pt x="171" y="338" on="0"/>
        <pt x="58" y="84" on="0"/>
        <pt x="58" y="13" on="1"/>
        <pt x="58" y="-94" on="0"/>
        <pt x="167" y="-94" on="1"/>
        <pt x="271" y="-94" on="0"/>
        <pt x="449" y="40" on="1"/>
        <pt x="528" y="99" on="0"/>
        <pt x="706" y="263" on="1"/>
        <pt x="671" y="261" on="0"/>
        <pt x="641" y="256" on="1"/>
        <pt x="577" y="244" on="0"/>
        <pt x="581" y="260" on="1"/>
        <pt x="585" y="297" on="0"/>
        <pt x="619" y="297" on="1"/>
        <pt x="685" y="289" on="0"/>
        <pt x="730" y="289" on="1"/>
        <pt x="816" y="368" on="0"/>
        <pt x="987" y="548" on="1"/>
        <pt x="1102" y="669" on="0"/>
        <pt x="1127" y="669" on="1"/>
        <pt x="1138" y="669" on="0"/>
        <pt x="1138" y="635" on="0"/>
        <pt x="1120" y="563" on="0"/>
        <pt x="1109" y="555" on="1"/>
        <pt x="1086" y="539" on="0"/>
        <pt x="1046" y="484" on="0"/>
        <pt x="972" y="333" on="0"/>
      </contour>
      <contour>
        <pt x="1026" y="530" on="1"/>
        <pt x="770" y="290" on="1"/>
        <pt x="829" y="290" on="1"/>
        <pt x="850" y="289" on="0"/>
        <pt x="881" y="289" on="1"/>
        <pt x="910" y="346" on="0"/>
      </contour>
    </TTGlyph>
    <TTGlyph name="AE" xMin="-1" yMin="-117" xMax="1486" yMax="669">
      <contour>
        <pt x="1131" y="606" on="1"/>
        <pt x="1243" y="664" on="0"/>
        <pt x="1359" y="664" on="1"/>
        <pt x="1416" y="664" on="0"/>
        <pt x="1485" y="627" on="0"/>
        <pt x="1485" y="550" on="0"/>
        <pt x="1428" y="497" on="0"/>
        <pt x="1366" y="497" on="0"/>
        <pt x="1366" y="512" on="1"/>
        <pt x="1366" y="521" on="0"/>
        <pt x="1379" y="521" on="1"/>
        <pt x="1399" y="518" on="1"/>
        <pt x="1419" y="518" on="0"/>
        <pt x="1452" y="561" on="0"/>
        <pt x="1452" y="584" on="1"/>
        <pt x="1452" y="618" on="0"/>
        <pt x="1413" y="634" on="1"/>
        <pt x="1388" y="644" on="0"/>
        <pt x="1344" y="644" on="0"/>
        <pt x="1335" y="643" on="1"/>
        <pt x="1250" y="638" on="0"/>
        <pt x="1167" y="583" on="1"/>
        <pt x="1071" y="520" on="0"/>
        <pt x="1071" y="441" on="1"/>
        <pt x="1071" y="412" on="0"/>
        <pt x="1091" y="387" on="1"/>
        <pt x="1155" y="407" on="0"/>
        <pt x="1213" y="407" on="1"/>
        <pt x="1311" y="407" on="0"/>
        <pt x="1311" y="370" on="1"/>
        <pt x="1311" y="362" on="0"/>
        <pt x="1305" y="352" on="1"/>
        <pt x="1281" y="315" on="0"/>
        <pt x="1218" y="315" on="1"/>
        <pt x="1177" y="315" on="0"/>
        <pt x="1092" y="344" on="0"/>
        <pt x="1069" y="360" on="1"/>
        <pt x="1042" y="352" on="0"/>
        <pt x="959" y="312" on="1"/>
        <pt x="946" y="286" on="1"/>
        <pt x="884" y="165" on="0"/>
        <pt x="884" y="75" on="1"/>
        <pt x="884" y="36" on="0"/>
        <pt x="899" y="9" on="1"/>
        <pt x="923" y="-33" on="0"/>
        <pt x="970" y="-40" on="1"/>
        <pt x="988" y="-43" on="0"/>
        <pt x="1038" y="-43" on="0"/>
        <pt x="1129" y="-25" on="0"/>
        <pt x="1232" y="26" on="0"/>
        <pt x="1264" y="55" on="1"/>
        <pt x="1343" y="125" on="0"/>
        <pt x="1343" y="202" on="1"/>
        <pt x="1343" y="263" on="0"/>
        <pt x="1284" y="263" on="1"/>
        <pt x="1213" y="263" on="0"/>
        <pt x="1121" y="187" on="1"/>
        <pt x="1098" y="168" on="0"/>
        <pt x="1066" y="110" on="0"/>
        <pt x="1066" y="54" on="0"/>
        <pt x="1094" y="47" on="1"/>
        <pt x="1104" y="43" on="0"/>
        <pt x="1104" y="37" on="1"/>
        <pt x="1104" y="27" on="0"/>
        <pt x="1084" y="29" on="1"/>
        <pt x="1036" y="30" on="0"/>
        <pt x="1036" y="154" on="0"/>
        <pt x="1099" y="208" on="1"/>
        <pt x="1185" y="282" on="0"/>
        <pt x="1281" y="282" on="1"/>
        <pt x="1324" y="282" on="0"/>
        <pt x="1380" y="238" on="0"/>
        <pt x="1380" y="195" on="1"/>
        <pt x="1380" y="98" on="0"/>
        <pt x="1277" y="20" on="1"/>
        <pt x="1241" y="-7" on="0"/>
        <pt x="1187" y="-29" on="1"/>
        <pt x="1106" y="-62" on="0"/>
        <pt x="1019" y="-62" on="1"/>
        <pt x="988" y="-62" on="0"/>
        <pt x="959" y="-57" on="1"/>
        <pt x="906" y="-48" on="0"/>
        <pt x="870" y="-7" on="1"/>
        <pt x="830" y="38" on="0"/>
        <pt x="830" y="114" on="1"/>
        <pt x="830" y="149" on="0"/>
        <pt x="843" y="194" on="1"/>
        <pt x="857" y="241" on="0"/>
        <pt x="872" y="263" on="1"/>
        <pt x="752" y="260" on="1"/>
        <pt x="618" y="129" on="0"/>
        <pt x="483" y="30" on="1"/>
        <pt x="281" y="-117" on="0"/>
        <pt x="167" y="-117" on="1"/>
        <pt x="160" y="-117" on="0"/>
        <pt x="153" y="-116" on="1"/>
        <pt x="-1" y="-103" on="0"/>
        <pt x="-1" y="42" on="1"/>
        <pt x="-1" y="128" on="0"/>
        <pt x="53" y="224" on="1"/>
        <pt x="125" y="352" on="0"/>
        <pt x="375" y="533" on="0"/>
        <pt x="573" y="533" on="0"/>
        <pt x="573" y="460" on="1"/>
        <pt x="573" y="411" on="0"/>
        <pt x="513" y="291" on="0"/>
        <pt x="482" y="275" on="1"/>
        <pt x="479" y="274" on="0"/>
        <pt x="472" y="274" on="0"/>
        <pt x="472" y="276" on="1"/>
        <pt x="505" y="330" on="1"/>
        <pt x="539" y="383" on="0"/>
        <pt x="539" y="463" on="0"/>
        <pt x="504" y="512" on="0"/>
        <pt x="466" y="512" on="1"/>
        <pt x="388" y="512" on="0"/>
        <pt x="171" y="338" on="0"/>
        <pt x="58" y="84" on="0"/>
        <pt x="58" y="13" on="1"/>
        <pt x="58" y="-94" on="0"/>
        <pt x="167" y="-94" on="1"/>
        <pt x="271" y="-94" on="0"/>
        <pt x="449" y="40" on="1"/>
        <pt x="528" y="99" on="0"/>
        <pt x="706" y="263" on="1"/>
        <pt x="671" y="261" on="0"/>
        <pt x="641" y="256" on="1"/>
        <pt x="577" y="244" on="0"/>
        <pt x="581" y="260" on="1"/>
        <pt x="585" y="297" on="0"/>
        <pt x="619" y="297" on="1"/>
        <pt x="685" y="289" on="0"/>
        <pt x="730" y="289" on="1"/>
        <pt x="816" y="368" on="0"/>
        <pt x="987" y="548" on="1"/>
        <pt x="1102" y="669" on="0"/>
        <pt x="1127" y="669" on="1"/>
        <pt x="1138" y="669" on="0"/>
        <pt x="1138" y="631" on="0"/>
      </contour>
      <contour>
        <pt x="1026" y="530" on="1"/>
        <pt x="770" y="290" on="1"/>
        <pt x="829" y="290" on="1"/>
        <pt x="850" y="289" on="0"/>
        <pt x="881" y="289" on="1"/>
        <pt x="910" y="346" on="0"/>
      </contour>
      <contour>
        <pt x="1108" y="371" on="1"/>
        <pt x="1150" y="337" on="0"/>
        <pt x="1263" y="337" on="0"/>
        <pt x="1263" y="368" on="1"/>
        <pt x="1263" y="382" on="0"/>
        <pt x="1163" y="382" on="0"/>
      </contour>
      <contour>
        <pt x="1022" y="434" on="1"/>
        <pt x="982" y="355" on="0"/>
        <pt x="979" y="349" on="1"/>
        <pt x="1007" y="361" on="0"/>
        <pt x="1052" y="376" on="1"/>
        <pt x="1028" y="402" on="0"/>
      </contour>
    </TTGlyph>
    <TTGlyph name="Aacute" xMin="-1" yMin="-117" xMax="1270" yMax="825">
      <contour>
        <pt x="946" y="286" on="1"/>
        <pt x="1043" y="288" on="1"/>
        <pt x="1079" y="288" on="0"/>
        <pt x="1079" y="283" on="1"/>
        <pt x="1079" y="270" on="0"/>
        <pt x="933" y="260" on="1"/>
        <pt x="840" y="78" on="0"/>
        <pt x="840" y="12" on="1"/>
        <pt x="840" y="-34" on="0"/>
        <pt x="869" y="-34" on="1"/>
        <pt x="880" y="-34" on="0"/>
        <pt x="913" y="-7" on="0"/>
        <pt x="920" y="-7" on="0"/>
        <pt x="920" y="-12" on="1"/>
        <pt x="915" y="-30" on="0"/>
        <pt x="864" y="-54" on="0"/>
        <pt x="829" y="-54" on="0"/>
        <pt x="819" y="-52" on="1"/>
        <pt x="795" y="-43" on="0"/>
        <pt x="795" y="6" on="1"/>
        <pt x="795" y="107" on="0"/>
        <pt x="872" y="263" on="1"/>
        <pt x="752" y="260" on="1"/>
        <pt x="618" y="129" on="0"/>
        <pt x="483" y="30" on="1"/>
        <pt x="281" y="-117" on="0"/>
        <pt x="167" y="-117" on="1"/>
        <pt x="160" y="-117" on="0"/>
        <pt x="153" y="-116" on="1"/>
        <pt x="-1" y="-103" on="0"/>
        <pt x="-1" y="42" on="1"/>
        <pt x="-1" y="128" on="0"/>
        <pt x="53" y="224" on="1"/>
        <pt x="125" y="352" on="0"/>
        <pt x="375" y="533" on="0"/>
        <pt x="573" y="533" on="0"/>
        <pt x="573" y="460" on="1"/>
        <pt x="573" y="411" on="0"/>
        <pt x="513" y="291" on="0"/>
        <pt x="482" y="275" on="1"/>
        <pt x="479" y="274" on="0"/>
        <pt x="472" y="274" on="0"/>
        <pt x="472" y="276" on="1"/>
        <pt x="505" y="330" on="1"/>
        <pt x="539" y="383" on="0"/>
        <pt x="539" y="463" on="0"/>
        <pt x="504" y="512" on="0"/>
        <pt x="466" y="512" on="1"/>
        <pt x="388" y="512" on="0"/>
        <pt x="171" y="338" on="0"/>
        <pt x="58" y="84" on="0"/>
        <pt x="58" y="13" on="1"/>
        <pt x="58" y="-94" on="0"/>
        <pt x="167" y="-94" on="1"/>
        <pt x="271" y="-94" on="0"/>
        <pt x="449" y="40" on="1"/>
        <pt x="528" y="99" on="0"/>
        <pt x="706" y="263" on="1"/>
        <pt x="671" y="261" on="0"/>
        <pt x="641" y="256" on="1"/>
        <pt x="577" y="244" on="0"/>
        <pt x="581" y="260" on="1"/>
        <pt x="585" y="297" on="0"/>
        <pt x="619" y="297" on="1"/>
        <pt x="685" y="289" on="0"/>
        <pt x="730" y="289" on="1"/>
        <pt x="816" y="368" on="0"/>
        <pt x="987" y="548" on="1"/>
        <pt x="1102" y="669" on="0"/>
        <pt x="1127" y="669" on="1"/>
        <pt x="1138" y="669" on="0"/>
        <pt x="1138" y="635" on="0"/>
        <pt x="1120" y="563" on="0"/>
        <pt x="1109" y="555" on="1"/>
        <pt x="1086" y="539" on="0"/>
        <pt x="1046" y="484" on="0"/>
        <pt x="972" y="333" on="0"/>
      </contour>
      <contour>
        <pt x="1026" y="530" on="1"/>
        <pt x="770" y="290" on="1"/>
        <pt x="829" y="290" on="1"/>
        <pt x="850" y="289" on="0"/>
        <pt x="881" y="289" on="1"/>
        <pt x="910" y="346" on="0"/>
      </contour>
      <contour>
        <pt x="1149" y="722" on="0"/>
        <pt x="1135" y="722" on="0"/>
        <pt x="1135" y="732" on="0"/>
        <pt x="1139" y="735" on="1"/>
        <pt x="1244" y="816" on="1"/>
        <pt x="1254" y="825" on="0"/>
        <pt x="1270" y="825" on="0"/>
        <pt x="1270" y="801" on="0"/>
        <pt x="1262" y="793" on="1"/>
        <pt x="1253" y="786" on="0"/>
      </contour>
    </TTGlyph>
    <TTGlyph name="Acircumflex" xMin="-1" yMin="-117" xMax="1249" yMax="823">
      <contour>
        <pt x="946" y="286" on="1"/>
        <pt x="1043" y="288" on="1"/>
        <pt x="1079" y="288" on="0"/>
        <pt x="1079" y="283" on="1"/>
        <pt x="1079" y="270" on="0"/>
        <pt x="933" y="260" on="1"/>
        <pt x="840" y="78" on="0"/>
        <pt x="840" y="12" on="1"/>
        <pt x="840" y="-34" on="0"/>
        <pt x="869" y="-34" on="1"/>
        <pt x="880" y="-34" on="0"/>
        <pt x="913" y="-7" on="0"/>
        <pt x="920" y="-7" on="0"/>
        <pt x="920" y="-12" on="1"/>
        <pt x="915" y="-30" on="0"/>
        <pt x="864" y="-54" on="0"/>
        <pt x="829" y="-54" on="0"/>
        <pt x="819" y="-52" on="1"/>
        <pt x="795" y="-43" on="0"/>
        <pt x="795" y="6" on="1"/>
        <pt x="795" y="107" on="0"/>
        <pt x="872" y="263" on="1"/>
        <pt x="752" y="260" on="1"/>
        <pt x="618" y="129" on="0"/>
        <pt x="483" y="30" on="1"/>
        <pt x="281" y="-117" on="0"/>
        <pt x="167" y="-117" on="1"/>
        <pt x="160" y="-117" on="0"/>
        <pt x="153" y="-116" on="1"/>
        <pt x="-1" y="-103" on="0"/>
        <pt x="-1" y="42" on="1"/>
        <pt x="-1" y="128" on="0"/>
        <pt x="53" y="224" on="1"/>
        <pt x="125" y="352" on="0"/>
        <pt x="375" y="533" on="0"/>
        <pt x="573" y="533" on="0"/>
        <pt x="573" y="460" on="1"/>
        <pt x="573" y="411" on="0"/>
        <pt x="513" y="291" on="0"/>
        <pt x="482" y="275" on="1"/>
        <pt x="479" y="274" on="0"/>
        <pt x="472" y="274" on="0"/>
        <pt x="472" y="276" on="1"/>
        <pt x="505" y="330" on="1"/>
        <pt x="539" y="383" on="0"/>
        <pt x="539" y="463" on="0"/>
        <pt x="504" y="512" on="0"/>
        <pt x="466" y="512" on="1"/>
        <pt x="388" y="512" on="0"/>
        <pt x="171" y="338" on="0"/>
        <pt x="58" y="84" on="0"/>
        <pt x="58" y="13" on="1"/>
        <pt x="58" y="-94" on="0"/>
        <pt x="167" y="-94" on="1"/>
        <pt x="271" y="-94" on="0"/>
        <pt x="449" y="40" on="1"/>
        <pt x="528" y="99" on="0"/>
        <pt x="706" y="263" on="1"/>
        <pt x="671" y="261" on="0"/>
        <pt x="641" y="256" on="1"/>
        <pt x="577" y="244" on="0"/>
        <pt x="581" y="260" on="1"/>
        <pt x="585" y="297" on="0"/>
        <pt x="619" y="297" on="1"/>
        <pt x="685" y="289" on="0"/>
        <pt x="730" y="289" on="1"/>
        <pt x="816" y="368" on="0"/>
        <pt x="987" y="548" on="1"/>
        <pt x="1102" y="669" on="0"/>
        <pt x="1127" y="669" on="1"/>
        <pt x="1138" y="669" on="0"/>
        <pt x="1138" y="635" on="0"/>
        <pt x="1120" y="563" on="0"/>
        <pt x="1109" y="555" on="1"/>
        <pt x="1086" y="539" on="0"/>
        <pt x="1046" y="484" on="0"/>
        <pt x="972" y="333" on="0"/>
      </contour>
      <contour>
        <pt x="1026" y="530" on="1"/>
        <pt x="770" y="290" on="1"/>
        <pt x="829" y="290" on="1"/>
        <pt x="850" y="289" on="0"/>
        <pt x="881" y="289" on="1"/>
        <pt x="910" y="346" on="0"/>
      </contour>
      <contour>
        <pt x="1024" y="713" on="1"/>
        <pt x="1002" y="707" on="0"/>
        <pt x="1002" y="720" on="1"/>
        <pt x="1002" y="723" on="0"/>
        <pt x="1012" y="732" on="1"/>
        <pt x="1088" y="778" on="0"/>
        <pt x="1111" y="798" on="1"/>
        <pt x="1141" y="823" on="0"/>
        <pt x="1147" y="823" on="1"/>
        <pt x="1162" y="823" on="0"/>
        <pt x="1246" y="730" on="0"/>
        <pt x="1249" y="719" on="0"/>
        <pt x="1249" y="717" on="1"/>
        <pt x="1249" y="707" on="0"/>
        <pt x="1233" y="707" on="0"/>
        <pt x="1163" y="771" on="0"/>
        <pt x="1141" y="784" on="1"/>
        <pt x="1135" y="780" on="0"/>
        <pt x="1080" y="746" on="0"/>
        <pt x="1032" y="714" on="0"/>
      </contour>
    </TTGlyph>
    <TTGlyph name="Adieresis" xMin="-1" yMin="-117" xMax="1274" yMax="823">
      <contour>
        <pt x="946" y="286" on="1"/>
        <pt x="1043" y="288" on="1"/>
        <pt x="1079" y="288" on="0"/>
        <pt x="1079" y="283" on="1"/>
        <pt x="1079" y="270" on="0"/>
        <pt x="933" y="260" on="1"/>
        <pt x="840" y="78" on="0"/>
        <pt x="840" y="12" on="1"/>
        <pt x="840" y="-34" on="0"/>
        <pt x="869" y="-34" on="1"/>
        <pt x="880" y="-34" on="0"/>
        <pt x="913" y="-7" on="0"/>
        <pt x="920" y="-7" on="0"/>
        <pt x="920" y="-12" on="1"/>
        <pt x="915" y="-30" on="0"/>
        <pt x="864" y="-54" on="0"/>
        <pt x="829" y="-54" on="0"/>
        <pt x="819" y="-52" on="1"/>
        <pt x="795" y="-43" on="0"/>
        <pt x="795" y="6" on="1"/>
        <pt x="795" y="107" on="0"/>
        <pt x="872" y="263" on="1"/>
        <pt x="752" y="260" on="1"/>
        <pt x="618" y="129" on="0"/>
        <pt x="483" y="30" on="1"/>
        <pt x="281" y="-117" on="0"/>
        <pt x="167" y="-117" on="1"/>
        <pt x="160" y="-117" on="0"/>
        <pt x="153" y="-116" on="1"/>
        <pt x="-1" y="-103" on="0"/>
        <pt x="-1" y="42" on="1"/>
        <pt x="-1" y="128" on="0"/>
        <pt x="53" y="224" on="1"/>
        <pt x="125" y="352" on="0"/>
        <pt x="375" y="533" on="0"/>
        <pt x="573" y="533" on="0"/>
        <pt x="573" y="460" on="1"/>
        <pt x="573" y="411" on="0"/>
        <pt x="513" y="291" on="0"/>
        <pt x="482" y="275" on="1"/>
        <pt x="479" y="274" on="0"/>
        <pt x="472" y="274" on="0"/>
        <pt x="472" y="276" on="1"/>
        <pt x="505" y="330" on="1"/>
        <pt x="539" y="383" on="0"/>
        <pt x="539" y="463" on="0"/>
        <pt x="504" y="512" on="0"/>
        <pt x="466" y="512" on="1"/>
        <pt x="388" y="512" on="0"/>
        <pt x="171" y="338" on="0"/>
        <pt x="58" y="84" on="0"/>
        <pt x="58" y="13" on="1"/>
        <pt x="58" y="-94" on="0"/>
        <pt x="167" y="-94" on="1"/>
        <pt x="271" y="-94" on="0"/>
        <pt x="449" y="40" on="1"/>
        <pt x="528" y="99" on="0"/>
        <pt x="706" y="263" on="1"/>
        <pt x="671" y="261" on="0"/>
        <pt x="641" y="256" on="1"/>
        <pt x="577" y="244" on="0"/>
        <pt x="581" y="260" on="1"/>
        <pt x="585" y="297" on="0"/>
        <pt x="619" y="297" on="1"/>
        <pt x="685" y="289" on="0"/>
        <pt x="730" y="289" on="1"/>
        <pt x="816" y="368" on="0"/>
        <pt x="987" y="548" on="1"/>
        <pt x="1102" y="669" on="0"/>
        <pt x="1127" y="669" on="1"/>
        <pt x="1138" y="669" on="0"/>
        <pt x="1138" y="635" on="0"/>
        <pt x="1120" y="563" on="0"/>
        <pt x="1109" y="555" on="1"/>
        <pt x="1086" y="539" on="0"/>
        <pt x="1046" y="484" on="0"/>
        <pt x="972" y="333" on="0"/>
      </contour>
      <contour>
        <pt x="1026" y="530" on="1"/>
        <pt x="770" y="290" on="1"/>
        <pt x="829" y="290" on="1"/>
        <pt x="850" y="289" on="0"/>
        <pt x="881" y="289" on="1"/>
        <pt x="910" y="346" on="0"/>
      </contour>
      <contour>
        <pt x="1273" y="822" on="1"/>
        <pt x="1272" y="822" on="0"/>
        <pt x="1259" y="804" on="1"/>
        <pt x="1243" y="764" on="1"/>
        <pt x="1231" y="737" on="0"/>
        <pt x="1216" y="737" on="1"/>
        <pt x="1209" y="737" on="0"/>
        <pt x="1195" y="758" on="0"/>
        <pt x="1195" y="781" on="0"/>
        <pt x="1224" y="802" on="1"/>
        <pt x="1254" y="823" on="0"/>
        <pt x="1270" y="823" on="1"/>
      </contour>
      <contour>
        <pt x="1095" y="737" on="1"/>
        <pt x="1088" y="737" on="0"/>
        <pt x="1074" y="758" on="0"/>
        <pt x="1074" y="781" on="0"/>
        <pt x="1103" y="802" on="1"/>
        <pt x="1133" y="823" on="0"/>
        <pt x="1149" y="823" on="1"/>
        <pt x="1150" y="823" on="0"/>
        <pt x="1152" y="822" on="1"/>
        <pt x="1151" y="822" on="0"/>
        <pt x="1138" y="804" on="1"/>
        <pt x="1122" y="764" on="1"/>
        <pt x="1110" y="737" on="0"/>
      </contour>
      <contour>
        <pt x="1274" y="822" on="1"/>
        <pt x="1274" y="821" on="1"/>
        <pt x="1273" y="822" on="1"/>
      </contour>
      <contour>
        <pt x="1153" y="822" on="1"/>
        <pt x="1153" y="821" on="1"/>
        <pt x="1152" y="822" on="1"/>
      </contour>
    </TTGlyph>
    <TTGlyph name="Agrave" xMin="-1" yMin="-117" xMax="1178" yMax="825">
      <contour>
        <pt x="946" y="286" on="1"/>
        <pt x="1043" y="288" on="1"/>
        <pt x="1079" y="288" on="0"/>
        <pt x="1079" y="283" on="1"/>
        <pt x="1079" y="270" on="0"/>
        <pt x="933" y="260" on="1"/>
        <pt x="840" y="78" on="0"/>
        <pt x="840" y="12" on="1"/>
        <pt x="840" y="-34" on="0"/>
        <pt x="869" y="-34" on="1"/>
        <pt x="880" y="-34" on="0"/>
        <pt x="913" y="-7" on="0"/>
        <pt x="920" y="-7" on="0"/>
        <pt x="920" y="-12" on="1"/>
        <pt x="915" y="-30" on="0"/>
        <pt x="864" y="-54" on="0"/>
        <pt x="829" y="-54" on="0"/>
        <pt x="819" y="-52" on="1"/>
        <pt x="795" y="-43" on="0"/>
        <pt x="795" y="6" on="1"/>
        <pt x="795" y="107" on="0"/>
        <pt x="872" y="263" on="1"/>
        <pt x="752" y="260" on="1"/>
        <pt x="618" y="129" on="0"/>
        <pt x="483" y="30" on="1"/>
        <pt x="281" y="-117" on="0"/>
        <pt x="167" y="-117" on="1"/>
        <pt x="160" y="-117" on="0"/>
        <pt x="153" y="-116" on="1"/>
        <pt x="-1" y="-103" on="0"/>
        <pt x="-1" y="42" on="1"/>
        <pt x="-1" y="128" on="0"/>
        <pt x="53" y="224" on="1"/>
        <pt x="125" y="352" on="0"/>
        <pt x="375" y="533" on="0"/>
        <pt x="573" y="533" on="0"/>
        <pt x="573" y="460" on="1"/>
        <pt x="573" y="411" on="0"/>
        <pt x="513" y="291" on="0"/>
        <pt x="482" y="275" on="1"/>
        <pt x="479" y="274" on="0"/>
        <pt x="472" y="274" on="0"/>
        <pt x="472" y="276" on="1"/>
        <pt x="505" y="330" on="1"/>
        <pt x="539" y="383" on="0"/>
        <pt x="539" y="463" on="0"/>
        <pt x="504" y="512" on="0"/>
        <pt x="466" y="512" on="1"/>
        <pt x="388" y="512" on="0"/>
        <pt x="171" y="338" on="0"/>
        <pt x="58" y="84" on="0"/>
        <pt x="58" y="13" on="1"/>
        <pt x="58" y="-94" on="0"/>
        <pt x="167" y="-94" on="1"/>
        <pt x="271" y="-94" on="0"/>
        <pt x="449" y="40" on="1"/>
        <pt x="528" y="99" on="0"/>
        <pt x="706" y="263" on="1"/>
        <pt x="671" y="261" on="0"/>
        <pt x="641" y="256" on="1"/>
        <pt x="577" y="244" on="0"/>
        <pt x="581" y="260" on="1"/>
        <pt x="585" y="297" on="0"/>
        <pt x="619" y="297" on="1"/>
        <pt x="685" y="289" on="0"/>
        <pt x="730" y="289" on="1"/>
        <pt x="816" y="368" on="0"/>
        <pt x="987" y="548" on="1"/>
        <pt x="1102" y="669" on="0"/>
        <pt x="1127" y="669" on="1"/>
        <pt x="1138" y="669" on="0"/>
        <pt x="1138" y="635" on="0"/>
        <pt x="1120" y="563" on="0"/>
        <pt x="1109" y="555" on="1"/>
        <pt x="1086" y="539" on="0"/>
        <pt x="1046" y="484" on="0"/>
        <pt x="972" y="333" on="0"/>
      </contour>
      <contour>
        <pt x="1026" y="530" on="1"/>
        <pt x="770" y="290" on="1"/>
        <pt x="829" y="290" on="1"/>
        <pt x="850" y="289" on="0"/>
        <pt x="881" y="289" on="1"/>
        <pt x="910" y="346" on="0"/>
      </contour>
      <contour>
        <pt x="1174" y="735" on="1"/>
        <pt x="1178" y="732" on="0"/>
        <pt x="1178" y="723" on="0"/>
        <pt x="1166" y="723" on="0"/>
        <pt x="1060" y="787" on="0"/>
        <pt x="1042" y="800" on="0"/>
        <pt x="1042" y="825" on="0"/>
        <pt x="1052" y="825" on="1"/>
        <pt x="1064" y="825" on="0"/>
      </contour>
    </TTGlyph>
    <TTGlyph name="Aring" xMin="-1" yMin="-117" xMax="1227" yMax="803">
      <contour>
        <pt x="706" y="263" on="1"/>
        <pt x="671" y="261" on="0"/>
        <pt x="641" y="256" on="1"/>
        <pt x="577" y="244" on="0"/>
        <pt x="581" y="260" on="1"/>
        <pt x="585" y="297" on="0"/>
        <pt x="619" y="297" on="1"/>
        <pt x="685" y="289" on="0"/>
        <pt x="730" y="289" on="1"/>
        <pt x="816" y="368" on="0"/>
        <pt x="987" y="548" on="1"/>
        <pt x="1074" y="640" on="0"/>
        <pt x="1110" y="662" on="1"/>
        <pt x="1094" y="671" on="0"/>
        <pt x="1094" y="718" on="0"/>
        <pt x="1116" y="766" on="0"/>
        <pt x="1133" y="771" on="1"/>
        <pt x="1150" y="803" on="0"/>
        <pt x="1184" y="803" on="1"/>
        <pt x="1202" y="803" on="0"/>
        <pt x="1227" y="772" on="0"/>
        <pt x="1227" y="715" on="0"/>
        <pt x="1170" y="657" on="0"/>
        <pt x="1137" y="657" on="1"/>
        <pt x="1138" y="654" on="0"/>
        <pt x="1138" y="635" on="0"/>
        <pt x="1120" y="563" on="0"/>
        <pt x="1109" y="555" on="1"/>
        <pt x="1086" y="539" on="0"/>
        <pt x="1046" y="484" on="0"/>
        <pt x="972" y="333" on="0"/>
        <pt x="946" y="286" on="1"/>
        <pt x="1043" y="288" on="1"/>
        <pt x="1079" y="288" on="0"/>
        <pt x="1079" y="283" on="1"/>
        <pt x="1079" y="270" on="0"/>
        <pt x="933" y="260" on="1"/>
        <pt x="840" y="78" on="0"/>
        <pt x="840" y="12" on="1"/>
        <pt x="840" y="-34" on="0"/>
        <pt x="869" y="-34" on="1"/>
        <pt x="880" y="-34" on="0"/>
        <pt x="913" y="-7" on="0"/>
        <pt x="920" y="-7" on="0"/>
        <pt x="920" y="-12" on="1"/>
        <pt x="915" y="-30" on="0"/>
        <pt x="864" y="-54" on="0"/>
        <pt x="829" y="-54" on="0"/>
        <pt x="819" y="-52" on="1"/>
        <pt x="795" y="-43" on="0"/>
        <pt x="795" y="6" on="1"/>
        <pt x="795" y="107" on="0"/>
        <pt x="872" y="263" on="1"/>
        <pt x="752" y="260" on="1"/>
        <pt x="618" y="129" on="0"/>
        <pt x="483" y="30" on="1"/>
        <pt x="281" y="-117" on="0"/>
        <pt x="167" y="-117" on="1"/>
        <pt x="160" y="-117" on="0"/>
        <pt x="153" y="-116" on="1"/>
        <pt x="-1" y="-103" on="0"/>
        <pt x="-1" y="42" on="1"/>
        <pt x="-1" y="128" on="0"/>
        <pt x="53" y="224" on="1"/>
        <pt x="125" y="352" on="0"/>
        <pt x="375" y="533" on="0"/>
        <pt x="573" y="533" on="0"/>
        <pt x="573" y="460" on="1"/>
        <pt x="573" y="411" on="0"/>
        <pt x="513" y="291" on="0"/>
        <pt x="482" y="275" on="1"/>
        <pt x="479" y="274" on="0"/>
        <pt x="472" y="274" on="0"/>
        <pt x="472" y="276" on="1"/>
        <pt x="505" y="330" on="1"/>
        <pt x="539" y="383" on="0"/>
        <pt x="539" y="463" on="0"/>
        <pt x="504" y="512" on="0"/>
        <pt x="466" y="512" on="1"/>
        <pt x="388" y="512" on="0"/>
        <pt x="171" y="338" on="0"/>
        <pt x="58" y="84" on="0"/>
        <pt x="58" y="13" on="1"/>
        <pt x="58" y="-94" on="0"/>
        <pt x="167" y="-94" on="1"/>
        <pt x="271" y="-94" on="0"/>
        <pt x="449" y="40" on="1"/>
        <pt x="528" y="99" on="0"/>
      </contour>
      <contour>
        <pt x="1026" y="530" on="1"/>
        <pt x="770" y="290" on="1"/>
        <pt x="829" y="290" on="1"/>
        <pt x="850" y="289" on="0"/>
        <pt x="881" y="289" on="1"/>
        <pt x="910" y="346" on="0"/>
      </contour>
      <contour>
        <pt x="1169" y="676" on="0"/>
        <pt x="1203" y="723" on="0"/>
        <pt x="1203" y="785" on="0"/>
        <pt x="1181" y="785" on="1"/>
        <pt x="1169" y="785" on="0"/>
        <pt x="1152" y="772" on="1"/>
        <pt x="1163" y="766" on="1"/>
        <pt x="1162" y="763" on="0"/>
        <pt x="1131" y="716" on="0"/>
        <pt x="1131" y="676" on="0"/>
        <pt x="1146" y="676" on="1"/>
      </contour>
    </TTGlyph>
    <TTGlyph name="Atilde" xMin="-1" yMin="-117" xMax="1278" yMax="803">
      <contour>
        <pt x="946" y="286" on="1"/>
        <pt x="1043" y="288" on="1"/>
        <pt x="1079" y="288" on="0"/>
        <pt x="1079" y="283" on="1"/>
        <pt x="1079" y="270" on="0"/>
        <pt x="933" y="260" on="1"/>
        <pt x="840" y="78" on="0"/>
        <pt x="840" y="12" on="1"/>
        <pt x="840" y="-34" on="0"/>
        <pt x="869" y="-34" on="1"/>
        <pt x="880" y="-34" on="0"/>
        <pt x="913" y="-7" on="0"/>
        <pt x="920" y="-7" on="0"/>
        <pt x="920" y="-12" on="1"/>
        <pt x="915" y="-30" on="0"/>
        <pt x="864" y="-54" on="0"/>
        <pt x="829" y="-54" on="0"/>
        <pt x="819" y="-52" on="1"/>
        <pt x="795" y="-43" on="0"/>
        <pt x="795" y="6" on="1"/>
        <pt x="795" y="107" on="0"/>
        <pt x="872" y="263" on="1"/>
        <pt x="752" y="260" on="1"/>
        <pt x="618" y="129" on="0"/>
        <pt x="483" y="30" on="1"/>
        <pt x="281" y="-117" on="0"/>
        <pt x="167" y="-117" on="1"/>
        <pt x="160" y="-117" on="0"/>
        <pt x="153" y="-116" on="1"/>
        <pt x="-1" y="-103" on="0"/>
        <pt x="-1" y="42" on="1"/>
        <pt x="-1" y="128" on="0"/>
        <pt x="53" y="224" on="1"/>
        <pt x="125" y="352" on="0"/>
        <pt x="375" y="533" on="0"/>
        <pt x="573" y="533" on="0"/>
        <pt x="573" y="460" on="1"/>
        <pt x="573" y="411" on="0"/>
        <pt x="513" y="291" on="0"/>
        <pt x="482" y="275" on="1"/>
        <pt x="479" y="274" on="0"/>
        <pt x="472" y="274" on="0"/>
        <pt x="472" y="276" on="1"/>
        <pt x="505" y="330" on="1"/>
        <pt x="539" y="383" on="0"/>
        <pt x="539" y="463" on="0"/>
        <pt x="504" y="512" on="0"/>
        <pt x="466" y="512" on="1"/>
        <pt x="388" y="512" on="0"/>
        <pt x="171" y="338" on="0"/>
        <pt x="58" y="84" on="0"/>
        <pt x="58" y="13" on="1"/>
        <pt x="58" y="-94" on="0"/>
        <pt x="167" y="-94" on="1"/>
        <pt x="271" y="-94" on="0"/>
        <pt x="449" y="40" on="1"/>
        <pt x="528" y="99" on="0"/>
        <pt x="706" y="263" on="1"/>
        <pt x="671" y="261" on="0"/>
        <pt x="641" y="256" on="1"/>
        <pt x="577" y="244" on="0"/>
        <pt x="581" y="260" on="1"/>
        <pt x="585" y="297" on="0"/>
        <pt x="619" y="297" on="1"/>
        <pt x="685" y="289" on="0"/>
        <pt x="730" y="289" on="1"/>
        <pt x="816" y="368" on="0"/>
        <pt x="987" y="548" on="1"/>
        <pt x="1102" y="669" on="0"/>
        <pt x="1127" y="669" on="1"/>
        <pt x="1138" y="669" on="0"/>
        <pt x="1138" y="635" on="0"/>
        <pt x="1120" y="563" on="0"/>
        <pt x="1109" y="555" on="1"/>
        <pt x="1086" y="539" on="0"/>
        <pt x="1046" y="484" on="0"/>
        <pt x="972" y="333" on="0"/>
      </contour>
      <contour>
        <pt x="1026" y="530" on="1"/>
        <pt x="770" y="290" on="1"/>
        <pt x="829" y="290" on="1"/>
        <pt x="850" y="289" on="0"/>
        <pt x="881" y="289" on="1"/>
        <pt x="910" y="346" on="0"/>
      </contour>
      <contour>
        <pt x="1278" y="799" on="1"/>
        <pt x="1278" y="784" on="0"/>
        <pt x="1238" y="757" on="1"/>
        <pt x="1225" y="749" on="0"/>
        <pt x="1192" y="749" on="0"/>
        <pt x="1127" y="776" on="0"/>
        <pt x="1094" y="776" on="0"/>
        <pt x="1062" y="750" on="0"/>
        <pt x="1057" y="750" on="1"/>
        <pt x="1056" y="751" on="0"/>
        <pt x="1056" y="752" on="1"/>
        <pt x="1056" y="768" on="0"/>
        <pt x="1099" y="793" on="1"/>
        <pt x="1115" y="803" on="0"/>
        <pt x="1150" y="803" on="0"/>
        <pt x="1213" y="782" on="0"/>
        <pt x="1254" y="782" on="0"/>
        <pt x="1272" y="803" on="1"/>
        <pt x="1278" y="803" on="0"/>
      </contour>
    </TTGlyph>
    <TTGlyph name="B" xMin="18" yMin="-47" xMax="894" yMax="670">
      <contour>
        <pt x="770" y="189" on="1"/>
        <pt x="770" y="153" on="0"/>
        <pt x="754" y="121" on="1"/>
        <pt x="720" y="49" on="0"/>
        <pt x="528" y="-47" on="0"/>
        <pt x="424" y="-47" on="1"/>
        <pt x="266" y="-47" on="0"/>
        <pt x="209" y="61" on="1"/>
        <pt x="106" y="-25" on="0"/>
        <pt x="62" y="-25" on="1"/>
        <pt x="54" y="-25" on="0"/>
        <pt x="48" y="-22" on="1"/>
        <pt x="18" y="-6" on="0"/>
        <pt x="18" y="100" on="0"/>
        <pt x="106" y="254" on="0"/>
        <pt x="139" y="268" on="1"/>
        <pt x="154" y="273" on="0"/>
        <pt x="162" y="273" on="1"/>
        <pt x="191" y="273" on="0"/>
        <pt x="206" y="225" on="1"/>
        <pt x="236" y="129" on="1"/>
        <pt x="265" y="160" on="0"/>
        <pt x="315" y="228" on="1"/>
        <pt x="404" y="348" on="1"/>
        <pt x="568" y="561" on="0"/>
        <pt x="619" y="581" on="1"/>
        <pt x="637" y="588" on="0"/>
        <pt x="675" y="588" on="0"/>
        <pt x="700" y="572" on="0"/>
        <pt x="700" y="560" on="1"/>
        <pt x="700" y="542" on="0"/>
        <pt x="671" y="539" on="1"/>
        <pt x="641" y="522" on="0"/>
        <pt x="472" y="357" on="0"/>
        <pt x="456" y="335" on="1"/>
        <pt x="344" y="179" on="0"/>
        <pt x="249" y="95" on="1"/>
        <pt x="310" y="-26" on="0"/>
        <pt x="432" y="-26" on="1"/>
        <pt x="506" y="-26" on="0"/>
        <pt x="652" y="67" on="0"/>
        <pt x="688" y="135" on="1"/>
        <pt x="704" y="164" on="0"/>
        <pt x="704" y="236" on="0"/>
        <pt x="647" y="301" on="0"/>
        <pt x="604" y="316" on="1"/>
        <pt x="584" y="319" on="0"/>
        <pt x="496" y="330" on="0"/>
        <pt x="496" y="343" on="1"/>
        <pt x="496" y="348" on="0"/>
        <pt x="500" y="352" on="1"/>
        <pt x="512" y="366" on="0"/>
        <pt x="531" y="366" on="1"/>
        <pt x="542" y="366" on="0"/>
        <pt x="563" y="358" on="0"/>
        <pt x="575" y="354" on="0"/>
        <pt x="583" y="351" on="1"/>
        <pt x="605" y="349" on="0"/>
        <pt x="621" y="349" on="1"/>
        <pt x="687" y="349" on="0"/>
        <pt x="741" y="370" on="1"/>
        <pt x="810" y="397" on="0"/>
        <pt x="829" y="451" on="1"/>
        <pt x="841" y="486" on="0"/>
        <pt x="841" y="514" on="1"/>
        <pt x="841" y="583" on="0"/>
        <pt x="774" y="617" on="1"/>
        <pt x="716" y="647" on="0"/>
        <pt x="615" y="647" on="1"/>
        <pt x="456" y="647" on="0"/>
        <pt x="330" y="587" on="1"/>
        <pt x="266" y="557" on="0"/>
        <pt x="151" y="439" on="0"/>
        <pt x="151" y="397" on="1"/>
        <pt x="151" y="368" on="0"/>
        <pt x="166" y="349" on="1"/>
        <pt x="172" y="341" on="0"/>
        <pt x="187" y="329" on="1"/>
        <pt x="192" y="326" on="0"/>
        <pt x="181" y="326" on="1"/>
        <pt x="119" y="340" on="0"/>
        <pt x="119" y="478" on="0"/>
        <pt x="189" y="539" on="1"/>
        <pt x="241" y="584" on="0"/>
        <pt x="306" y="612" on="1"/>
        <pt x="441" y="670" on="0"/>
        <pt x="613" y="670" on="1"/>
        <pt x="736" y="670" on="0"/>
        <pt x="809" y="634" on="1"/>
        <pt x="894" y="594" on="0"/>
        <pt x="894" y="513" on="1"/>
        <pt x="894" y="481" on="0"/>
        <pt x="881" y="448" on="1"/>
        <pt x="860" y="388" on="0"/>
        <pt x="772" y="357" on="1"/>
        <pt x="706" y="334" on="0"/>
        <pt x="630" y="333" on="1"/>
        <pt x="689" y="330" on="0"/>
        <pt x="770" y="249" on="0"/>
      </contour>
      <contour>
        <pt x="131" y="226" on="1"/>
        <pt x="130" y="226" on="0"/>
        <pt x="126" y="224" on="1"/>
        <pt x="52" y="117" on="0"/>
        <pt x="52" y="52" on="1"/>
        <pt x="52" y="25" on="0"/>
        <pt x="65" y="3" on="1"/>
        <pt x="68" y="-2" on="0"/>
        <pt x="75" y="-2" on="1"/>
        <pt x="107" y="-2" on="0"/>
        <pt x="198" y="89" on="1"/>
        <pt x="195" y="93" on="1"/>
        <pt x="155" y="226" on="0"/>
      </contour>
    </TTGlyph>
    <TTGlyph name="C" xMin="30" yMin="-65" xMax="797" yMax="650">
      <contour>
        <pt x="541" y="278" on="1"/>
        <pt x="481" y="278" on="0"/>
        <pt x="399" y="333" on="0"/>
        <pt x="399" y="375" on="1"/>
        <pt x="399" y="428" on="0"/>
        <pt x="468" y="481" on="1"/>
        <pt x="480" y="490" on="0"/>
        <pt x="492" y="490" on="0"/>
        <pt x="492" y="486" on="1"/>
        <pt x="492" y="476" on="0"/>
        <pt x="476" y="470" on="1"/>
        <pt x="420" y="425" on="0"/>
        <pt x="420" y="379" on="1"/>
        <pt x="420" y="346" on="0"/>
        <pt x="480" y="301" on="0"/>
        <pt x="525" y="301" on="1"/>
        <pt x="623" y="301" on="0"/>
        <pt x="710" y="395" on="1"/>
        <pt x="755" y="444" on="0"/>
        <pt x="755" y="572" on="0"/>
        <pt x="707" y="603" on="1"/>
        <pt x="667" y="631" on="0"/>
        <pt x="599" y="631" on="1"/>
        <pt x="501" y="631" on="0"/>
        <pt x="402" y="582" on="1"/>
        <pt x="280" y="523" on="0"/>
        <pt x="83" y="274" on="0"/>
        <pt x="83" y="159" on="1"/>
        <pt x="83" y="68" on="0"/>
        <pt x="207" y="-31" on="0"/>
        <pt x="299" y="-31" on="1"/>
        <pt x="404" y="-31" on="0"/>
        <pt x="505" y="20" on="1"/>
        <pt x="582" y="60" on="0"/>
        <pt x="638" y="122" on="1"/>
        <pt x="654" y="140" on="0"/>
        <pt x="663" y="140" on="1"/>
        <pt x="669" y="140" on="0"/>
        <pt x="669" y="119" on="0"/>
        <pt x="658" y="108" on="1"/>
        <pt x="605" y="52" on="0"/>
        <pt x="505" y="0" on="1"/>
        <pt x="382" y="-65" on="0"/>
        <pt x="133" y="-65" on="0"/>
        <pt x="72" y="17" on="1"/>
        <pt x="31" y="71" on="0"/>
        <pt x="31" y="146" on="1"/>
        <pt x="31" y="179" on="0"/>
        <pt x="39" y="217" on="1"/>
        <pt x="66" y="345" on="0"/>
        <pt x="181" y="466" on="1"/>
        <pt x="264" y="553" on="0"/>
        <pt x="492" y="650" on="0"/>
        <pt x="594" y="650" on="1"/>
        <pt x="648" y="650" on="0"/>
        <pt x="688" y="637" on="1"/>
        <pt x="797" y="603" on="0"/>
        <pt x="797" y="500" on="1"/>
        <pt x="797" y="437" on="0"/>
        <pt x="760" y="391" on="1"/>
        <pt x="668" y="278" on="0"/>
      </contour>
    </TTGlyph>
    <TTGlyph name="Ccedilla" xMin="31" yMin="-310" xMax="797" yMax="650">
      <contour>
        <pt x="228" y="-212" on="1"/>
        <pt x="228" y="-258" on="0"/>
        <pt x="131" y="-310" on="0"/>
        <pt x="79" y="-310" on="1"/>
        <pt x="70" y="-310" on="0"/>
        <pt x="70" y="-300" on="1"/>
        <pt x="70" y="-294" on="0"/>
        <pt x="79" y="-292" on="1"/>
        <pt x="127" y="-284" on="0"/>
        <pt x="151" y="-281" on="1"/>
        <pt x="186" y="-270" on="0"/>
        <pt x="186" y="-223" on="1"/>
        <pt x="186" y="-209" on="0"/>
        <pt x="134" y="-135" on="0"/>
        <pt x="134" y="-116" on="1"/>
        <pt x="134" y="-73" on="0"/>
        <pt x="159" y="-48" on="1"/>
        <pt x="31" y="2" on="0"/>
        <pt x="31" y="308" on="0"/>
        <pt x="181" y="466" on="1"/>
        <pt x="264" y="553" on="0"/>
        <pt x="492" y="650" on="0"/>
        <pt x="594" y="650" on="1"/>
        <pt x="648" y="650" on="0"/>
        <pt x="688" y="637" on="1"/>
        <pt x="797" y="603" on="0"/>
        <pt x="797" y="500" on="1"/>
        <pt x="797" y="437" on="0"/>
        <pt x="760" y="391" on="1"/>
        <pt x="668" y="278" on="0"/>
        <pt x="541" y="278" on="1"/>
        <pt x="481" y="278" on="0"/>
        <pt x="399" y="333" on="0"/>
        <pt x="399" y="375" on="1"/>
        <pt x="399" y="428" on="0"/>
        <pt x="468" y="481" on="1"/>
        <pt x="480" y="490" on="0"/>
        <pt x="492" y="490" on="0"/>
        <pt x="492" y="486" on="1"/>
        <pt x="492" y="476" on="0"/>
        <pt x="476" y="470" on="1"/>
        <pt x="420" y="425" on="0"/>
        <pt x="420" y="379" on="1"/>
        <pt x="420" y="346" on="0"/>
        <pt x="480" y="301" on="0"/>
        <pt x="525" y="301" on="1"/>
        <pt x="623" y="301" on="0"/>
        <pt x="710" y="395" on="1"/>
        <pt x="755" y="444" on="0"/>
        <pt x="755" y="572" on="0"/>
        <pt x="707" y="603" on="1"/>
        <pt x="667" y="631" on="0"/>
        <pt x="599" y="631" on="1"/>
        <pt x="501" y="631" on="0"/>
        <pt x="402" y="582" on="1"/>
        <pt x="280" y="523" on="0"/>
        <pt x="83" y="274" on="0"/>
        <pt x="83" y="159" on="1"/>
        <pt x="83" y="68" on="0"/>
        <pt x="207" y="-31" on="0"/>
        <pt x="299" y="-31" on="1"/>
        <pt x="404" y="-31" on="0"/>
        <pt x="505" y="20" on="1"/>
        <pt x="582" y="60" on="0"/>
        <pt x="638" y="122" on="1"/>
        <pt x="654" y="140" on="0"/>
        <pt x="663" y="140" on="1"/>
        <pt x="669" y="140" on="0"/>
        <pt x="669" y="119" on="0"/>
        <pt x="658" y="108" on="1"/>
        <pt x="605" y="52" on="0"/>
        <pt x="505" y="0" on="1"/>
        <pt x="382" y="-65" on="0"/>
        <pt x="264" y="-65" on="1"/>
        <pt x="222" y="-65" on="0"/>
        <pt x="184" y="-56" on="1"/>
        <pt x="170" y="-75" on="0"/>
        <pt x="170" y="-98" on="1"/>
        <pt x="170" y="-109" on="0"/>
        <pt x="228" y="-185" on="0"/>
      </contour>
    </TTGlyph>
    <TTGlyph name="D" xMin="15" yMin="-59" xMax="926" yMax="634">
      <contour>
        <pt x="187" y="25" on="1"/>
        <pt x="99" y="-43" on="0"/>
        <pt x="58" y="-43" on="1"/>
        <pt x="36" y="-43" on="0"/>
        <pt x="15" y="0" on="0"/>
        <pt x="15" y="25" on="1"/>
        <pt x="15" y="73" on="0"/>
        <pt x="96" y="265" on="0"/>
        <pt x="133" y="265" on="1"/>
        <pt x="152" y="265" on="0"/>
        <pt x="179" y="115" on="0"/>
        <pt x="193" y="81" on="1"/>
        <pt x="261" y="153" on="0"/>
        <pt x="390" y="321" on="1"/>
        <pt x="552" y="534" on="0"/>
        <pt x="605" y="554" on="1"/>
        <pt x="623" y="561" on="0"/>
        <pt x="661" y="561" on="0"/>
        <pt x="686" y="545" on="0"/>
        <pt x="686" y="533" on="1"/>
        <pt x="686" y="516" on="0"/>
        <pt x="657" y="513" on="1"/>
        <pt x="622" y="494" on="0"/>
        <pt x="549" y="421" on="1"/>
        <pt x="476" y="350" on="0"/>
        <pt x="432" y="288" on="1"/>
        <pt x="325" y="139" on="0"/>
        <pt x="212" y="45" on="1"/>
        <pt x="268" y="-38" on="0"/>
        <pt x="388" y="-38" on="1"/>
        <pt x="401" y="-38" on="0"/>
        <pt x="427" y="-36" on="1"/>
        <pt x="705" y="-10" on="0"/>
        <pt x="821" y="205" on="1"/>
        <pt x="868" y="291" on="0"/>
        <pt x="868" y="459" on="0"/>
        <pt x="807" y="526" on="1"/>
        <pt x="758" y="581" on="0"/>
        <pt x="643" y="607" on="0"/>
        <pt x="583" y="607" on="1"/>
        <pt x="429" y="607" on="0"/>
        <pt x="299" y="536" on="1"/>
        <pt x="162" y="461" on="0"/>
        <pt x="162" y="368" on="1"/>
        <pt x="162" y="343" on="0"/>
        <pt x="189" y="311" on="0"/>
        <pt x="194" y="309" on="1"/>
        <pt x="188" y="309" on="1"/>
        <pt x="162" y="314" on="0"/>
        <pt x="142" y="335" on="1"/>
        <pt x="120" y="361" on="0"/>
        <pt x="120" y="390" on="1"/>
        <pt x="120" y="490" on="0"/>
        <pt x="371" y="634" on="0"/>
        <pt x="540" y="634" on="1"/>
        <pt x="618" y="634" on="0"/>
        <pt x="782" y="598" on="0"/>
        <pt x="849" y="530" on="1"/>
        <pt x="926" y="450" on="0"/>
        <pt x="926" y="349" on="1"/>
        <pt x="926" y="274" on="0"/>
        <pt x="882" y="194" on="1"/>
        <pt x="806" y="56" on="0"/>
        <pt x="655" y="-8" on="1"/>
        <pt x="534" y="-59" on="0"/>
        <pt x="254" y="-59" on="0"/>
      </contour>
      <contour>
        <pt x="51" y="29" on="1"/>
        <pt x="51" y="-2" on="0"/>
        <pt x="63" y="-25" on="1"/>
        <pt x="106" y="-6" on="0"/>
        <pt x="167" y="54" on="1"/>
        <pt x="138" y="102" on="0"/>
        <pt x="123" y="157" on="0"/>
        <pt x="120" y="202" on="1"/>
        <pt x="51" y="103" on="0"/>
      </contour>
      <contour>
        <pt x="194" y="309" on="1"/>
        <pt x="195" y="309" on="0"/>
        <pt x="196" y="310" on="1"/>
        <pt x="196" y="308" on="0"/>
        <pt x="195" y="308" on="0"/>
      </contour>
    </TTGlyph>
    <TTGlyph name="Delta" xMin="25" yMin="-2" xMax="428" yMax="535">
      <contour>
        <pt x="428" y="-2" on="1"/>
        <pt x="334" y="0" on="0"/>
        <pt x="89" y="0" on="0"/>
        <pt x="25" y="-2" on="1"/>
        <pt x="83" y="103" on="0"/>
        <pt x="165" y="236" on="1"/>
        <pt x="306" y="466" on="0"/>
        <pt x="325" y="500" on="0"/>
        <pt x="332" y="511" on="1"/>
        <pt x="346" y="535" on="0"/>
        <pt x="353" y="535" on="1"/>
        <pt x="357" y="535" on="0"/>
        <pt x="357" y="528" on="1"/>
        <pt x="364" y="414" on="0"/>
        <pt x="405" y="98" on="0"/>
      </contour>
      <contour>
        <pt x="230" y="30" on="1"/>
        <pt x="384" y="33" on="1"/>
        <pt x="378" y="98" on="0"/>
        <pt x="333" y="475" on="0"/>
        <pt x="326" y="475" on="0"/>
        <pt x="324" y="470" on="1"/>
        <pt x="87" y="88" on="0"/>
        <pt x="70" y="37" on="1"/>
        <pt x="70" y="30" on="0"/>
      </contour>
    </TTGlyph>
    <TTGlyph name="E" xMin="3" yMin="-80" xMax="777" yMax="664">
      <contour>
        <pt x="504" y="407" on="1"/>
        <pt x="602" y="407" on="0"/>
        <pt x="602" y="370" on="1"/>
        <pt x="602" y="362" on="0"/>
        <pt x="596" y="352" on="1"/>
        <pt x="572" y="315" on="0"/>
        <pt x="509" y="315" on="1"/>
        <pt x="468" y="315" on="0"/>
        <pt x="382" y="344" on="0"/>
        <pt x="360" y="360" on="1"/>
        <pt x="267" y="333" on="0"/>
        <pt x="122" y="221" on="0"/>
        <pt x="86" y="150" on="1"/>
        <pt x="67" y="112" on="0"/>
        <pt x="67" y="76" on="1"/>
        <pt x="67" y="20" on="0"/>
        <pt x="160" y="-50" on="0"/>
        <pt x="250" y="-50" on="1"/>
        <pt x="275" y="-50" on="0"/>
        <pt x="302" y="-47" on="1"/>
        <pt x="461" y="-30" on="0"/>
        <pt x="555" y="55" on="1"/>
        <pt x="634" y="125" on="0"/>
        <pt x="634" y="202" on="1"/>
        <pt x="634" y="263" on="0"/>
        <pt x="575" y="263" on="1"/>
        <pt x="504" y="263" on="0"/>
        <pt x="412" y="187" on="1"/>
        <pt x="389" y="168" on="0"/>
        <pt x="357" y="110" on="0"/>
        <pt x="357" y="54" on="0"/>
        <pt x="385" y="47" on="1"/>
        <pt x="395" y="43" on="0"/>
        <pt x="395" y="37" on="1"/>
        <pt x="395" y="27" on="0"/>
        <pt x="375" y="29" on="1"/>
        <pt x="327" y="30" on="0"/>
        <pt x="327" y="154" on="0"/>
        <pt x="390" y="208" on="1"/>
        <pt x="476" y="282" on="0"/>
        <pt x="572" y="282" on="1"/>
        <pt x="644" y="282" on="0"/>
        <pt x="663" y="237" on="1"/>
        <pt x="671" y="216" on="0"/>
        <pt x="671" y="195" on="1"/>
        <pt x="671" y="102" on="0"/>
        <pt x="568" y="20" on="1"/>
        <pt x="445" y="-80" on="0"/>
        <pt x="256" y="-80" on="1"/>
        <pt x="139" y="-80" on="0"/>
        <pt x="3" y="7" on="0"/>
        <pt x="3" y="77" on="1"/>
        <pt x="3" y="118" on="0"/>
        <pt x="29" y="159" on="1"/>
        <pt x="121" y="305" on="0"/>
        <pt x="343" y="376" on="1"/>
        <pt x="310" y="414" on="0"/>
        <pt x="310" y="500" on="0"/>
        <pt x="331" y="529" on="1"/>
        <pt x="372" y="585" on="0"/>
        <pt x="454" y="621" on="1"/>
        <pt x="552" y="664" on="0"/>
        <pt x="650" y="664" on="1"/>
        <pt x="707" y="664" on="0"/>
        <pt x="776" y="627" on="0"/>
        <pt x="776" y="550" on="0"/>
        <pt x="719" y="497" on="0"/>
        <pt x="657" y="497" on="0"/>
        <pt x="657" y="512" on="1"/>
        <pt x="657" y="521" on="0"/>
        <pt x="670" y="521" on="1"/>
        <pt x="690" y="518" on="1"/>
        <pt x="710" y="518" on="0"/>
        <pt x="743" y="561" on="0"/>
        <pt x="743" y="584" on="1"/>
        <pt x="743" y="618" on="0"/>
        <pt x="704" y="634" on="1"/>
        <pt x="679" y="644" on="0"/>
        <pt x="635" y="644" on="0"/>
        <pt x="626" y="643" on="1"/>
        <pt x="540" y="638" on="0"/>
        <pt x="458" y="583" on="1"/>
        <pt x="362" y="520" on="0"/>
        <pt x="362" y="441" on="1"/>
        <pt x="362" y="412" on="0"/>
        <pt x="382" y="387" on="1"/>
        <pt x="446" y="407" on="0"/>
      </contour>
      <contour>
        <pt x="399" y="371" on="1"/>
        <pt x="442" y="337" on="0"/>
        <pt x="554" y="337" on="0"/>
        <pt x="554" y="368" on="1"/>
        <pt x="554" y="382" on="0"/>
        <pt x="454" y="382" on="0"/>
      </contour>
    </TTGlyph>
    <TTGlyph name="Eacute" xMin="3" yMin="-80" xMax="781" yMax="825">
      <contour>
        <pt x="504" y="407" on="1"/>
        <pt x="602" y="407" on="0"/>
        <pt x="602" y="370" on="1"/>
        <pt x="602" y="362" on="0"/>
        <pt x="596" y="352" on="1"/>
        <pt x="572" y="315" on="0"/>
        <pt x="509" y="315" on="1"/>
        <pt x="468" y="315" on="0"/>
        <pt x="382" y="344" on="0"/>
        <pt x="360" y="360" on="1"/>
        <pt x="267" y="333" on="0"/>
        <pt x="122" y="221" on="0"/>
        <pt x="86" y="150" on="1"/>
        <pt x="67" y="112" on="0"/>
        <pt x="67" y="76" on="1"/>
        <pt x="67" y="20" on="0"/>
        <pt x="160" y="-50" on="0"/>
        <pt x="250" y="-50" on="1"/>
        <pt x="275" y="-50" on="0"/>
        <pt x="302" y="-47" on="1"/>
        <pt x="461" y="-30" on="0"/>
        <pt x="555" y="55" on="1"/>
        <pt x="634" y="125" on="0"/>
        <pt x="634" y="202" on="1"/>
        <pt x="634" y="263" on="0"/>
        <pt x="575" y="263" on="1"/>
        <pt x="504" y="263" on="0"/>
        <pt x="412" y="187" on="1"/>
        <pt x="389" y="168" on="0"/>
        <pt x="357" y="110" on="0"/>
        <pt x="357" y="54" on="0"/>
        <pt x="385" y="47" on="1"/>
        <pt x="395" y="43" on="0"/>
        <pt x="395" y="37" on="1"/>
        <pt x="395" y="27" on="0"/>
        <pt x="375" y="29" on="1"/>
        <pt x="327" y="30" on="0"/>
        <pt x="327" y="154" on="0"/>
        <pt x="390" y="208" on="1"/>
        <pt x="476" y="282" on="0"/>
        <pt x="572" y="282" on="1"/>
        <pt x="644" y="282" on="0"/>
        <pt x="663" y="237" on="1"/>
        <pt x="671" y="216" on="0"/>
        <pt x="671" y="195" on="1"/>
        <pt x="671" y="102" on="0"/>
        <pt x="568" y="20" on="1"/>
        <pt x="445" y="-80" on="0"/>
        <pt x="256" y="-80" on="1"/>
        <pt x="139" y="-80" on="0"/>
        <pt x="3" y="7" on="0"/>
        <pt x="3" y="77" on="1"/>
        <pt x="3" y="118" on="0"/>
        <pt x="29" y="159" on="1"/>
        <pt x="121" y="305" on="0"/>
        <pt x="343" y="376" on="1"/>
        <pt x="310" y="414" on="0"/>
        <pt x="310" y="500" on="0"/>
        <pt x="331" y="529" on="1"/>
        <pt x="372" y="585" on="0"/>
        <pt x="454" y="621" on="1"/>
        <pt x="552" y="664" on="0"/>
        <pt x="650" y="664" on="1"/>
        <pt x="707" y="664" on="0"/>
        <pt x="776" y="627" on="0"/>
        <pt x="776" y="550" on="0"/>
        <pt x="719" y="497" on="0"/>
        <pt x="657" y="497" on="0"/>
        <pt x="657" y="512" on="1"/>
        <pt x="657" y="521" on="0"/>
        <pt x="670" y="521" on="1"/>
        <pt x="690" y="518" on="1"/>
        <pt x="710" y="518" on="0"/>
        <pt x="743" y="561" on="0"/>
        <pt x="743" y="584" on="1"/>
        <pt x="743" y="618" on="0"/>
        <pt x="704" y="634" on="1"/>
        <pt x="679" y="644" on="0"/>
        <pt x="635" y="644" on="0"/>
        <pt x="626" y="643" on="1"/>
        <pt x="540" y="638" on="0"/>
        <pt x="458" y="583" on="1"/>
        <pt x="362" y="520" on="0"/>
        <pt x="362" y="441" on="1"/>
        <pt x="362" y="412" on="0"/>
        <pt x="382" y="387" on="1"/>
        <pt x="446" y="407" on="0"/>
      </contour>
      <contour>
        <pt x="399" y="371" on="1"/>
        <pt x="442" y="337" on="0"/>
        <pt x="554" y="337" on="0"/>
        <pt x="554" y="368" on="1"/>
        <pt x="554" y="382" on="0"/>
        <pt x="454" y="382" on="0"/>
      </contour>
      <contour>
        <pt x="660" y="722" on="0"/>
        <pt x="646" y="722" on="0"/>
        <pt x="646" y="732" on="0"/>
        <pt x="650" y="735" on="1"/>
        <pt x="755" y="816" on="1"/>
        <pt x="766" y="825" on="0"/>
        <pt x="772" y="825" on="1"/>
        <pt x="781" y="825" on="0"/>
        <pt x="781" y="801" on="0"/>
        <pt x="773" y="793" on="1"/>
        <pt x="764" y="786" on="0"/>
      </contour>
    </TTGlyph>
    <TTGlyph name="Ecircumflex" xMin="3" yMin="-80" xMax="824" yMax="825">
      <contour>
        <pt x="504" y="407" on="1"/>
        <pt x="602" y="407" on="0"/>
        <pt x="602" y="370" on="1"/>
        <pt x="602" y="362" on="0"/>
        <pt x="596" y="352" on="1"/>
        <pt x="572" y="315" on="0"/>
        <pt x="509" y="315" on="1"/>
        <pt x="468" y="315" on="0"/>
        <pt x="382" y="344" on="0"/>
        <pt x="360" y="360" on="1"/>
        <pt x="267" y="333" on="0"/>
        <pt x="122" y="221" on="0"/>
        <pt x="86" y="150" on="1"/>
        <pt x="67" y="112" on="0"/>
        <pt x="67" y="76" on="1"/>
        <pt x="67" y="20" on="0"/>
        <pt x="160" y="-50" on="0"/>
        <pt x="250" y="-50" on="1"/>
        <pt x="275" y="-50" on="0"/>
        <pt x="302" y="-47" on="1"/>
        <pt x="461" y="-30" on="0"/>
        <pt x="555" y="55" on="1"/>
        <pt x="634" y="125" on="0"/>
        <pt x="634" y="202" on="1"/>
        <pt x="634" y="263" on="0"/>
        <pt x="575" y="263" on="1"/>
        <pt x="504" y="263" on="0"/>
        <pt x="412" y="187" on="1"/>
        <pt x="389" y="168" on="0"/>
        <pt x="357" y="110" on="0"/>
        <pt x="357" y="54" on="0"/>
        <pt x="385" y="47" on="1"/>
        <pt x="395" y="43" on="0"/>
        <pt x="395" y="37" on="1"/>
        <pt x="395" y="27" on="0"/>
        <pt x="375" y="29" on="1"/>
        <pt x="327" y="30" on="0"/>
        <pt x="327" y="154" on="0"/>
        <pt x="390" y="208" on="1"/>
        <pt x="476" y="282" on="0"/>
        <pt x="572" y="282" on="1"/>
        <pt x="644" y="282" on="0"/>
        <pt x="663" y="237" on="1"/>
        <pt x="671" y="216" on="0"/>
        <pt x="671" y="195" on="1"/>
        <pt x="671" y="102" on="0"/>
        <pt x="568" y="20" on="1"/>
        <pt x="445" y="-80" on="0"/>
        <pt x="256" y="-80" on="1"/>
        <pt x="139" y="-80" on="0"/>
        <pt x="3" y="7" on="0"/>
        <pt x="3" y="77" on="1"/>
        <pt x="3" y="118" on="0"/>
        <pt x="29" y="159" on="1"/>
        <pt x="121" y="305" on="0"/>
        <pt x="343" y="376" on="1"/>
        <pt x="310" y="414" on="0"/>
        <pt x="310" y="500" on="0"/>
        <pt x="331" y="529" on="1"/>
        <pt x="372" y="585" on="0"/>
        <pt x="454" y="621" on="1"/>
        <pt x="552" y="664" on="0"/>
        <pt x="650" y="664" on="1"/>
        <pt x="707" y="664" on="0"/>
        <pt x="776" y="627" on="0"/>
        <pt x="776" y="550" on="0"/>
        <pt x="719" y="497" on="0"/>
        <pt x="657" y="497" on="0"/>
        <pt x="657" y="512" on="1"/>
        <pt x="657" y="521" on="0"/>
        <pt x="670" y="521" on="1"/>
        <pt x="690" y="518" on="1"/>
        <pt x="710" y="518" on="0"/>
        <pt x="743" y="561" on="0"/>
        <pt x="743" y="584" on="1"/>
        <pt x="743" y="618" on="0"/>
        <pt x="704" y="634" on="1"/>
        <pt x="679" y="644" on="0"/>
        <pt x="635" y="644" on="0"/>
        <pt x="626" y="643" on="1"/>
        <pt x="540" y="638" on="0"/>
        <pt x="458" y="583" on="1"/>
        <pt x="362" y="520" on="0"/>
        <pt x="362" y="441" on="1"/>
        <pt x="362" y="412" on="0"/>
        <pt x="382" y="387" on="1"/>
        <pt x="446" y="407" on="0"/>
      </contour>
      <contour>
        <pt x="399" y="371" on="1"/>
        <pt x="442" y="337" on="0"/>
        <pt x="554" y="337" on="0"/>
        <pt x="554" y="368" on="1"/>
        <pt x="554" y="382" on="0"/>
        <pt x="454" y="382" on="0"/>
      </contour>
      <contour>
        <pt x="599" y="715" on="1"/>
        <pt x="577" y="709" on="0"/>
        <pt x="577" y="722" on="1"/>
        <pt x="577" y="725" on="0"/>
        <pt x="587" y="734" on="1"/>
        <pt x="663" y="780" on="0"/>
        <pt x="686" y="800" on="1"/>
        <pt x="716" y="825" on="0"/>
        <pt x="722" y="825" on="1"/>
        <pt x="737" y="825" on="0"/>
        <pt x="821" y="732" on="0"/>
        <pt x="824" y="721" on="0"/>
        <pt x="824" y="719" on="1"/>
        <pt x="824" y="709" on="0"/>
        <pt x="808" y="709" on="0"/>
        <pt x="738" y="773" on="0"/>
        <pt x="716" y="786" on="1"/>
        <pt x="710" y="782" on="0"/>
        <pt x="655" y="748" on="0"/>
        <pt x="607" y="716" on="0"/>
      </contour>
    </TTGlyph>
    <TTGlyph name="Edieresis" xMin="3" yMin="-80" xMax="820" yMax="794">
      <contour>
        <pt x="504" y="407" on="1"/>
        <pt x="602" y="407" on="0"/>
        <pt x="602" y="370" on="1"/>
        <pt x="602" y="362" on="0"/>
        <pt x="596" y="352" on="1"/>
        <pt x="572" y="315" on="0"/>
        <pt x="509" y="315" on="1"/>
        <pt x="468" y="315" on="0"/>
        <pt x="382" y="344" on="0"/>
        <pt x="360" y="360" on="1"/>
        <pt x="267" y="333" on="0"/>
        <pt x="122" y="221" on="0"/>
        <pt x="86" y="150" on="1"/>
        <pt x="67" y="112" on="0"/>
        <pt x="67" y="76" on="1"/>
        <pt x="67" y="20" on="0"/>
        <pt x="160" y="-50" on="0"/>
        <pt x="250" y="-50" on="1"/>
        <pt x="275" y="-50" on="0"/>
        <pt x="302" y="-47" on="1"/>
        <pt x="461" y="-30" on="0"/>
        <pt x="555" y="55" on="1"/>
        <pt x="634" y="125" on="0"/>
        <pt x="634" y="202" on="1"/>
        <pt x="634" y="263" on="0"/>
        <pt x="575" y="263" on="1"/>
        <pt x="504" y="263" on="0"/>
        <pt x="412" y="187" on="1"/>
        <pt x="389" y="168" on="0"/>
        <pt x="357" y="110" on="0"/>
        <pt x="357" y="54" on="0"/>
        <pt x="385" y="47" on="1"/>
        <pt x="395" y="43" on="0"/>
        <pt x="395" y="37" on="1"/>
        <pt x="395" y="27" on="0"/>
        <pt x="375" y="29" on="1"/>
        <pt x="327" y="30" on="0"/>
        <pt x="327" y="154" on="0"/>
        <pt x="390" y="208" on="1"/>
        <pt x="476" y="282" on="0"/>
        <pt x="572" y="282" on="1"/>
        <pt x="644" y="282" on="0"/>
        <pt x="663" y="237" on="1"/>
        <pt x="671" y="216" on="0"/>
        <pt x="671" y="195" on="1"/>
        <pt x="671" y="102" on="0"/>
        <pt x="568" y="20" on="1"/>
        <pt x="445" y="-80" on="0"/>
        <pt x="256" y="-80" on="1"/>
        <pt x="139" y="-80" on="0"/>
        <pt x="3" y="7" on="0"/>
        <pt x="3" y="77" on="1"/>
        <pt x="3" y="118" on="0"/>
        <pt x="29" y="159" on="1"/>
        <pt x="121" y="305" on="0"/>
        <pt x="343" y="376" on="1"/>
        <pt x="310" y="414" on="0"/>
        <pt x="310" y="500" on="0"/>
        <pt x="331" y="529" on="1"/>
        <pt x="372" y="585" on="0"/>
        <pt x="454" y="621" on="1"/>
        <pt x="552" y="664" on="0"/>
        <pt x="650" y="664" on="1"/>
        <pt x="707" y="664" on="0"/>
        <pt x="776" y="627" on="0"/>
        <pt x="776" y="550" on="0"/>
        <pt x="719" y="497" on="0"/>
        <pt x="657" y="497" on="0"/>
        <pt x="657" y="512" on="1"/>
        <pt x="657" y="521" on="0"/>
        <pt x="670" y="521" on="1"/>
        <pt x="690" y="518" on="1"/>
        <pt x="710" y="518" on="0"/>
        <pt x="743" y="561" on="0"/>
        <pt x="743" y="584" on="1"/>
        <pt x="743" y="618" on="0"/>
        <pt x="704" y="634" on="1"/>
        <pt x="679" y="644" on="0"/>
        <pt x="635" y="644" on="0"/>
        <pt x="626" y="643" on="1"/>
        <pt x="540" y="638" on="0"/>
        <pt x="458" y="583" on="1"/>
        <pt x="362" y="520" on="0"/>
        <pt x="362" y="441" on="1"/>
        <pt x="362" y="412" on="0"/>
        <pt x="382" y="387" on="1"/>
        <pt x="446" y="407" on="0"/>
      </contour>
      <contour>
        <pt x="399" y="371" on="1"/>
        <pt x="442" y="337" on="0"/>
        <pt x="554" y="337" on="0"/>
        <pt x="554" y="368" on="1"/>
        <pt x="554" y="382" on="0"/>
        <pt x="454" y="382" on="0"/>
      </contour>
      <contour>
        <pt x="819" y="793" on="1"/>
        <pt x="818" y="793" on="0"/>
        <pt x="805" y="775" on="1"/>
        <pt x="789" y="735" on="1"/>
        <pt x="777" y="708" on="0"/>
        <pt x="762" y="708" on="1"/>
        <pt x="755" y="708" on="0"/>
        <pt x="741" y="729" on="0"/>
        <pt x="741" y="752" on="0"/>
        <pt x="770" y="773" on="1"/>
        <pt x="800" y="794" on="0"/>
        <pt x="816" y="794" on="1"/>
      </contour>
      <contour>
        <pt x="695" y="794" on="1"/>
        <pt x="698" y="793" on="1"/>
        <pt x="697" y="793" on="0"/>
        <pt x="684" y="775" on="1"/>
        <pt x="668" y="735" on="1"/>
        <pt x="656" y="708" on="0"/>
        <pt x="641" y="708" on="1"/>
        <pt x="634" y="708" on="0"/>
        <pt x="620" y="729" on="0"/>
        <pt x="620" y="752" on="0"/>
        <pt x="649" y="773" on="1"/>
        <pt x="679" y="794" on="0"/>
      </contour>
      <contour>
        <pt x="820" y="793" on="1"/>
        <pt x="820" y="792" on="1"/>
        <pt x="819" y="793" on="1"/>
      </contour>
      <contour>
        <pt x="699" y="792" on="1"/>
        <pt x="699" y="793" on="0"/>
        <pt x="698" y="793" on="1"/>
        <pt x="699" y="793" on="1"/>
      </contour>
    </TTGlyph>
    <TTGlyph name="Egrave" xMin="3" yMin="-80" xMax="777" yMax="814">
      <contour>
        <pt x="504" y="407" on="1"/>
        <pt x="602" y="407" on="0"/>
        <pt x="602" y="370" on="1"/>
        <pt x="602" y="362" on="0"/>
        <pt x="596" y="352" on="1"/>
        <pt x="572" y="315" on="0"/>
        <pt x="509" y="315" on="1"/>
        <pt x="468" y="315" on="0"/>
        <pt x="382" y="344" on="0"/>
        <pt x="360" y="360" on="1"/>
        <pt x="267" y="333" on="0"/>
        <pt x="122" y="221" on="0"/>
        <pt x="86" y="150" on="1"/>
        <pt x="67" y="112" on="0"/>
        <pt x="67" y="76" on="1"/>
        <pt x="67" y="20" on="0"/>
        <pt x="160" y="-50" on="0"/>
        <pt x="250" y="-50" on="1"/>
        <pt x="275" y="-50" on="0"/>
        <pt x="302" y="-47" on="1"/>
        <pt x="461" y="-30" on="0"/>
        <pt x="555" y="55" on="1"/>
        <pt x="634" y="125" on="0"/>
        <pt x="634" y="202" on="1"/>
        <pt x="634" y="263" on="0"/>
        <pt x="575" y="263" on="1"/>
        <pt x="504" y="263" on="0"/>
        <pt x="412" y="187" on="1"/>
        <pt x="389" y="168" on="0"/>
        <pt x="357" y="110" on="0"/>
        <pt x="357" y="54" on="0"/>
        <pt x="385" y="47" on="1"/>
        <pt x="395" y="43" on="0"/>
        <pt x="395" y="37" on="1"/>
        <pt x="395" y="27" on="0"/>
        <pt x="375" y="29" on="1"/>
        <pt x="327" y="30" on="0"/>
        <pt x="327" y="154" on="0"/>
        <pt x="390" y="208" on="1"/>
        <pt x="476" y="282" on="0"/>
        <pt x="572" y="282" on="1"/>
        <pt x="644" y="282" on="0"/>
        <pt x="663" y="237" on="1"/>
        <pt x="671" y="216" on="0"/>
        <pt x="671" y="195" on="1"/>
        <pt x="671" y="102" on="0"/>
        <pt x="568" y="20" on="1"/>
        <pt x="445" y="-80" on="0"/>
        <pt x="256" y="-80" on="1"/>
        <pt x="139" y="-80" on="0"/>
        <pt x="3" y="7" on="0"/>
        <pt x="3" y="77" on="1"/>
        <pt x="3" y="118" on="0"/>
        <pt x="29" y="159" on="1"/>
        <pt x="121" y="305" on="0"/>
        <pt x="343" y="376" on="1"/>
        <pt x="310" y="414" on="0"/>
        <pt x="310" y="500" on="0"/>
        <pt x="331" y="529" on="1"/>
        <pt x="372" y="585" on="0"/>
        <pt x="454" y="621" on="1"/>
        <pt x="552" y="664" on="0"/>
        <pt x="650" y="664" on="1"/>
        <pt x="707" y="664" on="0"/>
        <pt x="776" y="627" on="0"/>
        <pt x="776" y="550" on="0"/>
        <pt x="719" y="497" on="0"/>
        <pt x="657" y="497" on="0"/>
        <pt x="657" y="512" on="1"/>
        <pt x="657" y="521" on="0"/>
        <pt x="670" y="521" on="1"/>
        <pt x="690" y="518" on="1"/>
        <pt x="710" y="518" on="0"/>
        <pt x="743" y="561" on="0"/>
        <pt x="743" y="584" on="1"/>
        <pt x="743" y="618" on="0"/>
        <pt x="704" y="634" on="1"/>
        <pt x="679" y="644" on="0"/>
        <pt x="635" y="644" on="0"/>
        <pt x="626" y="643" on="1"/>
        <pt x="540" y="638" on="0"/>
        <pt x="458" y="583" on="1"/>
        <pt x="362" y="520" on="0"/>
        <pt x="362" y="441" on="1"/>
        <pt x="362" y="412" on="0"/>
        <pt x="382" y="387" on="1"/>
        <pt x="446" y="407" on="0"/>
      </contour>
      <contour>
        <pt x="399" y="371" on="1"/>
        <pt x="442" y="337" on="0"/>
        <pt x="554" y="337" on="0"/>
        <pt x="554" y="368" on="1"/>
        <pt x="554" y="382" on="0"/>
        <pt x="454" y="382" on="0"/>
      </contour>
      <contour>
        <pt x="709" y="724" on="1"/>
        <pt x="713" y="721" on="0"/>
        <pt x="713" y="712" on="0"/>
        <pt x="701" y="712" on="0"/>
        <pt x="595" y="776" on="0"/>
        <pt x="578" y="789" on="0"/>
        <pt x="578" y="814" on="0"/>
        <pt x="587" y="814" on="1"/>
        <pt x="601" y="814" on="0"/>
      </contour>
    </TTGlyph>
    <TTGlyph name="Eth" xMin="15" yMin="-59" xMax="926" yMax="634">
      <contour>
        <pt x="526" y="277" on="1"/>
        <pt x="526" y="259" on="0"/>
        <pt x="397" y="241" on="1"/>
        <pt x="312" y="128" on="0"/>
        <pt x="212" y="45" on="1"/>
        <pt x="268" y="-38" on="0"/>
        <pt x="388" y="-38" on="1"/>
        <pt x="401" y="-38" on="0"/>
        <pt x="427" y="-36" on="1"/>
        <pt x="705" y="-10" on="0"/>
        <pt x="821" y="205" on="1"/>
        <pt x="868" y="291" on="0"/>
        <pt x="868" y="459" on="0"/>
        <pt x="807" y="526" on="1"/>
        <pt x="758" y="581" on="0"/>
        <pt x="643" y="607" on="0"/>
        <pt x="583" y="607" on="1"/>
        <pt x="429" y="607" on="0"/>
        <pt x="299" y="536" on="1"/>
        <pt x="162" y="461" on="0"/>
        <pt x="162" y="368" on="1"/>
        <pt x="162" y="343" on="0"/>
        <pt x="189" y="311" on="0"/>
        <pt x="194" y="309" on="1"/>
        <pt x="188" y="309" on="1"/>
        <pt x="162" y="314" on="0"/>
        <pt x="142" y="335" on="1"/>
        <pt x="120" y="361" on="0"/>
        <pt x="120" y="390" on="1"/>
        <pt x="120" y="490" on="0"/>
        <pt x="371" y="634" on="0"/>
        <pt x="540" y="634" on="1"/>
        <pt x="618" y="634" on="0"/>
        <pt x="782" y="598" on="0"/>
        <pt x="849" y="530" on="1"/>
        <pt x="926" y="450" on="0"/>
        <pt x="926" y="349" on="1"/>
        <pt x="926" y="274" on="0"/>
        <pt x="882" y="194" on="1"/>
        <pt x="806" y="56" on="0"/>
        <pt x="655" y="-8" on="1"/>
        <pt x="534" y="-59" on="0"/>
        <pt x="254" y="-59" on="0"/>
        <pt x="187" y="25" on="1"/>
        <pt x="99" y="-43" on="0"/>
        <pt x="58" y="-43" on="1"/>
        <pt x="36" y="-43" on="0"/>
        <pt x="15" y="0" on="0"/>
        <pt x="15" y="25" on="1"/>
        <pt x="15" y="73" on="0"/>
        <pt x="96" y="265" on="0"/>
        <pt x="133" y="265" on="1"/>
        <pt x="152" y="265" on="0"/>
        <pt x="179" y="115" on="0"/>
        <pt x="193" y="81" on="1"/>
        <pt x="238" y="127" on="0"/>
        <pt x="318" y="229" on="1"/>
        <pt x="306" y="229" on="0"/>
        <pt x="291" y="232" on="1"/>
        <pt x="259" y="238" on="0"/>
        <pt x="259" y="253" on="1"/>
        <pt x="259" y="263" on="0"/>
        <pt x="276" y="277" on="0"/>
        <pt x="288" y="277" on="0"/>
        <pt x="294" y="278" on="1"/>
        <pt x="357" y="278" on="1"/>
        <pt x="390" y="321" on="1"/>
        <pt x="552" y="534" on="0"/>
        <pt x="605" y="554" on="1"/>
        <pt x="623" y="561" on="0"/>
        <pt x="661" y="561" on="0"/>
        <pt x="686" y="545" on="0"/>
        <pt x="686" y="533" on="1"/>
        <pt x="686" y="516" on="0"/>
        <pt x="657" y="513" on="1"/>
        <pt x="622" y="494" on="0"/>
        <pt x="549" y="421" on="1"/>
        <pt x="480" y="354" on="0"/>
        <pt x="424" y="277" on="1"/>
        <pt x="490" y="277" on="0"/>
        <pt x="525" y="280" on="1"/>
        <pt x="526" y="279" on="0"/>
      </contour>
      <contour>
        <pt x="51" y="29" on="1"/>
        <pt x="51" y="-2" on="0"/>
        <pt x="63" y="-25" on="1"/>
        <pt x="106" y="-6" on="0"/>
        <pt x="167" y="54" on="1"/>
        <pt x="138" y="102" on="0"/>
        <pt x="123" y="157" on="0"/>
        <pt x="120" y="202" on="1"/>
        <pt x="51" y="103" on="0"/>
      </contour>
      <contour>
        <pt x="194" y="309" on="1"/>
        <pt x="195" y="309" on="0"/>
        <pt x="196" y="310" on="1"/>
        <pt x="196" y="308" on="0"/>
        <pt x="195" y="308" on="0"/>
      </contour>
    </TTGlyph>
    <TTGlyph name="Euro" xMin="-67" yMin="-65" xMax="797" yMax="650">
      <contour>
        <pt x="168" y="261" on="1"/>
        <pt x="309" y="259" on="1"/>
        <pt x="385" y="259" on="0"/>
        <pt x="418" y="262" on="1"/>
        <pt x="419" y="261" on="0"/>
        <pt x="419" y="259" on="1"/>
        <pt x="419" y="244" on="0"/>
        <pt x="261" y="224" on="0"/>
        <pt x="155" y="210" on="0"/>
        <pt x="108" y="210" on="0"/>
        <pt x="88" y="211" on="1"/>
        <pt x="83" y="188" on="0"/>
        <pt x="83" y="159" on="1"/>
        <pt x="83" y="68" on="0"/>
        <pt x="207" y="-31" on="0"/>
        <pt x="299" y="-31" on="1"/>
        <pt x="404" y="-31" on="0"/>
        <pt x="505" y="20" on="1"/>
        <pt x="582" y="60" on="0"/>
        <pt x="638" y="122" on="1"/>
        <pt x="654" y="140" on="0"/>
        <pt x="663" y="140" on="1"/>
        <pt x="669" y="140" on="0"/>
        <pt x="669" y="119" on="0"/>
        <pt x="658" y="108" on="1"/>
        <pt x="605" y="52" on="0"/>
        <pt x="505" y="0" on="1"/>
        <pt x="382" y="-65" on="0"/>
        <pt x="133" y="-65" on="0"/>
        <pt x="72" y="17" on="1"/>
        <pt x="31" y="71" on="0"/>
        <pt x="31" y="145" on="1"/>
        <pt x="31" y="177" on="0"/>
        <pt x="38" y="212" on="1"/>
        <pt x="21" y="214" on="1"/>
        <pt x="-67" y="220" on="0"/>
        <pt x="-67" y="235" on="1"/>
        <pt x="-67" y="245" on="0"/>
        <pt x="-50" y="259" on="0"/>
        <pt x="-43" y="259" on="1"/>
        <pt x="-28" y="259" on="1"/>
        <pt x="-28" y="259" on="0"/>
        <pt x="-3" y="260" on="1"/>
        <pt x="50" y="260" on="1"/>
        <pt x="64" y="298" on="0"/>
        <pt x="83" y="335" on="1"/>
        <pt x="11" y="341" on="0"/>
        <pt x="11" y="355" on="1"/>
        <pt x="11" y="366" on="0"/>
        <pt x="28" y="379" on="0"/>
        <pt x="35" y="379" on="1"/>
        <pt x="50" y="379" on="1"/>
        <pt x="111" y="381" on="1"/>
        <pt x="219" y="534" on="0"/>
        <pt x="381" y="603" on="1"/>
        <pt x="492" y="650" on="0"/>
        <pt x="594" y="650" on="1"/>
        <pt x="648" y="650" on="0"/>
        <pt x="688" y="637" on="1"/>
        <pt x="797" y="603" on="0"/>
        <pt x="797" y="500" on="1"/>
        <pt x="797" y="446" on="0"/>
        <pt x="751" y="389" on="1"/>
        <pt x="729" y="362" on="0"/>
        <pt x="713" y="362" on="1"/>
        <pt x="708" y="362" on="0"/>
        <pt x="703" y="364" on="1"/>
        <pt x="690" y="371" on="0"/>
        <pt x="700" y="386" on="1"/>
        <pt x="704" y="391" on="0"/>
        <pt x="710" y="395" on="1"/>
        <pt x="755" y="444" on="0"/>
        <pt x="755" y="572" on="0"/>
        <pt x="707" y="603" on="1"/>
        <pt x="667" y="631" on="0"/>
        <pt x="599" y="631" on="1"/>
        <pt x="501" y="631" on="0"/>
        <pt x="402" y="582" on="1"/>
        <pt x="271" y="519" on="0"/>
        <pt x="168" y="381" on="1"/>
        <pt x="384" y="380" on="1"/>
        <pt x="468" y="380" on="0"/>
        <pt x="521" y="382" on="1"/>
        <pt x="526" y="374" on="0"/>
        <pt x="472" y="358" on="0"/>
        <pt x="418" y="351" on="1"/>
        <pt x="271" y="333" on="1"/>
        <pt x="262" y="331" on="0"/>
        <pt x="184" y="331" on="0"/>
        <pt x="136" y="332" on="1"/>
        <pt x="113" y="292" on="0"/>
        <pt x="102" y="260" on="1"/>
        <pt x="138" y="261" on="0"/>
      </contour>
    </TTGlyph>
    <TTGlyph name="F" xMin="-12" yMin="-89" xMax="728" yMax="665">
      <contour>
        <pt x="528" y="251" on="1"/>
        <pt x="625" y="248" on="0"/>
        <pt x="636" y="248" on="0"/>
        <pt x="637" y="248" on="1"/>
        <pt x="661" y="250" on="0"/>
        <pt x="661" y="241" on="1"/>
        <pt x="661" y="227" on="0"/>
        <pt x="622" y="227" on="1"/>
        <pt x="537" y="229" on="1"/>
        <pt x="511" y="227" on="0"/>
        <pt x="506" y="224" on="1"/>
        <pt x="464" y="172" on="0"/>
        <pt x="322" y="-25" on="0"/>
        <pt x="322" y="-44" on="1"/>
        <pt x="322" y="-52" on="0"/>
        <pt x="340" y="-40" on="1"/>
        <pt x="351" y="-40" on="0"/>
        <pt x="351" y="-43" on="1"/>
        <pt x="351" y="-48" on="0"/>
        <pt x="329" y="-58" on="1"/>
        <pt x="301" y="-73" on="1"/>
        <pt x="282" y="-89" on="0"/>
        <pt x="233" y="-89" on="0"/>
        <pt x="235" y="-77" on="1"/>
        <pt x="236" y="-53" on="0"/>
        <pt x="376" y="142" on="0"/>
        <pt x="451" y="230" on="1"/>
        <pt x="379" y="217" on="0"/>
        <pt x="341" y="217" on="1"/>
        <pt x="337" y="218" on="0"/>
        <pt x="337" y="229" on="0"/>
        <pt x="361" y="249" on="0"/>
        <pt x="388" y="249" on="0"/>
        <pt x="418" y="250" on="1"/>
        <pt x="469" y="250" on="1"/>
        <pt x="503" y="296" on="0"/>
        <pt x="620" y="462" on="1"/>
        <pt x="668" y="531" on="0"/>
        <pt x="668" y="576" on="1"/>
        <pt x="668" y="646" on="0"/>
        <pt x="564" y="646" on="1"/>
        <pt x="483" y="646" on="0"/>
        <pt x="264" y="556" on="0"/>
        <pt x="172" y="478" on="1"/>
        <pt x="107" y="424" on="0"/>
        <pt x="31" y="298" on="0"/>
        <pt x="31" y="249" on="1"/>
        <pt x="31" y="170" on="0"/>
        <pt x="125" y="170" on="1"/>
        <pt x="133" y="170" on="0"/>
        <pt x="142" y="171" on="1"/>
        <pt x="203" y="176" on="0"/>
        <pt x="312" y="305" on="0"/>
        <pt x="312" y="349" on="1"/>
        <pt x="312" y="353" on="0"/>
        <pt x="311" y="358" on="1"/>
        <pt x="337" y="353" on="0"/>
        <pt x="337" y="327" on="1"/>
        <pt x="337" y="284" on="0"/>
        <pt x="281" y="226" on="1"/>
        <pt x="205" y="147" on="0"/>
        <pt x="105" y="147" on="1"/>
        <pt x="50" y="147" on="0"/>
        <pt x="-12" y="205" on="0"/>
        <pt x="-12" y="255" on="1"/>
        <pt x="-12" y="373" on="0"/>
        <pt x="132" y="493" on="1"/>
        <pt x="236" y="578" on="0"/>
        <pt x="470" y="665" on="0"/>
        <pt x="643" y="665" on="0"/>
        <pt x="728" y="615" on="0"/>
        <pt x="728" y="526" on="0"/>
        <pt x="689" y="470" on="1"/>
        <pt x="666" y="433" on="0"/>
      </contour>
    </TTGlyph>
    <TTGlyph name="G" xMin="-15" yMin="-154" xMax="948" yMax="640">
      <contour>
        <pt x="548" y="487" on="1"/>
        <pt x="546" y="455" on="1"/>
        <pt x="546" y="390" on="0"/>
        <pt x="616" y="390" on="1"/>
        <pt x="674" y="390" on="0"/>
        <pt x="792" y="470" on="0"/>
        <pt x="792" y="552" on="0"/>
        <pt x="744" y="580" on="1"/>
        <pt x="712" y="599" on="0"/>
        <pt x="644" y="599" on="1"/>
        <pt x="543" y="599" on="0"/>
        <pt x="294" y="503" on="0"/>
        <pt x="185" y="397" on="1"/>
        <pt x="42" y="257" on="0"/>
        <pt x="42" y="140" on="1"/>
        <pt x="42" y="71" on="0"/>
        <pt x="147" y="-13" on="0"/>
        <pt x="232" y="-13" on="1"/>
        <pt x="350" y="-13" on="0"/>
        <pt x="506" y="76" on="1"/>
        <pt x="636" y="149" on="0"/>
        <pt x="701" y="231" on="1"/>
        <pt x="730" y="274" on="1"/>
        <pt x="712" y="274" on="0"/>
        <pt x="450" y="253" on="0"/>
        <pt x="412" y="244" on="0"/>
        <pt x="400" y="244" on="1"/>
        <pt x="367" y="244" on="0"/>
        <pt x="367" y="260" on="1"/>
        <pt x="367" y="285" on="0"/>
        <pt x="519" y="318" on="0"/>
        <pt x="881" y="318" on="0"/>
        <pt x="939" y="304" on="1"/>
        <pt x="948" y="302" on="0"/>
        <pt x="948" y="299" on="1"/>
        <pt x="948" y="288" on="0"/>
        <pt x="879" y="283" on="1"/>
        <pt x="793" y="276" on="0"/>
        <pt x="791" y="276" on="1"/>
        <pt x="689" y="142" on="0"/>
        <pt x="527" y="-138" on="1"/>
        <pt x="518" y="-154" on="0"/>
        <pt x="501" y="-154" on="0"/>
        <pt x="501" y="-141" on="1"/>
        <pt x="501" y="-106" on="0"/>
        <pt x="557" y="-6" on="1"/>
        <pt x="627" y="125" on="1"/>
        <pt x="563" y="70" on="0"/>
        <pt x="464" y="22" on="1"/>
        <pt x="335" y="-39" on="0"/>
        <pt x="106" y="-39" on="0"/>
        <pt x="-15" y="60" on="0"/>
        <pt x="-15" y="143" on="1"/>
        <pt x="-15" y="296" on="0"/>
        <pt x="170" y="454" on="1"/>
        <pt x="263" y="534" on="0"/>
        <pt x="527" y="640" on="0"/>
        <pt x="726" y="640" on="0"/>
        <pt x="779" y="601" on="1"/>
        <pt x="820" y="569" on="0"/>
        <pt x="820" y="529" on="1"/>
        <pt x="820" y="472" on="0"/>
        <pt x="679" y="367" on="0"/>
        <pt x="610" y="367" on="1"/>
        <pt x="517" y="367" on="0"/>
        <pt x="517" y="474" on="1"/>
        <pt x="517" y="515" on="0"/>
        <pt x="534" y="515" on="1"/>
        <pt x="548" y="515" on="0"/>
      </contour>
    </TTGlyph>
    <TTGlyph name="H" xMin="19" yMin="-66" xMax="1263" yMax="736">
      <contour>
        <pt x="283" y="-46" on="1"/>
        <pt x="283" y="-18" on="0"/>
        <pt x="398" y="171" on="1"/>
        <pt x="316" y="171" on="0"/>
        <pt x="289" y="164" on="1"/>
        <pt x="244" y="153" on="0"/>
        <pt x="222" y="119" on="1"/>
        <pt x="214" y="108" on="0"/>
        <pt x="203" y="106" on="0"/>
        <pt x="203" y="117" on="0"/>
        <pt x="207" y="121" on="1"/>
        <pt x="245" y="172" on="0"/>
        <pt x="319" y="210" on="0"/>
        <pt x="399" y="210" on="1"/>
        <pt x="411" y="210" on="0"/>
        <pt x="423" y="210" on="1"/>
        <pt x="484" y="303" on="0"/>
        <pt x="594" y="486" on="1"/>
        <pt x="635" y="563" on="0"/>
        <pt x="635" y="611" on="1"/>
        <pt x="635" y="688" on="0"/>
        <pt x="541" y="689" on="1"/>
        <pt x="535" y="689" on="0"/>
        <pt x="530" y="689" on="1"/>
        <pt x="402" y="689" on="0"/>
        <pt x="192" y="561" on="0"/>
        <pt x="70" y="371" on="0"/>
        <pt x="70" y="295" on="1"/>
        <pt x="70" y="202" on="0"/>
        <pt x="157" y="202" on="1"/>
        <pt x="226" y="202" on="0"/>
        <pt x="324" y="324" on="0"/>
        <pt x="324" y="379" on="1"/>
        <pt x="324" y="410" on="0"/>
        <pt x="308" y="430" on="1"/>
        <pt x="306" y="432" on="0"/>
        <pt x="306" y="435" on="1"/>
        <pt x="306" y="442" on="0"/>
        <pt x="314" y="442" on="1"/>
        <pt x="318" y="442" on="0"/>
        <pt x="320" y="439" on="1"/>
        <pt x="340" y="413" on="0"/>
        <pt x="340" y="377" on="1"/>
        <pt x="340" y="316" on="0"/>
        <pt x="240" y="189" on="0"/>
        <pt x="185" y="182" on="1"/>
        <pt x="168" y="179" on="0"/>
        <pt x="152" y="179" on="1"/>
        <pt x="88" y="179" on="0"/>
        <pt x="53" y="220" on="1"/>
        <pt x="19" y="257" on="0"/>
        <pt x="19" y="320" on="1"/>
        <pt x="19" y="346" on="0"/>
        <pt x="25" y="373" on="1"/>
        <pt x="55" y="508" on="0"/>
        <pt x="342" y="710" on="0"/>
        <pt x="521" y="710" on="1"/>
        <pt x="590" y="710" on="0"/>
        <pt x="689" y="651" on="0"/>
        <pt x="689" y="545" on="0"/>
        <pt x="652" y="486" on="1"/>
        <pt x="471" y="208" on="1"/>
        <pt x="503" y="207" on="0"/>
        <pt x="668" y="190" on="0"/>
        <pt x="751" y="190" on="0"/>
        <pt x="765" y="191" on="1"/>
        <pt x="803" y="254" on="1"/>
        <pt x="900" y="417" on="0"/>
        <pt x="1155" y="700" on="0"/>
        <pt x="1250" y="734" on="1"/>
        <pt x="1253" y="735" on="0"/>
        <pt x="1256" y="735" on="1"/>
        <pt x="1263" y="735" on="0"/>
        <pt x="1263" y="727" on="1"/>
        <pt x="1263" y="724" on="0"/>
        <pt x="1260" y="722" on="1"/>
        <pt x="1196" y="686" on="0"/>
        <pt x="957" y="409" on="0"/>
        <pt x="870" y="263" on="1"/>
        <pt x="831" y="197" on="1"/>
        <pt x="877" y="203" on="0"/>
        <pt x="897" y="220" on="1"/>
        <pt x="901" y="223" on="0"/>
        <pt x="907" y="210" on="0"/>
        <pt x="903" y="207" on="1"/>
        <pt x="873" y="184" on="0"/>
        <pt x="818" y="174" on="1"/>
        <pt x="748" y="44" on="0"/>
        <pt x="748" y="-9" on="1"/>
        <pt x="748" y="-43" on="0"/>
        <pt x="777" y="-43" on="1"/>
        <pt x="797" y="-43" on="0"/>
        <pt x="850" y="-16" on="0"/>
        <pt x="868" y="3" on="0"/>
        <pt x="872" y="3" on="0"/>
        <pt x="870" y="-10" on="0"/>
        <pt x="867" y="-14" on="1"/>
        <pt x="850" y="-30" on="0"/>
        <pt x="782" y="-66" on="0"/>
        <pt x="740" y="-66" on="0"/>
        <pt x="730" y="-59" on="1"/>
        <pt x="698" y="-38" on="0"/>
        <pt x="698" y="66" on="0"/>
        <pt x="751" y="166" on="1"/>
        <pt x="714" y="163" on="0"/>
        <pt x="682" y="163" on="1"/>
        <pt x="671" y="163" on="0"/>
        <pt x="447" y="170" on="1"/>
        <pt x="376" y="58" on="0"/>
        <pt x="333" y="-34" on="1"/>
        <pt x="320" y="-61" on="0"/>
        <pt x="283" y="-61" on="0"/>
      </contour>
    </TTGlyph>
    <TTGlyph name="I" xMin="20" yMin="-69" xMax="876" yMax="704">
      <contour>
        <pt x="714" y="396" on="1"/>
        <pt x="707" y="423" on="1"/>
        <pt x="707" y="431" on="0"/>
        <pt x="715" y="431" on="1"/>
        <pt x="718" y="431" on="0"/>
        <pt x="723" y="428" on="1"/>
        <pt x="746" y="411" on="0"/>
        <pt x="746" y="355" on="0"/>
        <pt x="674" y="302" on="0"/>
        <pt x="619" y="302" on="1"/>
        <pt x="602" y="302" on="0"/>
        <pt x="585" y="305" on="1"/>
        <pt x="516" y="178" on="0"/>
        <pt x="417" y="71" on="1"/>
        <pt x="285" y="-69" on="0"/>
        <pt x="177" y="-69" on="1"/>
        <pt x="21" y="-69" on="0"/>
        <pt x="21" y="115" on="1"/>
        <pt x="21" y="267" on="0"/>
        <pt x="102" y="360" on="1"/>
        <pt x="170" y="440" on="0"/>
        <pt x="258" y="440" on="1"/>
        <pt x="281" y="440" on="0"/>
        <pt x="305" y="432" on="1"/>
        <pt x="364" y="409" on="0"/>
        <pt x="364" y="260" on="0"/>
        <pt x="242" y="98" on="0"/>
        <pt x="178" y="98" on="1"/>
        <pt x="106" y="98" on="0"/>
        <pt x="106" y="176" on="1"/>
        <pt x="106" y="198" on="0"/>
        <pt x="125" y="246" on="0"/>
        <pt x="137" y="246" on="1"/>
        <pt x="146" y="246" on="0"/>
        <pt x="146" y="237" on="1"/>
        <pt x="146" y="232" on="0"/>
        <pt x="128" y="192" on="0"/>
        <pt x="128" y="161" on="0"/>
        <pt x="161" y="134" on="0"/>
        <pt x="179" y="134" on="1"/>
        <pt x="238" y="134" on="0"/>
        <pt x="339" y="279" on="0"/>
        <pt x="339" y="348" on="1"/>
        <pt x="339" y="401" on="0"/>
        <pt x="301" y="418" on="1"/>
        <pt x="288" y="423" on="0"/>
        <pt x="274" y="423" on="1"/>
        <pt x="203" y="423" on="0"/>
        <pt x="132" y="325" on="1"/>
        <pt x="63" y="226" on="0"/>
        <pt x="63" y="108" on="1"/>
        <pt x="63" y="43" on="0"/>
        <pt x="91" y="2" on="1"/>
        <pt x="120" y="-40" on="0"/>
        <pt x="171" y="-40" on="1"/>
        <pt x="303" y="-40" on="0"/>
        <pt x="515" y="319" on="1"/>
        <pt x="405" y="352" on="0"/>
        <pt x="405" y="449" on="1"/>
        <pt x="405" y="578" on="0"/>
        <pt x="536" y="655" on="1"/>
        <pt x="619" y="703" on="0"/>
        <pt x="697" y="703" on="1"/>
        <pt x="758" y="703" on="0"/>
        <pt x="807" y="683" on="1"/>
        <pt x="876" y="656" on="0"/>
        <pt x="876" y="601" on="1"/>
        <pt x="876" y="589" on="0"/>
        <pt x="865" y="567" on="0"/>
        <pt x="859" y="567" on="1"/>
        <pt x="846" y="580" on="0"/>
        <pt x="828" y="580" on="1"/>
        <pt x="743" y="580" on="0"/>
        <pt x="595" y="327" on="1"/>
        <pt x="603" y="326" on="0"/>
        <pt x="612" y="326" on="1"/>
        <pt x="646" y="326" on="0"/>
        <pt x="714" y="366" on="0"/>
      </contour>
      <contour>
        <pt x="670" y="675" on="0"/>
        <pt x="537" y="616" on="0"/>
        <pt x="458" y="502" on="0"/>
        <pt x="458" y="358" on="0"/>
        <pt x="532" y="344" on="1"/>
        <pt x="587" y="434" on="0"/>
        <pt x="761" y="613" on="0"/>
        <pt x="819" y="613" on="1"/>
        <pt x="834" y="613" on="0"/>
        <pt x="845" y="606" on="1"/>
        <pt x="844" y="634" on="0"/>
        <pt x="806" y="655" on="1"/>
        <pt x="772" y="675" on="0"/>
      </contour>
    </TTGlyph>
    <TTGlyph name="IJ" xMin="20" yMin="-130" xMax="1611" yMax="716">
      <contour>
        <pt x="714" y="396" on="1"/>
        <pt x="707" y="423" on="1"/>
        <pt x="707" y="431" on="0"/>
        <pt x="715" y="431" on="1"/>
        <pt x="718" y="431" on="0"/>
        <pt x="723" y="428" on="1"/>
        <pt x="746" y="411" on="0"/>
        <pt x="746" y="355" on="0"/>
        <pt x="674" y="302" on="0"/>
        <pt x="619" y="302" on="1"/>
        <pt x="602" y="302" on="0"/>
        <pt x="585" y="305" on="1"/>
        <pt x="516" y="178" on="0"/>
        <pt x="417" y="71" on="1"/>
        <pt x="285" y="-69" on="0"/>
        <pt x="177" y="-69" on="1"/>
        <pt x="21" y="-69" on="0"/>
        <pt x="21" y="115" on="1"/>
        <pt x="21" y="267" on="0"/>
        <pt x="102" y="360" on="1"/>
        <pt x="170" y="440" on="0"/>
        <pt x="258" y="440" on="1"/>
        <pt x="281" y="440" on="0"/>
        <pt x="305" y="432" on="1"/>
        <pt x="364" y="409" on="0"/>
        <pt x="364" y="260" on="0"/>
        <pt x="242" y="98" on="0"/>
        <pt x="178" y="98" on="1"/>
        <pt x="106" y="98" on="0"/>
        <pt x="106" y="176" on="1"/>
        <pt x="106" y="198" on="0"/>
        <pt x="125" y="246" on="0"/>
        <pt x="137" y="246" on="1"/>
        <pt x="146" y="246" on="0"/>
        <pt x="146" y="237" on="1"/>
        <pt x="146" y="232" on="0"/>
        <pt x="128" y="192" on="0"/>
        <pt x="128" y="161" on="0"/>
        <pt x="161" y="134" on="0"/>
        <pt x="179" y="134" on="1"/>
        <pt x="238" y="134" on="0"/>
        <pt x="339" y="279" on="0"/>
        <pt x="339" y="348" on="1"/>
        <pt x="339" y="401" on="0"/>
        <pt x="301" y="418" on="1"/>
        <pt x="288" y="423" on="0"/>
        <pt x="274" y="423" on="1"/>
        <pt x="203" y="423" on="0"/>
        <pt x="132" y="325" on="1"/>
        <pt x="63" y="226" on="0"/>
        <pt x="63" y="108" on="1"/>
        <pt x="63" y="43" on="0"/>
        <pt x="91" y="2" on="1"/>
        <pt x="120" y="-40" on="0"/>
        <pt x="171" y="-40" on="1"/>
        <pt x="303" y="-40" on="0"/>
        <pt x="515" y="319" on="1"/>
        <pt x="405" y="352" on="0"/>
        <pt x="405" y="449" on="1"/>
        <pt x="405" y="578" on="0"/>
        <pt x="536" y="655" on="1"/>
        <pt x="619" y="703" on="0"/>
        <pt x="697" y="703" on="1"/>
        <pt x="758" y="703" on="0"/>
        <pt x="807" y="683" on="1"/>
        <pt x="876" y="656" on="0"/>
        <pt x="876" y="601" on="1"/>
        <pt x="876" y="589" on="0"/>
        <pt x="865" y="567" on="0"/>
        <pt x="859" y="567" on="1"/>
        <pt x="846" y="580" on="0"/>
        <pt x="828" y="580" on="1"/>
        <pt x="743" y="580" on="0"/>
        <pt x="595" y="327" on="1"/>
        <pt x="603" y="326" on="0"/>
        <pt x="612" y="326" on="1"/>
        <pt x="646" y="326" on="0"/>
        <pt x="714" y="366" on="0"/>
      </contour>
      <contour>
        <pt x="670" y="675" on="0"/>
        <pt x="537" y="616" on="0"/>
        <pt x="458" y="502" on="0"/>
        <pt x="458" y="358" on="0"/>
        <pt x="532" y="344" on="1"/>
        <pt x="587" y="434" on="0"/>
        <pt x="761" y="613" on="0"/>
        <pt x="819" y="613" on="1"/>
        <pt x="834" y="613" on="0"/>
        <pt x="845" y="606" on="1"/>
        <pt x="844" y="634" on="0"/>
        <pt x="806" y="655" on="1"/>
        <pt x="772" y="675" on="0"/>
      </contour>
      <contour>
        <pt x="1179" y="477" on="1"/>
        <pt x="1179" y="469" on="0"/>
        <pt x="1138" y="469" on="0"/>
        <pt x="1097" y="510" on="0"/>
        <pt x="1097" y="569" on="0"/>
        <pt x="1115" y="593" on="1"/>
        <pt x="1153" y="645" on="0"/>
        <pt x="1242" y="667" on="1"/>
        <pt x="1306" y="683" on="0"/>
        <pt x="1370" y="683" on="1"/>
        <pt x="1378" y="683" on="1"/>
        <pt x="1386" y="683" on="0"/>
        <pt x="1427" y="680" on="1"/>
        <pt x="1425" y="693" on="0"/>
        <pt x="1450" y="716" on="0"/>
        <pt x="1466" y="716" on="1"/>
        <pt x="1496" y="716" on="0"/>
        <pt x="1495" y="673" on="1"/>
        <pt x="1603" y="654" on="0"/>
        <pt x="1609" y="615" on="1"/>
        <pt x="1610" y="606" on="0"/>
        <pt x="1610" y="600" on="1"/>
        <pt x="1610" y="580" on="0"/>
        <pt x="1586" y="580" on="0"/>
        <pt x="1591" y="604" on="1"/>
        <pt x="1566" y="641" on="0"/>
        <pt x="1492" y="656" on="1"/>
        <pt x="1474" y="575" on="0"/>
        <pt x="1304" y="304" on="1"/>
        <pt x="1191" y="126" on="0"/>
        <pt x="1041" y="6" on="1"/>
        <pt x="869" y="-130" on="0"/>
        <pt x="717" y="-130" on="1"/>
        <pt x="624" y="-130" on="0"/>
        <pt x="534" y="-36" on="0"/>
        <pt x="534" y="79" on="0"/>
        <pt x="556" y="120" on="1"/>
        <pt x="608" y="222" on="0"/>
        <pt x="709" y="279" on="1"/>
        <pt x="783" y="322" on="0"/>
        <pt x="846" y="322" on="1"/>
        <pt x="914" y="322" on="0"/>
        <pt x="991" y="256" on="0"/>
        <pt x="991" y="206" on="1"/>
        <pt x="991" y="152" on="0"/>
        <pt x="951" y="108" on="1"/>
        <pt x="926" y="80" on="0"/>
        <pt x="911" y="80" on="1"/>
        <pt x="907" y="80" on="0"/>
        <pt x="907" y="87" on="0"/>
        <pt x="910" y="93" on="1"/>
        <pt x="946" y="146" on="0"/>
        <pt x="946" y="237" on="0"/>
        <pt x="920" y="266" on="1"/>
        <pt x="892" y="297" on="0"/>
        <pt x="792" y="297" on="0"/>
        <pt x="732" y="257" on="1"/>
        <pt x="657" y="208" on="0"/>
        <pt x="609" y="110" on="1"/>
        <pt x="584" y="61" on="0"/>
        <pt x="584" y="-44" on="0"/>
        <pt x="662" y="-109" on="0"/>
        <pt x="728" y="-109" on="1"/>
        <pt x="982" y="-109" on="0"/>
        <pt x="1259" y="337" on="1"/>
        <pt x="1425" y="603" on="0"/>
        <pt x="1429" y="663" on="1"/>
        <pt x="1369" y="666" on="0"/>
        <pt x="1366" y="666" on="1"/>
        <pt x="1319" y="666" on="0"/>
        <pt x="1172" y="614" on="0"/>
        <pt x="1150" y="576" on="1"/>
        <pt x="1141" y="561" on="0"/>
        <pt x="1141" y="525" on="0"/>
        <pt x="1179" y="481" on="0"/>
      </contour>
    </TTGlyph>
    <TTGlyph name="Iacute" xMin="20" yMin="-69" xMax="898" yMax="825">
      <contour>
        <pt x="714" y="396" on="1"/>
        <pt x="707" y="423" on="1"/>
        <pt x="707" y="431" on="0"/>
        <pt x="715" y="431" on="1"/>
        <pt x="718" y="431" on="0"/>
        <pt x="723" y="428" on="1"/>
        <pt x="746" y="411" on="0"/>
        <pt x="746" y="355" on="0"/>
        <pt x="674" y="302" on="0"/>
        <pt x="619" y="302" on="1"/>
        <pt x="602" y="302" on="0"/>
        <pt x="585" y="305" on="1"/>
        <pt x="516" y="178" on="0"/>
        <pt x="417" y="71" on="1"/>
        <pt x="285" y="-69" on="0"/>
        <pt x="177" y="-69" on="1"/>
        <pt x="21" y="-69" on="0"/>
        <pt x="21" y="115" on="1"/>
        <pt x="21" y="267" on="0"/>
        <pt x="102" y="360" on="1"/>
        <pt x="170" y="440" on="0"/>
        <pt x="258" y="440" on="1"/>
        <pt x="281" y="440" on="0"/>
        <pt x="305" y="432" on="1"/>
        <pt x="364" y="409" on="0"/>
        <pt x="364" y="260" on="0"/>
        <pt x="242" y="98" on="0"/>
        <pt x="178" y="98" on="1"/>
        <pt x="106" y="98" on="0"/>
        <pt x="106" y="176" on="1"/>
        <pt x="106" y="198" on="0"/>
        <pt x="125" y="246" on="0"/>
        <pt x="137" y="246" on="1"/>
        <pt x="146" y="246" on="0"/>
        <pt x="146" y="237" on="1"/>
        <pt x="146" y="232" on="0"/>
        <pt x="128" y="192" on="0"/>
        <pt x="128" y="161" on="0"/>
        <pt x="161" y="134" on="0"/>
        <pt x="179" y="134" on="1"/>
        <pt x="238" y="134" on="0"/>
        <pt x="339" y="279" on="0"/>
        <pt x="339" y="348" on="1"/>
        <pt x="339" y="401" on="0"/>
        <pt x="301" y="418" on="1"/>
        <pt x="288" y="423" on="0"/>
        <pt x="274" y="423" on="1"/>
        <pt x="203" y="423" on="0"/>
        <pt x="132" y="325" on="1"/>
        <pt x="63" y="226" on="0"/>
        <pt x="63" y="108" on="1"/>
        <pt x="63" y="43" on="0"/>
        <pt x="91" y="2" on="1"/>
        <pt x="120" y="-40" on="0"/>
        <pt x="171" y="-40" on="1"/>
        <pt x="303" y="-40" on="0"/>
        <pt x="515" y="319" on="1"/>
        <pt x="405" y="352" on="0"/>
        <pt x="405" y="449" on="1"/>
        <pt x="405" y="578" on="0"/>
        <pt x="536" y="655" on="1"/>
        <pt x="619" y="703" on="0"/>
        <pt x="697" y="703" on="1"/>
        <pt x="758" y="703" on="0"/>
        <pt x="807" y="683" on="1"/>
        <pt x="876" y="656" on="0"/>
        <pt x="876" y="601" on="1"/>
        <pt x="876" y="589" on="0"/>
        <pt x="865" y="567" on="0"/>
        <pt x="859" y="567" on="1"/>
        <pt x="846" y="580" on="0"/>
        <pt x="828" y="580" on="1"/>
        <pt x="743" y="580" on="0"/>
        <pt x="595" y="327" on="1"/>
        <pt x="603" y="326" on="0"/>
        <pt x="612" y="326" on="1"/>
        <pt x="646" y="326" on="0"/>
        <pt x="714" y="366" on="0"/>
      </contour>
      <contour>
        <pt x="670" y="675" on="0"/>
        <pt x="537" y="616" on="0"/>
        <pt x="458" y="502" on="0"/>
        <pt x="458" y="358" on="0"/>
        <pt x="532" y="344" on="1"/>
        <pt x="587" y="434" on="0"/>
        <pt x="761" y="613" on="0"/>
        <pt x="819" y="613" on="1"/>
        <pt x="834" y="613" on="0"/>
        <pt x="845" y="606" on="1"/>
        <pt x="844" y="634" on="0"/>
        <pt x="806" y="655" on="1"/>
        <pt x="772" y="675" on="0"/>
      </contour>
      <contour>
        <pt x="777" y="722" on="0"/>
        <pt x="763" y="722" on="0"/>
        <pt x="763" y="732" on="0"/>
        <pt x="767" y="735" on="1"/>
        <pt x="872" y="816" on="1"/>
        <pt x="882" y="825" on="0"/>
        <pt x="898" y="825" on="0"/>
        <pt x="898" y="801" on="0"/>
        <pt x="890" y="793" on="1"/>
        <pt x="881" y="786" on="0"/>
      </contour>
    </TTGlyph>
    <TTGlyph name="Icircumflex" xMin="20" yMin="-69" xMax="905" yMax="825">
      <contour>
        <pt x="714" y="396" on="1"/>
        <pt x="707" y="423" on="1"/>
        <pt x="707" y="431" on="0"/>
        <pt x="715" y="431" on="1"/>
        <pt x="718" y="431" on="0"/>
        <pt x="723" y="428" on="1"/>
        <pt x="746" y="411" on="0"/>
        <pt x="746" y="355" on="0"/>
        <pt x="674" y="302" on="0"/>
        <pt x="619" y="302" on="1"/>
        <pt x="602" y="302" on="0"/>
        <pt x="585" y="305" on="1"/>
        <pt x="516" y="178" on="0"/>
        <pt x="417" y="71" on="1"/>
        <pt x="285" y="-69" on="0"/>
        <pt x="177" y="-69" on="1"/>
        <pt x="21" y="-69" on="0"/>
        <pt x="21" y="115" on="1"/>
        <pt x="21" y="267" on="0"/>
        <pt x="102" y="360" on="1"/>
        <pt x="170" y="440" on="0"/>
        <pt x="258" y="440" on="1"/>
        <pt x="281" y="440" on="0"/>
        <pt x="305" y="432" on="1"/>
        <pt x="364" y="409" on="0"/>
        <pt x="364" y="260" on="0"/>
        <pt x="242" y="98" on="0"/>
        <pt x="178" y="98" on="1"/>
        <pt x="106" y="98" on="0"/>
        <pt x="106" y="176" on="1"/>
        <pt x="106" y="198" on="0"/>
        <pt x="125" y="246" on="0"/>
        <pt x="137" y="246" on="1"/>
        <pt x="146" y="246" on="0"/>
        <pt x="146" y="237" on="1"/>
        <pt x="146" y="232" on="0"/>
        <pt x="128" y="192" on="0"/>
        <pt x="128" y="161" on="0"/>
        <pt x="161" y="134" on="0"/>
        <pt x="179" y="134" on="1"/>
        <pt x="238" y="134" on="0"/>
        <pt x="339" y="279" on="0"/>
        <pt x="339" y="348" on="1"/>
        <pt x="339" y="401" on="0"/>
        <pt x="301" y="418" on="1"/>
        <pt x="288" y="423" on="0"/>
        <pt x="274" y="423" on="1"/>
        <pt x="203" y="423" on="0"/>
        <pt x="132" y="325" on="1"/>
        <pt x="63" y="226" on="0"/>
        <pt x="63" y="108" on="1"/>
        <pt x="63" y="43" on="0"/>
        <pt x="91" y="2" on="1"/>
        <pt x="120" y="-40" on="0"/>
        <pt x="171" y="-40" on="1"/>
        <pt x="303" y="-40" on="0"/>
        <pt x="515" y="319" on="1"/>
        <pt x="405" y="352" on="0"/>
        <pt x="405" y="449" on="1"/>
        <pt x="405" y="578" on="0"/>
        <pt x="536" y="655" on="1"/>
        <pt x="619" y="703" on="0"/>
        <pt x="697" y="703" on="1"/>
        <pt x="758" y="703" on="0"/>
        <pt x="807" y="683" on="1"/>
        <pt x="876" y="656" on="0"/>
        <pt x="876" y="601" on="1"/>
        <pt x="876" y="589" on="0"/>
        <pt x="865" y="567" on="0"/>
        <pt x="859" y="567" on="1"/>
        <pt x="846" y="580" on="0"/>
        <pt x="828" y="580" on="1"/>
        <pt x="743" y="580" on="0"/>
        <pt x="595" y="327" on="1"/>
        <pt x="603" y="326" on="0"/>
        <pt x="612" y="326" on="1"/>
        <pt x="646" y="326" on="0"/>
        <pt x="714" y="366" on="0"/>
      </contour>
      <contour>
        <pt x="670" y="675" on="0"/>
        <pt x="537" y="616" on="0"/>
        <pt x="458" y="502" on="0"/>
        <pt x="458" y="358" on="0"/>
        <pt x="532" y="344" on="1"/>
        <pt x="587" y="434" on="0"/>
        <pt x="761" y="613" on="0"/>
        <pt x="819" y="613" on="1"/>
        <pt x="834" y="613" on="0"/>
        <pt x="845" y="606" on="1"/>
        <pt x="844" y="634" on="0"/>
        <pt x="806" y="655" on="1"/>
        <pt x="772" y="675" on="0"/>
      </contour>
      <contour>
        <pt x="680" y="715" on="1"/>
        <pt x="658" y="709" on="0"/>
        <pt x="658" y="722" on="1"/>
        <pt x="658" y="725" on="0"/>
        <pt x="668" y="734" on="1"/>
        <pt x="744" y="780" on="0"/>
        <pt x="767" y="800" on="1"/>
        <pt x="797" y="825" on="0"/>
        <pt x="803" y="825" on="1"/>
        <pt x="818" y="825" on="0"/>
        <pt x="902" y="732" on="0"/>
        <pt x="905" y="721" on="0"/>
        <pt x="905" y="719" on="1"/>
        <pt x="905" y="709" on="0"/>
        <pt x="889" y="709" on="0"/>
        <pt x="819" y="773" on="0"/>
        <pt x="797" y="786" on="1"/>
        <pt x="791" y="782" on="0"/>
        <pt x="736" y="748" on="0"/>
        <pt x="688" y="716" on="0"/>
      </contour>
    </TTGlyph>
    <TTGlyph name="Idieresis" xMin="20" yMin="-69" xMax="879" yMax="825">
      <contour>
        <pt x="714" y="396" on="1"/>
        <pt x="707" y="423" on="1"/>
        <pt x="707" y="431" on="0"/>
        <pt x="715" y="431" on="1"/>
        <pt x="718" y="431" on="0"/>
        <pt x="723" y="428" on="1"/>
        <pt x="746" y="411" on="0"/>
        <pt x="746" y="355" on="0"/>
        <pt x="674" y="302" on="0"/>
        <pt x="619" y="302" on="1"/>
        <pt x="602" y="302" on="0"/>
        <pt x="585" y="305" on="1"/>
        <pt x="516" y="178" on="0"/>
        <pt x="417" y="71" on="1"/>
        <pt x="285" y="-69" on="0"/>
        <pt x="177" y="-69" on="1"/>
        <pt x="21" y="-69" on="0"/>
        <pt x="21" y="115" on="1"/>
        <pt x="21" y="267" on="0"/>
        <pt x="102" y="360" on="1"/>
        <pt x="170" y="440" on="0"/>
        <pt x="258" y="440" on="1"/>
        <pt x="281" y="440" on="0"/>
        <pt x="305" y="432" on="1"/>
        <pt x="364" y="409" on="0"/>
        <pt x="364" y="260" on="0"/>
        <pt x="242" y="98" on="0"/>
        <pt x="178" y="98" on="1"/>
        <pt x="106" y="98" on="0"/>
        <pt x="106" y="176" on="1"/>
        <pt x="106" y="198" on="0"/>
        <pt x="125" y="246" on="0"/>
        <pt x="137" y="246" on="1"/>
        <pt x="146" y="246" on="0"/>
        <pt x="146" y="237" on="1"/>
        <pt x="146" y="232" on="0"/>
        <pt x="128" y="192" on="0"/>
        <pt x="128" y="161" on="0"/>
        <pt x="161" y="134" on="0"/>
        <pt x="179" y="134" on="1"/>
        <pt x="238" y="134" on="0"/>
        <pt x="339" y="279" on="0"/>
        <pt x="339" y="348" on="1"/>
        <pt x="339" y="401" on="0"/>
        <pt x="301" y="418" on="1"/>
        <pt x="288" y="423" on="0"/>
        <pt x="274" y="423" on="1"/>
        <pt x="203" y="423" on="0"/>
        <pt x="132" y="325" on="1"/>
        <pt x="63" y="226" on="0"/>
        <pt x="63" y="108" on="1"/>
        <pt x="63" y="43" on="0"/>
        <pt x="91" y="2" on="1"/>
        <pt x="120" y="-40" on="0"/>
        <pt x="171" y="-40" on="1"/>
        <pt x="303" y="-40" on="0"/>
        <pt x="515" y="319" on="1"/>
        <pt x="405" y="352" on="0"/>
        <pt x="405" y="449" on="1"/>
        <pt x="405" y="578" on="0"/>
        <pt x="536" y="655" on="1"/>
        <pt x="619" y="703" on="0"/>
        <pt x="697" y="703" on="1"/>
        <pt x="758" y="703" on="0"/>
        <pt x="807" y="683" on="1"/>
        <pt x="876" y="656" on="0"/>
        <pt x="876" y="601" on="1"/>
        <pt x="876" y="589" on="0"/>
        <pt x="865" y="567" on="0"/>
        <pt x="859" y="567" on="1"/>
        <pt x="846" y="580" on="0"/>
        <pt x="828" y="580" on="1"/>
        <pt x="743" y="580" on="0"/>
        <pt x="595" y="327" on="1"/>
        <pt x="603" y="326" on="0"/>
        <pt x="612" y="326" on="1"/>
        <pt x="646" y="326" on="0"/>
        <pt x="714" y="366" on="0"/>
      </contour>
      <contour>
        <pt x="670" y="675" on="0"/>
        <pt x="537" y="616" on="0"/>
        <pt x="458" y="502" on="0"/>
        <pt x="458" y="358" on="0"/>
        <pt x="532" y="344" on="1"/>
        <pt x="587" y="434" on="0"/>
        <pt x="761" y="613" on="0"/>
        <pt x="819" y="613" on="1"/>
        <pt x="834" y="613" on="0"/>
        <pt x="845" y="606" on="1"/>
        <pt x="844" y="634" on="0"/>
        <pt x="806" y="655" on="1"/>
        <pt x="772" y="675" on="0"/>
      </contour>
      <contour>
        <pt x="821" y="739" on="1"/>
        <pt x="814" y="739" on="0"/>
        <pt x="800" y="760" on="0"/>
        <pt x="800" y="783" on="0"/>
        <pt x="829" y="804" on="1"/>
        <pt x="859" y="825" on="0"/>
        <pt x="875" y="825" on="1"/>
        <pt x="876" y="825" on="0"/>
        <pt x="878" y="824" on="1"/>
        <pt x="877" y="824" on="0"/>
        <pt x="864" y="806" on="1"/>
        <pt x="848" y="766" on="1"/>
        <pt x="836" y="739" on="0"/>
      </contour>
      <contour>
        <pt x="757" y="824" on="1"/>
        <pt x="756" y="824" on="0"/>
        <pt x="743" y="806" on="1"/>
        <pt x="727" y="766" on="1"/>
        <pt x="715" y="739" on="0"/>
        <pt x="700" y="739" on="1"/>
        <pt x="693" y="739" on="0"/>
        <pt x="679" y="760" on="0"/>
        <pt x="679" y="783" on="0"/>
        <pt x="708" y="804" on="1"/>
        <pt x="738" y="825" on="0"/>
        <pt x="754" y="825" on="1"/>
      </contour>
      <contour>
        <pt x="879" y="824" on="1"/>
        <pt x="879" y="823" on="1"/>
        <pt x="878" y="824" on="1"/>
      </contour>
      <contour>
        <pt x="758" y="824" on="1"/>
        <pt x="758" y="823" on="1"/>
        <pt x="757" y="824" on="1"/>
      </contour>
    </TTGlyph>
    <TTGlyph name="Igrave" xMin="20" yMin="-69" xMax="876" yMax="825">
      <contour>
        <pt x="714" y="396" on="1"/>
        <pt x="707" y="423" on="1"/>
        <pt x="707" y="431" on="0"/>
        <pt x="715" y="431" on="1"/>
        <pt x="718" y="431" on="0"/>
        <pt x="723" y="428" on="1"/>
        <pt x="746" y="411" on="0"/>
        <pt x="746" y="355" on="0"/>
        <pt x="674" y="302" on="0"/>
        <pt x="619" y="302" on="1"/>
        <pt x="602" y="302" on="0"/>
        <pt x="585" y="305" on="1"/>
        <pt x="516" y="178" on="0"/>
        <pt x="417" y="71" on="1"/>
        <pt x="285" y="-69" on="0"/>
        <pt x="177" y="-69" on="1"/>
        <pt x="21" y="-69" on="0"/>
        <pt x="21" y="115" on="1"/>
        <pt x="21" y="267" on="0"/>
        <pt x="102" y="360" on="1"/>
        <pt x="170" y="440" on="0"/>
        <pt x="258" y="440" on="1"/>
        <pt x="281" y="440" on="0"/>
        <pt x="305" y="432" on="1"/>
        <pt x="364" y="409" on="0"/>
        <pt x="364" y="260" on="0"/>
        <pt x="242" y="98" on="0"/>
        <pt x="178" y="98" on="1"/>
        <pt x="106" y="98" on="0"/>
        <pt x="106" y="176" on="1"/>
        <pt x="106" y="198" on="0"/>
        <pt x="125" y="246" on="0"/>
        <pt x="137" y="246" on="1"/>
        <pt x="146" y="246" on="0"/>
        <pt x="146" y="237" on="1"/>
        <pt x="146" y="232" on="0"/>
        <pt x="128" y="192" on="0"/>
        <pt x="128" y="161" on="0"/>
        <pt x="161" y="134" on="0"/>
        <pt x="179" y="134" on="1"/>
        <pt x="238" y="134" on="0"/>
        <pt x="339" y="279" on="0"/>
        <pt x="339" y="348" on="1"/>
        <pt x="339" y="401" on="0"/>
        <pt x="301" y="418" on="1"/>
        <pt x="288" y="423" on="0"/>
        <pt x="274" y="423" on="1"/>
        <pt x="203" y="423" on="0"/>
        <pt x="132" y="325" on="1"/>
        <pt x="63" y="226" on="0"/>
        <pt x="63" y="108" on="1"/>
        <pt x="63" y="43" on="0"/>
        <pt x="91" y="2" on="1"/>
        <pt x="120" y="-40" on="0"/>
        <pt x="171" y="-40" on="1"/>
        <pt x="303" y="-40" on="0"/>
        <pt x="515" y="319" on="1"/>
        <pt x="405" y="352" on="0"/>
        <pt x="405" y="449" on="1"/>
        <pt x="405" y="578" on="0"/>
        <pt x="536" y="655" on="1"/>
        <pt x="619" y="703" on="0"/>
        <pt x="697" y="703" on="1"/>
        <pt x="758" y="703" on="0"/>
        <pt x="807" y="683" on="1"/>
        <pt x="876" y="656" on="0"/>
        <pt x="876" y="601" on="1"/>
        <pt x="876" y="589" on="0"/>
        <pt x="865" y="567" on="0"/>
        <pt x="859" y="567" on="1"/>
        <pt x="846" y="580" on="0"/>
        <pt x="828" y="580" on="1"/>
        <pt x="743" y="580" on="0"/>
        <pt x="595" y="327" on="1"/>
        <pt x="603" y="326" on="0"/>
        <pt x="612" y="326" on="1"/>
        <pt x="646" y="326" on="0"/>
        <pt x="714" y="366" on="0"/>
      </contour>
      <contour>
        <pt x="670" y="675" on="0"/>
        <pt x="537" y="616" on="0"/>
        <pt x="458" y="502" on="0"/>
        <pt x="458" y="358" on="0"/>
        <pt x="532" y="344" on="1"/>
        <pt x="587" y="434" on="0"/>
        <pt x="761" y="613" on="0"/>
        <pt x="819" y="613" on="1"/>
        <pt x="834" y="613" on="0"/>
        <pt x="845" y="606" on="1"/>
        <pt x="844" y="634" on="0"/>
        <pt x="806" y="655" on="1"/>
        <pt x="772" y="675" on="0"/>
      </contour>
      <contour>
        <pt x="865" y="735" on="1"/>
        <pt x="869" y="732" on="0"/>
        <pt x="869" y="723" on="0"/>
        <pt x="857" y="723" on="0"/>
        <pt x="751" y="787" on="0"/>
        <pt x="733" y="800" on="0"/>
        <pt x="733" y="825" on="0"/>
        <pt x="743" y="825" on="1"/>
        <pt x="755" y="825" on="0"/>
      </contour>
    </TTGlyph>
    <TTGlyph name="J" xMin="39" yMin="-130" xMax="1116" yMax="716">
      <contour>
        <pt x="684" y="477" on="1"/>
        <pt x="684" y="469" on="0"/>
        <pt x="643" y="469" on="0"/>
        <pt x="602" y="510" on="0"/>
        <pt x="602" y="569" on="0"/>
        <pt x="620" y="593" on="1"/>
        <pt x="658" y="645" on="0"/>
        <pt x="747" y="667" on="1"/>
        <pt x="811" y="683" on="0"/>
        <pt x="875" y="683" on="1"/>
        <pt x="883" y="683" on="1"/>
        <pt x="892" y="683" on="0"/>
        <pt x="932" y="680" on="1"/>
        <pt x="930" y="693" on="0"/>
        <pt x="955" y="716" on="0"/>
        <pt x="971" y="716" on="1"/>
        <pt x="1001" y="716" on="0"/>
        <pt x="1000" y="673" on="1"/>
        <pt x="1108" y="654" on="0"/>
        <pt x="1114" y="615" on="1"/>
        <pt x="1115" y="606" on="0"/>
        <pt x="1115" y="600" on="1"/>
        <pt x="1115" y="580" on="0"/>
        <pt x="1092" y="580" on="0"/>
        <pt x="1096" y="604" on="1"/>
        <pt x="1071" y="641" on="0"/>
        <pt x="997" y="656" on="1"/>
        <pt x="979" y="575" on="0"/>
        <pt x="809" y="304" on="1"/>
        <pt x="696" y="126" on="0"/>
        <pt x="546" y="6" on="1"/>
        <pt x="374" y="-130" on="0"/>
        <pt x="222" y="-130" on="1"/>
        <pt x="129" y="-130" on="0"/>
        <pt x="39" y="-36" on="0"/>
        <pt x="39" y="79" on="0"/>
        <pt x="61" y="120" on="1"/>
        <pt x="114" y="222" on="0"/>
        <pt x="214" y="279" on="1"/>
        <pt x="288" y="322" on="0"/>
        <pt x="351" y="322" on="1"/>
        <pt x="419" y="322" on="0"/>
        <pt x="496" y="256" on="0"/>
        <pt x="496" y="206" on="1"/>
        <pt x="496" y="152" on="0"/>
        <pt x="456" y="108" on="1"/>
        <pt x="431" y="80" on="0"/>
        <pt x="416" y="80" on="1"/>
        <pt x="412" y="80" on="0"/>
        <pt x="412" y="87" on="0"/>
        <pt x="415" y="93" on="1"/>
        <pt x="451" y="146" on="0"/>
        <pt x="451" y="237" on="0"/>
        <pt x="426" y="266" on="1"/>
        <pt x="397" y="297" on="0"/>
        <pt x="298" y="297" on="0"/>
        <pt x="237" y="257" on="1"/>
        <pt x="162" y="208" on="0"/>
        <pt x="114" y="110" on="1"/>
        <pt x="89" y="61" on="0"/>
        <pt x="89" y="-44" on="0"/>
        <pt x="167" y="-109" on="0"/>
        <pt x="233" y="-109" on="1"/>
        <pt x="487" y="-109" on="0"/>
        <pt x="764" y="337" on="1"/>
        <pt x="930" y="603" on="0"/>
        <pt x="934" y="663" on="1"/>
        <pt x="874" y="666" on="0"/>
        <pt x="871" y="666" on="1"/>
        <pt x="824" y="666" on="0"/>
        <pt x="677" y="614" on="0"/>
        <pt x="655" y="576" on="1"/>
        <pt x="646" y="561" on="0"/>
        <pt x="646" y="525" on="0"/>
        <pt x="684" y="481" on="0"/>
      </contour>
    </TTGlyph>
    <TTGlyph name="K" xMin="22" yMin="-129" xMax="1586" yMax="744">
      <contour>
        <pt x="832" y="697" on="1"/>
        <pt x="853" y="697" on="0"/>
        <pt x="853" y="682" on="1"/>
        <pt x="853" y="621" on="0"/>
        <pt x="685" y="333" on="1"/>
        <pt x="692" y="306" on="0"/>
        <pt x="707" y="270" on="1"/>
        <pt x="1005" y="497" on="1"/>
        <pt x="1176" y="627" on="0"/>
        <pt x="1236" y="664" on="1"/>
        <pt x="1370" y="744" on="0"/>
        <pt x="1499" y="744" on="1"/>
        <pt x="1536" y="744" on="0"/>
        <pt x="1567" y="732" on="1"/>
        <pt x="1586" y="725" on="0"/>
        <pt x="1586" y="687" on="0"/>
        <pt x="1576" y="687" on="1"/>
        <pt x="1570" y="687" on="0"/>
        <pt x="1557" y="703" on="0"/>
        <pt x="1494" y="703" on="0"/>
        <pt x="1423" y="687" on="1"/>
        <pt x="1311" y="662" on="0"/>
        <pt x="1169" y="575" on="1"/>
        <pt x="1080" y="520" on="0"/>
        <pt x="782" y="292" on="0"/>
        <pt x="716" y="249" on="1"/>
        <pt x="767" y="142" on="0"/>
        <pt x="847" y="50" on="1"/>
        <pt x="970" y="-93" on="0"/>
        <pt x="1068" y="-93" on="1"/>
        <pt x="1116" y="-93" on="0"/>
        <pt x="1116" y="-56" on="1"/>
        <pt x="1116" y="-49" on="0"/>
        <pt x="1113" y="-35" on="0"/>
        <pt x="1123" y="-15" on="0"/>
        <pt x="1130" y="-15" on="1"/>
        <pt x="1143" y="-15" on="0"/>
        <pt x="1147" y="-46" on="1"/>
        <pt x="1148" y="-51" on="0"/>
        <pt x="1148" y="-56" on="1"/>
        <pt x="1148" y="-88" on="0"/>
        <pt x="1083" y="-129" on="0"/>
        <pt x="994" y="-129" on="0"/>
        <pt x="964" y="-115" on="1"/>
        <pt x="885" y="-76" on="0"/>
        <pt x="724" y="120" on="0"/>
        <pt x="681" y="228" on="1"/>
        <pt x="626" y="196" on="0"/>
        <pt x="590" y="193" on="1"/>
        <pt x="523" y="106" on="0"/>
        <pt x="425" y="24" on="1"/>
        <pt x="372" y="-21" on="0"/>
        <pt x="248" y="-76" on="0"/>
        <pt x="191" y="-76" on="1"/>
        <pt x="110" y="-76" on="0"/>
        <pt x="22" y="5" on="0"/>
        <pt x="22" y="88" on="1"/>
        <pt x="22" y="129" on="0"/>
        <pt x="38" y="164" on="1"/>
        <pt x="89" y="277" on="0"/>
        <pt x="192" y="320" on="1"/>
        <pt x="249" y="345" on="0"/>
        <pt x="362" y="345" on="0"/>
        <pt x="381" y="308" on="1"/>
        <pt x="388" y="295" on="0"/>
        <pt x="388" y="266" on="0"/>
        <pt x="380" y="258" on="0"/>
        <pt x="373" y="269" on="1"/>
        <pt x="349" y="313" on="0"/>
        <pt x="322" y="318" on="1"/>
        <pt x="304" y="320" on="0"/>
        <pt x="296" y="320" on="1"/>
        <pt x="218" y="320" on="0"/>
        <pt x="150" y="255" on="1"/>
        <pt x="62" y="170" on="0"/>
        <pt x="62" y="71" on="1"/>
        <pt x="62" y="-37" on="0"/>
        <pt x="184" y="-51" on="1"/>
        <pt x="188" y="-51" on="0"/>
        <pt x="192" y="-51" on="1"/>
        <pt x="236" y="-51" on="0"/>
        <pt x="305" y="-12" on="1"/>
        <pt x="417" y="52" on="0"/>
        <pt x="544" y="208" on="1"/>
        <pt x="521" y="229" on="0"/>
        <pt x="521" y="311" on="0"/>
        <pt x="582" y="384" on="0"/>
        <pt x="635" y="384" on="1"/>
        <pt x="650" y="384" on="0"/>
        <pt x="663" y="381" on="1"/>
        <pt x="713" y="465" on="0"/>
        <pt x="807" y="660" on="0"/>
        <pt x="807" y="675" on="1"/>
        <pt x="807" y="677" on="0"/>
        <pt x="795" y="677" on="0"/>
        <pt x="668" y="614" on="0"/>
        <pt x="614" y="578" on="0"/>
        <pt x="536" y="501" on="0"/>
        <pt x="536" y="477" on="1"/>
        <pt x="536" y="466" on="0"/>
        <pt x="567" y="444" on="0"/>
        <pt x="608" y="444" on="1"/>
        <pt x="613" y="442" on="0"/>
        <pt x="613" y="435" on="0"/>
        <pt x="558" y="426" on="0"/>
        <pt x="542" y="426" on="1"/>
        <pt x="506" y="426" on="0"/>
        <pt x="506" y="456" on="1"/>
        <pt x="506" y="491" on="0"/>
        <pt x="592" y="589" on="0"/>
        <pt x="643" y="617" on="1"/>
        <pt x="792" y="697" on="0"/>
      </contour>
      <contour>
        <pt x="673" y="249" on="1"/>
        <pt x="665" y="269" on="0"/>
        <pt x="660" y="289" on="1"/>
        <pt x="640" y="260" on="0"/>
        <pt x="620" y="232" on="1"/>
        <pt x="630" y="232" on="0"/>
        <pt x="646" y="235" on="0"/>
      </contour>
      <contour>
        <pt x="635" y="335" on="1"/>
        <pt x="623" y="340" on="0"/>
        <pt x="594" y="340" on="0"/>
        <pt x="565" y="304" on="0"/>
        <pt x="565" y="263" on="0"/>
        <pt x="576" y="249" on="1"/>
        <pt x="625" y="319" on="0"/>
      </contour>
    </TTGlyph>
    <TTGlyph name="Kcommaaccent" xMin="22" yMin="-252" xMax="1586" yMax="744">
      <contour>
        <pt x="832" y="697" on="1"/>
        <pt x="853" y="697" on="0"/>
        <pt x="853" y="682" on="1"/>
        <pt x="853" y="621" on="0"/>
        <pt x="685" y="333" on="1"/>
        <pt x="692" y="306" on="0"/>
        <pt x="707" y="270" on="1"/>
        <pt x="1005" y="497" on="1"/>
        <pt x="1176" y="627" on="0"/>
        <pt x="1236" y="664" on="1"/>
        <pt x="1370" y="744" on="0"/>
        <pt x="1499" y="744" on="1"/>
        <pt x="1536" y="744" on="0"/>
        <pt x="1567" y="732" on="1"/>
        <pt x="1586" y="725" on="0"/>
        <pt x="1586" y="687" on="0"/>
        <pt x="1576" y="687" on="1"/>
        <pt x="1570" y="687" on="0"/>
        <pt x="1557" y="703" on="0"/>
        <pt x="1494" y="703" on="0"/>
        <pt x="1423" y="687" on="1"/>
        <pt x="1311" y="662" on="0"/>
        <pt x="1169" y="575" on="1"/>
        <pt x="1080" y="520" on="0"/>
        <pt x="782" y="292" on="0"/>
        <pt x="716" y="249" on="1"/>
        <pt x="767" y="142" on="0"/>
        <pt x="847" y="50" on="1"/>
        <pt x="970" y="-93" on="0"/>
        <pt x="1068" y="-93" on="1"/>
        <pt x="1116" y="-93" on="0"/>
        <pt x="1116" y="-56" on="1"/>
        <pt x="1116" y="-49" on="0"/>
        <pt x="1113" y="-35" on="0"/>
        <pt x="1123" y="-15" on="0"/>
        <pt x="1130" y="-15" on="1"/>
        <pt x="1143" y="-15" on="0"/>
        <pt x="1147" y="-46" on="1"/>
        <pt x="1148" y="-51" on="0"/>
        <pt x="1148" y="-56" on="1"/>
        <pt x="1148" y="-88" on="0"/>
        <pt x="1083" y="-129" on="0"/>
        <pt x="994" y="-129" on="0"/>
        <pt x="964" y="-115" on="1"/>
        <pt x="885" y="-76" on="0"/>
        <pt x="724" y="120" on="0"/>
        <pt x="681" y="228" on="1"/>
        <pt x="626" y="196" on="0"/>
        <pt x="590" y="193" on="1"/>
        <pt x="523" y="106" on="0"/>
        <pt x="425" y="24" on="1"/>
        <pt x="372" y="-21" on="0"/>
        <pt x="248" y="-76" on="0"/>
        <pt x="191" y="-76" on="1"/>
        <pt x="110" y="-76" on="0"/>
        <pt x="22" y="5" on="0"/>
        <pt x="22" y="88" on="1"/>
        <pt x="22" y="129" on="0"/>
        <pt x="38" y="164" on="1"/>
        <pt x="89" y="277" on="0"/>
        <pt x="192" y="320" on="1"/>
        <pt x="249" y="345" on="0"/>
        <pt x="362" y="345" on="0"/>
        <pt x="381" y="308" on="1"/>
        <pt x="388" y="295" on="0"/>
        <pt x="388" y="266" on="0"/>
        <pt x="380" y="258" on="0"/>
        <pt x="373" y="269" on="1"/>
        <pt x="349" y="313" on="0"/>
        <pt x="322" y="318" on="1"/>
        <pt x="304" y="320" on="0"/>
        <pt x="296" y="320" on="1"/>
        <pt x="218" y="320" on="0"/>
        <pt x="150" y="255" on="1"/>
        <pt x="62" y="170" on="0"/>
        <pt x="62" y="71" on="1"/>
        <pt x="62" y="-37" on="0"/>
        <pt x="184" y="-51" on="1"/>
        <pt x="188" y="-51" on="0"/>
        <pt x="192" y="-51" on="1"/>
        <pt x="236" y="-51" on="0"/>
        <pt x="305" y="-12" on="1"/>
        <pt x="417" y="52" on="0"/>
        <pt x="544" y="208" on="1"/>
        <pt x="521" y="229" on="0"/>
        <pt x="521" y="311" on="0"/>
        <pt x="582" y="384" on="0"/>
        <pt x="635" y="384" on="1"/>
        <pt x="650" y="384" on="0"/>
        <pt x="663" y="381" on="1"/>
        <pt x="713" y="465" on="0"/>
        <pt x="807" y="660" on="0"/>
        <pt x="807" y="675" on="1"/>
        <pt x="807" y="677" on="0"/>
        <pt x="795" y="677" on="0"/>
        <pt x="668" y="614" on="0"/>
        <pt x="614" y="578" on="0"/>
        <pt x="536" y="501" on="0"/>
        <pt x="536" y="477" on="1"/>
        <pt x="536" y="466" on="0"/>
        <pt x="567" y="444" on="0"/>
        <pt x="608" y="444" on="1"/>
        <pt x="613" y="442" on="0"/>
        <pt x="613" y="435" on="0"/>
        <pt x="558" y="426" on="0"/>
        <pt x="542" y="426" on="1"/>
        <pt x="506" y="426" on="0"/>
        <pt x="506" y="456" on="1"/>
        <pt x="506" y="491" on="0"/>
        <pt x="592" y="589" on="0"/>
        <pt x="643" y="617" on="1"/>
        <pt x="792" y="697" on="0"/>
      </contour>
      <contour>
        <pt x="673" y="249" on="1"/>
        <pt x="665" y="269" on="0"/>
        <pt x="660" y="289" on="1"/>
        <pt x="640" y="260" on="0"/>
        <pt x="620" y="232" on="1"/>
        <pt x="630" y="232" on="0"/>
        <pt x="646" y="235" on="0"/>
      </contour>
      <contour>
        <pt x="635" y="335" on="1"/>
        <pt x="623" y="340" on="0"/>
        <pt x="594" y="340" on="0"/>
        <pt x="565" y="304" on="0"/>
        <pt x="565" y="263" on="0"/>
        <pt x="576" y="249" on="1"/>
        <pt x="625" y="319" on="0"/>
      </contour>
      <contour>
        <pt x="572" y="-142" on="1"/>
        <pt x="572" y="-184" on="0"/>
        <pt x="508" y="-251" on="0"/>
        <pt x="485" y="-251" on="0"/>
        <pt x="485" y="-247" on="0"/>
        <pt x="528" y="-198" on="0"/>
        <pt x="528" y="-168" on="0"/>
        <pt x="501" y="-144" on="0"/>
        <pt x="501" y="-138" on="1"/>
        <pt x="501" y="-108" on="0"/>
        <pt x="530" y="-108" on="1"/>
        <pt x="545" y="-108" on="0"/>
        <pt x="572" y="-128" on="0"/>
      </contour>
    </TTGlyph>
    <TTGlyph name="L" xMin="3" yMin="-109" xMax="859" yMax="679">
      <contour>
        <pt x="859" y="592" on="1"/>
        <pt x="859" y="513" on="0"/>
        <pt x="782" y="406" on="1"/>
        <pt x="722" y="322" on="0"/>
        <pt x="523" y="220" on="0"/>
        <pt x="439" y="220" on="1"/>
        <pt x="408" y="220" on="0"/>
        <pt x="387" y="227" on="1"/>
        <pt x="345" y="173" on="0"/>
        <pt x="252" y="58" on="1"/>
        <pt x="287" y="8" on="0"/>
        <pt x="470" y="-80" on="0"/>
        <pt x="602" y="-80" on="0"/>
        <pt x="634" y="-62" on="1"/>
        <pt x="678" y="-39" on="0"/>
        <pt x="678" y="4" on="1"/>
        <pt x="678" y="15" on="0"/>
        <pt x="674" y="35" on="0"/>
        <pt x="691" y="35" on="0"/>
        <pt x="704" y="6" on="0"/>
        <pt x="704" y="-5" on="1"/>
        <pt x="704" y="-40" on="0"/>
        <pt x="667" y="-71" on="1"/>
        <pt x="620" y="-109" on="0"/>
        <pt x="458" y="-109" on="0"/>
        <pt x="284" y="-33" on="0"/>
        <pt x="228" y="32" on="1"/>
        <pt x="148" y="-48" on="0"/>
        <pt x="76" y="-48" on="1"/>
        <pt x="54" y="-48" on="0"/>
        <pt x="38" y="-40" on="1"/>
        <pt x="3" y="-20" on="0"/>
        <pt x="3" y="92" on="0"/>
        <pt x="96" y="256" on="0"/>
        <pt x="123" y="261" on="1"/>
        <pt x="141" y="261" on="0"/>
        <pt x="164" y="220" on="1"/>
        <pt x="227" y="98" on="1"/>
        <pt x="280" y="168" on="0"/>
        <pt x="338" y="251" on="1"/>
        <pt x="256" y="288" on="0"/>
        <pt x="256" y="358" on="1"/>
        <pt x="256" y="416" on="0"/>
        <pt x="303" y="452" on="1"/>
        <pt x="329" y="471" on="0"/>
        <pt x="388" y="471" on="0"/>
        <pt x="403" y="440" on="1"/>
        <pt x="406" y="434" on="0"/>
        <pt x="401" y="431" on="0"/>
        <pt x="400" y="432" on="1"/>
        <pt x="380" y="452" on="0"/>
        <pt x="357" y="452" on="1"/>
        <pt x="356" y="452" on="0"/>
        <pt x="355" y="452" on="1"/>
        <pt x="326" y="452" on="0"/>
        <pt x="283" y="390" on="0"/>
        <pt x="283" y="364" on="1"/>
        <pt x="283" y="361" on="0"/>
        <pt x="283" y="358" on="1"/>
        <pt x="283" y="306" on="0"/>
        <pt x="355" y="269" on="1"/>
        <pt x="367" y="286" on="0"/>
        <pt x="420" y="365" on="0"/>
        <pt x="435" y="387" on="1"/>
        <pt x="634" y="679" on="0"/>
        <pt x="766" y="679" on="1"/>
        <pt x="859" y="679" on="0"/>
      </contour>
      <contour>
        <pt x="770" y="662" on="1"/>
        <pt x="720" y="662" on="0"/>
        <pt x="646" y="578" on="1"/>
        <pt x="595" y="519" on="0"/>
        <pt x="458" y="320" on="0"/>
        <pt x="403" y="249" on="1"/>
        <pt x="416" y="246" on="0"/>
        <pt x="432" y="246" on="1"/>
        <pt x="502" y="246" on="0"/>
        <pt x="682" y="342" on="0"/>
        <pt x="734" y="415" on="1"/>
        <pt x="825" y="542" on="0"/>
        <pt x="825" y="608" on="1"/>
        <pt x="825" y="648" on="0"/>
        <pt x="790" y="659" on="1"/>
        <pt x="781" y="662" on="0"/>
      </contour>
      <contour>
        <pt x="202" y="65" on="1"/>
        <pt x="178" y="98" on="0"/>
        <pt x="126" y="201" on="0"/>
        <pt x="109" y="221" on="0"/>
        <pt x="103" y="221" on="0"/>
        <pt x="102" y="221" on="1"/>
        <pt x="84" y="218" on="0"/>
        <pt x="42" y="96" on="0"/>
        <pt x="42" y="-21" on="0"/>
        <pt x="78" y="-21" on="1"/>
        <pt x="104" y="-21" on="0"/>
        <pt x="177" y="33" on="0"/>
      </contour>
    </TTGlyph>
    <TTGlyph name="Lslash" xMin="3" yMin="-109" xMax="859" yMax="679">
      <contour>
        <pt x="224" y="191" on="1"/>
        <pt x="248" y="192" on="1"/>
        <pt x="296" y="192" on="1"/>
        <pt x="306" y="207" on="0"/>
        <pt x="338" y="251" on="1"/>
        <pt x="256" y="288" on="0"/>
        <pt x="256" y="358" on="1"/>
        <pt x="256" y="416" on="0"/>
        <pt x="303" y="452" on="1"/>
        <pt x="329" y="471" on="0"/>
        <pt x="388" y="471" on="0"/>
        <pt x="403" y="440" on="1"/>
        <pt x="406" y="434" on="0"/>
        <pt x="401" y="431" on="0"/>
        <pt x="400" y="432" on="1"/>
        <pt x="380" y="452" on="0"/>
        <pt x="357" y="452" on="1"/>
        <pt x="356" y="452" on="0"/>
        <pt x="355" y="452" on="1"/>
        <pt x="326" y="452" on="0"/>
        <pt x="283" y="390" on="0"/>
        <pt x="283" y="364" on="1"/>
        <pt x="283" y="361" on="0"/>
        <pt x="283" y="358" on="1"/>
        <pt x="283" y="306" on="0"/>
        <pt x="355" y="269" on="1"/>
        <pt x="367" y="286" on="0"/>
        <pt x="420" y="365" on="0"/>
        <pt x="435" y="387" on="1"/>
        <pt x="634" y="679" on="0"/>
        <pt x="766" y="679" on="1"/>
        <pt x="859" y="679" on="0"/>
        <pt x="859" y="592" on="1"/>
        <pt x="859" y="513" on="0"/>
        <pt x="782" y="406" on="1"/>
        <pt x="722" y="322" on="0"/>
        <pt x="523" y="220" on="0"/>
        <pt x="439" y="220" on="1"/>
        <pt x="408" y="220" on="0"/>
        <pt x="387" y="227" on="1"/>
        <pt x="360" y="192" on="1"/>
        <pt x="361" y="192" on="1"/>
        <pt x="390" y="191" on="0"/>
        <pt x="445" y="191" on="0"/>
        <pt x="462" y="193" on="1"/>
        <pt x="467" y="182" on="0"/>
        <pt x="409" y="172" on="1"/>
        <pt x="334" y="160" on="1"/>
        <pt x="252" y="58" on="1"/>
        <pt x="287" y="8" on="0"/>
        <pt x="470" y="-80" on="0"/>
        <pt x="602" y="-80" on="0"/>
        <pt x="634" y="-62" on="1"/>
        <pt x="678" y="-39" on="0"/>
        <pt x="678" y="4" on="1"/>
        <pt x="678" y="15" on="0"/>
        <pt x="674" y="35" on="0"/>
        <pt x="691" y="35" on="0"/>
        <pt x="704" y="6" on="0"/>
        <pt x="704" y="-5" on="1"/>
        <pt x="704" y="-40" on="0"/>
        <pt x="667" y="-71" on="1"/>
        <pt x="620" y="-109" on="0"/>
        <pt x="458" y="-109" on="0"/>
        <pt x="284" y="-33" on="0"/>
        <pt x="228" y="32" on="1"/>
        <pt x="148" y="-48" on="0"/>
        <pt x="76" y="-48" on="1"/>
        <pt x="54" y="-48" on="0"/>
        <pt x="38" y="-40" on="1"/>
        <pt x="3" y="-20" on="0"/>
        <pt x="3" y="92" on="0"/>
        <pt x="96" y="256" on="0"/>
        <pt x="123" y="261" on="1"/>
        <pt x="141" y="261" on="0"/>
        <pt x="164" y="220" on="1"/>
        <pt x="227" y="98" on="1"/>
        <pt x="273" y="160" on="1"/>
        <pt x="265" y="161" on="1"/>
        <pt x="205" y="166" on="0"/>
        <pt x="205" y="182" on="0"/>
        <pt x="217" y="191" on="0"/>
        <pt x="222" y="191" on="1"/>
      </contour>
      <contour>
        <pt x="770" y="662" on="1"/>
        <pt x="720" y="662" on="0"/>
        <pt x="646" y="578" on="1"/>
        <pt x="595" y="519" on="0"/>
        <pt x="458" y="320" on="0"/>
        <pt x="403" y="249" on="1"/>
        <pt x="416" y="246" on="0"/>
        <pt x="432" y="246" on="1"/>
        <pt x="502" y="246" on="0"/>
        <pt x="682" y="342" on="0"/>
        <pt x="734" y="415" on="1"/>
        <pt x="825" y="542" on="0"/>
        <pt x="825" y="608" on="1"/>
        <pt x="825" y="648" on="0"/>
        <pt x="790" y="659" on="1"/>
        <pt x="781" y="662" on="0"/>
      </contour>
      <contour>
        <pt x="202" y="65" on="1"/>
        <pt x="178" y="98" on="0"/>
        <pt x="126" y="201" on="0"/>
        <pt x="109" y="221" on="0"/>
        <pt x="103" y="221" on="0"/>
        <pt x="102" y="221" on="1"/>
        <pt x="84" y="218" on="0"/>
        <pt x="42" y="96" on="0"/>
        <pt x="42" y="-21" on="0"/>
        <pt x="78" y="-21" on="1"/>
        <pt x="104" y="-21" on="0"/>
        <pt x="177" y="33" on="0"/>
      </contour>
    </TTGlyph>
    <TTGlyph name="M" xMin="16" yMin="-67" xMax="1294" yMax="651">
      <contour>
        <pt x="423" y="41" on="1"/>
        <pt x="399" y="4" on="0"/>
        <pt x="399" y="-18" on="0"/>
        <pt x="408" y="-23" on="1"/>
        <pt x="408" y="-24" on="0"/>
        <pt x="390" y="-38" on="1"/>
        <pt x="374" y="-46" on="0"/>
        <pt x="334" y="-46" on="0"/>
        <pt x="316" y="-37" on="0"/>
        <pt x="319" y="-27" on="1"/>
        <pt x="333" y="18" on="0"/>
        <pt x="515" y="289" on="0"/>
        <pt x="546" y="345" on="1"/>
        <pt x="613" y="466" on="0"/>
        <pt x="613" y="538" on="1"/>
        <pt x="613" y="568" on="0"/>
        <pt x="603" y="589" on="1"/>
        <pt x="583" y="630" on="0"/>
        <pt x="508" y="630" on="1"/>
        <pt x="391" y="630" on="0"/>
        <pt x="266" y="529" on="1"/>
        <pt x="166" y="448" on="0"/>
        <pt x="60" y="267" on="0"/>
        <pt x="60" y="196" on="1"/>
        <pt x="60" y="94" on="0"/>
        <pt x="150" y="92" on="1"/>
        <pt x="154" y="92" on="0"/>
        <pt x="158" y="92" on="1"/>
        <pt x="273" y="92" on="0"/>
        <pt x="336" y="175" on="1"/>
        <pt x="360" y="208" on="0"/>
        <pt x="360" y="254" on="0"/>
        <pt x="350" y="260" on="1"/>
        <pt x="349" y="261" on="0"/>
        <pt x="349" y="267" on="0"/>
        <pt x="355" y="267" on="1"/>
        <pt x="381" y="267" on="0"/>
        <pt x="381" y="233" on="1"/>
        <pt x="381" y="212" on="0"/>
        <pt x="340" y="140" on="0"/>
        <pt x="236" y="76" on="0"/>
        <pt x="98" y="76" on="0"/>
        <pt x="16" y="162" on="0"/>
        <pt x="16" y="232" on="1"/>
        <pt x="16" y="390" on="0"/>
        <pt x="222" y="555" on="1"/>
        <pt x="275" y="597" on="0"/>
        <pt x="448" y="651" on="0"/>
        <pt x="606" y="651" on="0"/>
        <pt x="663" y="596" on="0"/>
        <pt x="663" y="550" on="1"/>
        <pt x="663" y="480" on="0"/>
        <pt x="606" y="361" on="1"/>
        <pt x="588" y="324" on="0"/>
        <pt x="525" y="226" on="1"/>
        <pt x="602" y="324" on="1"/>
        <pt x="658" y="397" on="0"/>
        <pt x="796" y="532" on="1"/>
        <pt x="826" y="561" on="0"/>
        <pt x="899" y="600" on="0"/>
        <pt x="925" y="600" on="1"/>
        <pt x="961" y="600" on="0"/>
        <pt x="961" y="562" on="1"/>
        <pt x="961" y="529" on="0"/>
        <pt x="898" y="396" on="0"/>
        <pt x="834" y="277" on="0"/>
        <pt x="820" y="240" on="0"/>
        <pt x="814" y="218" on="0"/>
        <pt x="813" y="217" on="1"/>
        <pt x="816" y="222" on="0"/>
        <pt x="942" y="365" on="0"/>
        <pt x="1065" y="472" on="1"/>
        <pt x="1225" y="604" on="1"/>
        <pt x="1244" y="620" on="0"/>
        <pt x="1274" y="620" on="0"/>
        <pt x="1293" y="570" on="0"/>
        <pt x="1293" y="539" on="0"/>
        <pt x="1245" y="490" on="1"/>
        <pt x="1120" y="362" on="0"/>
        <pt x="946" y="58" on="0"/>
        <pt x="946" y="-7" on="1"/>
        <pt x="946" y="-24" on="0"/>
        <pt x="958" y="-37" on="0"/>
        <pt x="984" y="-32" on="0"/>
        <pt x="1067" y="4" on="0"/>
        <pt x="1080" y="7" on="1"/>
        <pt x="1085" y="5" on="0"/>
        <pt x="1085" y="2" on="1"/>
        <pt x="1085" y="-13" on="0"/>
        <pt x="980" y="-67" on="0"/>
        <pt x="927" y="-67" on="0"/>
        <pt x="921" y="-58" on="1"/>
        <pt x="903" y="-32" on="0"/>
        <pt x="903" y="5" on="1"/>
        <pt x="903" y="91" on="0"/>
        <pt x="995" y="252" on="1"/>
        <pt x="1054" y="353" on="0"/>
        <pt x="1177" y="524" on="1"/>
        <pt x="1081" y="446" on="0"/>
        <pt x="753" y="124" on="0"/>
        <pt x="702" y="33" on="1"/>
        <pt x="676" y="-14" on="0"/>
        <pt x="639" y="-14" on="1"/>
        <pt x="622" y="-14" on="0"/>
        <pt x="622" y="-2" on="1"/>
        <pt x="622" y="2" on="0"/>
        <pt x="663" y="66" on="0"/>
        <pt x="733" y="184" on="1"/>
        <pt x="905" y="483" on="0"/>
        <pt x="905" y="544" on="1"/>
        <pt x="905" y="560" on="0"/>
        <pt x="894" y="560" on="1"/>
        <pt x="878" y="560" on="0"/>
        <pt x="847" y="533" on="1"/>
        <pt x="736" y="440" on="0"/>
        <pt x="486" y="140" on="0"/>
      </contour>
    </TTGlyph>
    <TTGlyph name="N" xMin="2" yMin="-96" xMax="1101" yMax="620">
      <contour>
        <pt x="402" y="12" on="1"/>
        <pt x="378" y="-25" on="0"/>
        <pt x="378" y="-48" on="0"/>
        <pt x="387" y="-52" on="1"/>
        <pt x="387" y="-54" on="0"/>
        <pt x="354" y="-75" on="0"/>
        <pt x="296" y="-75" on="0"/>
        <pt x="296" y="-60" on="1"/>
        <pt x="296" y="-34" on="0"/>
        <pt x="493" y="259" on="0"/>
        <pt x="524" y="315" on="1"/>
        <pt x="592" y="437" on="0"/>
        <pt x="592" y="508" on="1"/>
        <pt x="592" y="536" on="0"/>
        <pt x="581" y="560" on="1"/>
        <pt x="564" y="596" on="0"/>
        <pt x="499" y="596" on="1"/>
        <pt x="380" y="596" on="0"/>
        <pt x="246" y="487" on="1"/>
        <pt x="144" y="403" on="0"/>
        <pt x="89" y="313" on="1"/>
        <pt x="39" y="228" on="0"/>
        <pt x="39" y="161" on="1"/>
        <pt x="39" y="65" on="0"/>
        <pt x="128" y="63" on="1"/>
        <pt x="132" y="63" on="0"/>
        <pt x="136" y="63" on="1"/>
        <pt x="254" y="63" on="0"/>
        <pt x="315" y="146" on="1"/>
        <pt x="339" y="179" on="0"/>
        <pt x="339" y="225" on="0"/>
        <pt x="328" y="231" on="1"/>
        <pt x="327" y="232" on="0"/>
        <pt x="327" y="238" on="0"/>
        <pt x="333" y="238" on="1"/>
        <pt x="359" y="238" on="0"/>
        <pt x="359" y="204" on="1"/>
        <pt x="359" y="183" on="0"/>
        <pt x="319" y="111" on="0"/>
        <pt x="214" y="47" on="0"/>
        <pt x="80" y="47" on="0"/>
        <pt x="2" y="125" on="0"/>
        <pt x="2" y="191" on="1"/>
        <pt x="2" y="347" on="0"/>
        <pt x="216" y="519" on="1"/>
        <pt x="270" y="562" on="0"/>
        <pt x="443" y="620" on="0"/>
        <pt x="584" y="620" on="0"/>
        <pt x="642" y="567" on="0"/>
        <pt x="642" y="520" on="1"/>
        <pt x="642" y="406" on="0"/>
        <pt x="504" y="197" on="1"/>
        <pt x="535" y="236" on="0"/>
        <pt x="605" y="296" on="1"/>
        <pt x="854" y="505" on="0"/>
        <pt x="1033" y="571" on="1"/>
        <pt x="1042" y="575" on="0"/>
        <pt x="1053" y="575" on="1"/>
        <pt x="1091" y="575" on="0"/>
        <pt x="1101" y="532" on="1"/>
        <pt x="1106" y="515" on="0"/>
        <pt x="1053" y="461" on="1"/>
        <pt x="928" y="333" on="0"/>
        <pt x="754" y="29" on="0"/>
        <pt x="754" y="-37" on="1"/>
        <pt x="754" y="-53" on="0"/>
        <pt x="766" y="-66" on="0"/>
        <pt x="792" y="-61" on="0"/>
        <pt x="875" y="-25" on="0"/>
        <pt x="888" y="-22" on="1"/>
        <pt x="893" y="-24" on="0"/>
        <pt x="893" y="-27" on="1"/>
        <pt x="893" y="-42" on="0"/>
        <pt x="788" y="-96" on="0"/>
        <pt x="736" y="-96" on="0"/>
        <pt x="729" y="-87" on="1"/>
        <pt x="711" y="-62" on="0"/>
        <pt x="711" y="-24" on="1"/>
        <pt x="711" y="62" on="0"/>
        <pt x="803" y="223" on="1"/>
        <pt x="862" y="324" on="0"/>
        <pt x="985" y="495" on="1"/>
        <pt x="852" y="483" on="0"/>
        <pt x="641" y="285" on="1"/>
        <pt x="473" y="126" on="0"/>
      </contour>
    </TTGlyph>
    <TTGlyph name="Ntilde" xMin="2" yMin="-96" xMax="1101" yMax="736">
      <contour>
        <pt x="402" y="12" on="1"/>
        <pt x="378" y="-25" on="0"/>
        <pt x="378" y="-48" on="0"/>
        <pt x="387" y="-52" on="1"/>
        <pt x="387" y="-54" on="0"/>
        <pt x="354" y="-75" on="0"/>
        <pt x="296" y="-75" on="0"/>
        <pt x="296" y="-60" on="1"/>
        <pt x="296" y="-34" on="0"/>
        <pt x="493" y="259" on="0"/>
        <pt x="524" y="315" on="1"/>
        <pt x="592" y="437" on="0"/>
        <pt x="592" y="508" on="1"/>
        <pt x="592" y="536" on="0"/>
        <pt x="581" y="560" on="1"/>
        <pt x="564" y="596" on="0"/>
        <pt x="499" y="596" on="1"/>
        <pt x="380" y="596" on="0"/>
        <pt x="246" y="487" on="1"/>
        <pt x="144" y="403" on="0"/>
        <pt x="89" y="313" on="1"/>
        <pt x="39" y="228" on="0"/>
        <pt x="39" y="161" on="1"/>
        <pt x="39" y="65" on="0"/>
        <pt x="128" y="63" on="1"/>
        <pt x="132" y="63" on="0"/>
        <pt x="136" y="63" on="1"/>
        <pt x="254" y="63" on="0"/>
        <pt x="315" y="146" on="1"/>
        <pt x="339" y="179" on="0"/>
        <pt x="339" y="225" on="0"/>
        <pt x="328" y="231" on="1"/>
        <pt x="327" y="232" on="0"/>
        <pt x="327" y="238" on="0"/>
        <pt x="333" y="238" on="1"/>
        <pt x="359" y="238" on="0"/>
        <pt x="359" y="204" on="1"/>
        <pt x="359" y="183" on="0"/>
        <pt x="319" y="111" on="0"/>
        <pt x="214" y="47" on="0"/>
        <pt x="80" y="47" on="0"/>
        <pt x="2" y="125" on="0"/>
        <pt x="2" y="191" on="1"/>
        <pt x="2" y="347" on="0"/>
        <pt x="216" y="519" on="1"/>
        <pt x="270" y="562" on="0"/>
        <pt x="443" y="620" on="0"/>
        <pt x="584" y="620" on="0"/>
        <pt x="642" y="567" on="0"/>
        <pt x="642" y="520" on="1"/>
        <pt x="642" y="406" on="0"/>
        <pt x="504" y="197" on="1"/>
        <pt x="535" y="236" on="0"/>
        <pt x="605" y="296" on="1"/>
        <pt x="854" y="505" on="0"/>
        <pt x="1033" y="571" on="1"/>
        <pt x="1042" y="575" on="0"/>
        <pt x="1053" y="575" on="1"/>
        <pt x="1091" y="575" on="0"/>
        <pt x="1101" y="532" on="1"/>
        <pt x="1106" y="515" on="0"/>
        <pt x="1053" y="461" on="1"/>
        <pt x="928" y="333" on="0"/>
        <pt x="754" y="29" on="0"/>
        <pt x="754" y="-37" on="1"/>
        <pt x="754" y="-53" on="0"/>
        <pt x="766" y="-66" on="0"/>
        <pt x="792" y="-61" on="0"/>
        <pt x="875" y="-25" on="0"/>
        <pt x="888" y="-22" on="1"/>
        <pt x="893" y="-24" on="0"/>
        <pt x="893" y="-27" on="1"/>
        <pt x="893" y="-42" on="0"/>
        <pt x="788" y="-96" on="0"/>
        <pt x="736" y="-96" on="0"/>
        <pt x="729" y="-87" on="1"/>
        <pt x="711" y="-62" on="0"/>
        <pt x="711" y="-24" on="1"/>
        <pt x="711" y="62" on="0"/>
        <pt x="803" y="223" on="1"/>
        <pt x="862" y="324" on="0"/>
        <pt x="985" y="495" on="1"/>
        <pt x="852" y="483" on="0"/>
        <pt x="641" y="285" on="1"/>
        <pt x="473" y="126" on="0"/>
      </contour>
      <contour>
        <pt x="1021" y="732" on="1"/>
        <pt x="1021" y="717" on="0"/>
        <pt x="981" y="690" on="1"/>
        <pt x="968" y="682" on="0"/>
        <pt x="935" y="682" on="0"/>
        <pt x="870" y="709" on="0"/>
        <pt x="837" y="709" on="0"/>
        <pt x="805" y="683" on="0"/>
        <pt x="800" y="683" on="1"/>
        <pt x="799" y="684" on="0"/>
        <pt x="799" y="685" on="1"/>
        <pt x="799" y="701" on="0"/>
        <pt x="842" y="726" on="1"/>
        <pt x="858" y="736" on="0"/>
        <pt x="893" y="736" on="0"/>
        <pt x="956" y="715" on="0"/>
        <pt x="997" y="715" on="0"/>
        <pt x="1015" y="736" on="1"/>
        <pt x="1021" y="736" on="0"/>
      </contour>
    </TTGlyph>
    <TTGlyph name="O" xMin="24" yMin="-59" xMax="832" yMax="636">
      <contour>
        <pt x="812" y="356" on="1"/>
        <pt x="812" y="231" on="0"/>
        <pt x="684" y="117" on="1"/>
        <pt x="487" y="-59" on="0"/>
        <pt x="243" y="-59" on="1"/>
        <pt x="216" y="-59" on="0"/>
        <pt x="201" y="-58" on="1"/>
        <pt x="121" y="-54" on="0"/>
        <pt x="24" y="43" on="0"/>
        <pt x="24" y="197" on="0"/>
        <pt x="65" y="288" on="1"/>
        <pt x="117" y="403" on="0"/>
        <pt x="268" y="512" on="1"/>
        <pt x="442" y="636" on="0"/>
        <pt x="628" y="636" on="1"/>
        <pt x="728" y="636" on="0"/>
        <pt x="832" y="558" on="0"/>
        <pt x="832" y="500" on="1"/>
        <pt x="832" y="464" on="0"/>
        <pt x="804" y="411" on="1"/>
        <pt x="812" y="384" on="0"/>
      </contour>
      <contour>
        <pt x="791" y="441" on="1"/>
        <pt x="801" y="465" on="0"/>
        <pt x="801" y="524" on="0"/>
        <pt x="779" y="555" on="1"/>
        <pt x="736" y="615" on="0"/>
        <pt x="627" y="615" on="1"/>
        <pt x="476" y="615" on="0"/>
        <pt x="208" y="428" on="0"/>
        <pt x="133" y="286" on="1"/>
        <pt x="78" y="183" on="0"/>
        <pt x="78" y="101" on="1"/>
        <pt x="78" y="-31" on="0"/>
        <pt x="211" y="-38" on="1"/>
        <pt x="225" y="-39" on="0"/>
        <pt x="239" y="-39" on="1"/>
        <pt x="436" y="-39" on="0"/>
        <pt x="614" y="120" on="1"/>
        <pt x="742" y="234" on="0"/>
        <pt x="752" y="337" on="1"/>
        <pt x="700" y="280" on="0"/>
        <pt x="572" y="201" on="1"/>
        <pt x="564" y="199" on="1"/>
        <pt x="563" y="199" on="0"/>
        <pt x="563" y="200" on="1"/>
        <pt x="563" y="204" on="0"/>
        <pt x="590" y="227" on="1"/>
        <pt x="646" y="273" on="1"/>
        <pt x="718" y="336" on="0"/>
        <pt x="751" y="376" on="1"/>
        <pt x="744" y="432" on="0"/>
        <pt x="657" y="507" on="0"/>
        <pt x="601" y="524" on="1"/>
        <pt x="573" y="531" on="0"/>
        <pt x="456" y="535" on="0"/>
        <pt x="456" y="539" on="0"/>
        <pt x="458" y="541" on="1"/>
        <pt x="504" y="556" on="0"/>
        <pt x="589" y="556" on="0"/>
        <pt x="644" y="543" on="1"/>
        <pt x="749" y="518" on="0"/>
      </contour>
    </TTGlyph>
    <TTGlyph name="OE" xMin="24" yMin="-80" xMax="1410" yMax="664">
      <contour>
        <pt x="1137" y="407" on="1"/>
        <pt x="1235" y="407" on="0"/>
        <pt x="1235" y="370" on="1"/>
        <pt x="1235" y="362" on="0"/>
        <pt x="1229" y="352" on="1"/>
        <pt x="1205" y="315" on="0"/>
        <pt x="1142" y="315" on="1"/>
        <pt x="1101" y="315" on="0"/>
        <pt x="1016" y="344" on="0"/>
        <pt x="993" y="360" on="1"/>
        <pt x="864" y="322" on="0"/>
        <pt x="780" y="235" on="1"/>
        <pt x="757" y="192" on="0"/>
        <pt x="720" y="152" on="1"/>
        <pt x="700" y="112" on="0"/>
        <pt x="700" y="76" on="1"/>
        <pt x="700" y="20" on="0"/>
        <pt x="793" y="-50" on="0"/>
        <pt x="883" y="-50" on="1"/>
        <pt x="908" y="-50" on="0"/>
        <pt x="935" y="-47" on="1"/>
        <pt x="1094" y="-30" on="0"/>
        <pt x="1188" y="55" on="1"/>
        <pt x="1267" y="125" on="0"/>
        <pt x="1267" y="202" on="1"/>
        <pt x="1267" y="263" on="0"/>
        <pt x="1208" y="263" on="1"/>
        <pt x="1137" y="263" on="0"/>
        <pt x="1045" y="187" on="1"/>
        <pt x="1022" y="168" on="0"/>
        <pt x="990" y="110" on="0"/>
        <pt x="990" y="54" on="0"/>
        <pt x="1018" y="47" on="1"/>
        <pt x="1028" y="43" on="0"/>
        <pt x="1028" y="37" on="1"/>
        <pt x="1028" y="27" on="0"/>
        <pt x="1008" y="29" on="1"/>
        <pt x="960" y="30" on="0"/>
        <pt x="960" y="154" on="0"/>
        <pt x="1023" y="208" on="1"/>
        <pt x="1109" y="282" on="0"/>
        <pt x="1205" y="282" on="1"/>
        <pt x="1276" y="282" on="0"/>
        <pt x="1296" y="237" on="1"/>
        <pt x="1304" y="216" on="0"/>
        <pt x="1304" y="195" on="1"/>
        <pt x="1304" y="102" on="0"/>
        <pt x="1201" y="20" on="1"/>
        <pt x="1078" y="-80" on="0"/>
        <pt x="889" y="-80" on="1"/>
        <pt x="772" y="-80" on="0"/>
        <pt x="636" y="7" on="0"/>
        <pt x="636" y="77" on="1"/>
        <pt x="456" y="-59" on="0"/>
        <pt x="243" y="-59" on="1"/>
        <pt x="216" y="-59" on="0"/>
        <pt x="201" y="-58" on="1"/>
        <pt x="121" y="-54" on="0"/>
        <pt x="24" y="43" on="0"/>
        <pt x="24" y="197" on="0"/>
        <pt x="65" y="288" on="1"/>
        <pt x="117" y="403" on="0"/>
        <pt x="268" y="512" on="1"/>
        <pt x="442" y="636" on="0"/>
        <pt x="628" y="636" on="1"/>
        <pt x="728" y="636" on="0"/>
        <pt x="832" y="558" on="0"/>
        <pt x="832" y="500" on="1"/>
        <pt x="832" y="464" on="0"/>
        <pt x="804" y="411" on="1"/>
        <pt x="812" y="384" on="0"/>
        <pt x="812" y="331" on="0"/>
        <pt x="805" y="298" on="1"/>
        <pt x="877" y="344" on="0"/>
        <pt x="976" y="376" on="1"/>
        <pt x="943" y="414" on="0"/>
        <pt x="943" y="500" on="0"/>
        <pt x="964" y="529" on="1"/>
        <pt x="1005" y="585" on="0"/>
        <pt x="1087" y="621" on="1"/>
        <pt x="1185" y="664" on="0"/>
        <pt x="1283" y="664" on="1"/>
        <pt x="1340" y="664" on="0"/>
        <pt x="1409" y="627" on="0"/>
        <pt x="1409" y="550" on="0"/>
        <pt x="1352" y="497" on="0"/>
        <pt x="1290" y="497" on="0"/>
        <pt x="1290" y="512" on="1"/>
        <pt x="1290" y="521" on="0"/>
        <pt x="1303" y="521" on="1"/>
        <pt x="1323" y="518" on="1"/>
        <pt x="1343" y="518" on="0"/>
        <pt x="1376" y="561" on="0"/>
        <pt x="1376" y="584" on="1"/>
        <pt x="1376" y="618" on="0"/>
        <pt x="1337" y="634" on="1"/>
        <pt x="1312" y="644" on="0"/>
        <pt x="1268" y="644" on="0"/>
        <pt x="1259" y="643" on="1"/>
        <pt x="1174" y="638" on="0"/>
        <pt x="1091" y="583" on="1"/>
        <pt x="995" y="520" on="0"/>
        <pt x="995" y="441" on="1"/>
        <pt x="995" y="412" on="0"/>
        <pt x="1015" y="387" on="1"/>
        <pt x="1079" y="407" on="0"/>
      </contour>
      <contour>
        <pt x="791" y="441" on="1"/>
        <pt x="801" y="465" on="0"/>
        <pt x="801" y="524" on="0"/>
        <pt x="779" y="555" on="1"/>
        <pt x="736" y="615" on="0"/>
        <pt x="627" y="615" on="1"/>
        <pt x="476" y="615" on="0"/>
        <pt x="208" y="428" on="0"/>
        <pt x="133" y="286" on="1"/>
        <pt x="78" y="183" on="0"/>
        <pt x="78" y="101" on="1"/>
        <pt x="78" y="-31" on="0"/>
        <pt x="211" y="-38" on="1"/>
        <pt x="225" y="-39" on="0"/>
        <pt x="239" y="-39" on="1"/>
        <pt x="436" y="-39" on="0"/>
        <pt x="614" y="120" on="1"/>
        <pt x="742" y="234" on="0"/>
        <pt x="752" y="337" on="1"/>
        <pt x="700" y="280" on="0"/>
        <pt x="572" y="201" on="1"/>
        <pt x="564" y="199" on="1"/>
        <pt x="563" y="199" on="0"/>
        <pt x="563" y="200" on="1"/>
        <pt x="563" y="204" on="0"/>
        <pt x="590" y="227" on="1"/>
        <pt x="646" y="273" on="1"/>
        <pt x="718" y="336" on="0"/>
        <pt x="751" y="376" on="1"/>
        <pt x="744" y="432" on="0"/>
        <pt x="657" y="507" on="0"/>
        <pt x="601" y="524" on="1"/>
        <pt x="573" y="531" on="0"/>
        <pt x="456" y="535" on="0"/>
        <pt x="456" y="539" on="0"/>
        <pt x="458" y="541" on="1"/>
        <pt x="504" y="556" on="0"/>
        <pt x="589" y="556" on="0"/>
        <pt x="644" y="543" on="1"/>
        <pt x="749" y="518" on="0"/>
      </contour>
      <contour>
        <pt x="1032" y="371" on="1"/>
        <pt x="1074" y="337" on="0"/>
        <pt x="1187" y="337" on="0"/>
        <pt x="1187" y="368" on="1"/>
        <pt x="1187" y="382" on="0"/>
        <pt x="1087" y="382" on="0"/>
      </contour>
    </TTGlyph>
    <TTGlyph name="Oacute" xMin="24" yMin="-59" xMax="832" yMax="805">
      <contour>
        <pt x="812" y="356" on="1"/>
        <pt x="812" y="231" on="0"/>
        <pt x="684" y="117" on="1"/>
        <pt x="487" y="-59" on="0"/>
        <pt x="243" y="-59" on="1"/>
        <pt x="216" y="-59" on="0"/>
        <pt x="201" y="-58" on="1"/>
        <pt x="121" y="-54" on="0"/>
        <pt x="24" y="43" on="0"/>
        <pt x="24" y="197" on="0"/>
        <pt x="65" y="288" on="1"/>
        <pt x="117" y="403" on="0"/>
        <pt x="268" y="512" on="1"/>
        <pt x="442" y="636" on="0"/>
        <pt x="628" y="636" on="1"/>
        <pt x="728" y="636" on="0"/>
        <pt x="832" y="558" on="0"/>
        <pt x="832" y="500" on="1"/>
        <pt x="832" y="464" on="0"/>
        <pt x="804" y="411" on="1"/>
        <pt x="812" y="384" on="0"/>
      </contour>
      <contour>
        <pt x="791" y="441" on="1"/>
        <pt x="801" y="465" on="0"/>
        <pt x="801" y="524" on="0"/>
        <pt x="779" y="555" on="1"/>
        <pt x="736" y="615" on="0"/>
        <pt x="627" y="615" on="1"/>
        <pt x="476" y="615" on="0"/>
        <pt x="208" y="428" on="0"/>
        <pt x="133" y="286" on="1"/>
        <pt x="78" y="183" on="0"/>
        <pt x="78" y="101" on="1"/>
        <pt x="78" y="-31" on="0"/>
        <pt x="211" y="-38" on="1"/>
        <pt x="225" y="-39" on="0"/>
        <pt x="239" y="-39" on="1"/>
        <pt x="436" y="-39" on="0"/>
        <pt x="614" y="120" on="1"/>
        <pt x="742" y="234" on="0"/>
        <pt x="752" y="337" on="1"/>
        <pt x="700" y="280" on="0"/>
        <pt x="572" y="201" on="1"/>
        <pt x="564" y="199" on="1"/>
        <pt x="563" y="199" on="0"/>
        <pt x="563" y="200" on="1"/>
        <pt x="563" y="204" on="0"/>
        <pt x="590" y="227" on="1"/>
        <pt x="646" y="273" on="1"/>
        <pt x="718" y="336" on="0"/>
        <pt x="751" y="376" on="1"/>
        <pt x="744" y="432" on="0"/>
        <pt x="657" y="507" on="0"/>
        <pt x="601" y="524" on="1"/>
        <pt x="573" y="531" on="0"/>
        <pt x="456" y="535" on="0"/>
        <pt x="456" y="539" on="0"/>
        <pt x="458" y="541" on="1"/>
        <pt x="504" y="556" on="0"/>
        <pt x="589" y="556" on="0"/>
        <pt x="644" y="543" on="1"/>
        <pt x="749" y="518" on="0"/>
      </contour>
      <contour>
        <pt x="680" y="702" on="0"/>
        <pt x="666" y="702" on="0"/>
        <pt x="666" y="712" on="0"/>
        <pt x="670" y="715" on="1"/>
        <pt x="775" y="796" on="1"/>
        <pt x="786" y="805" on="0"/>
        <pt x="792" y="805" on="1"/>
        <pt x="801" y="805" on="0"/>
        <pt x="801" y="781" on="0"/>
        <pt x="793" y="773" on="1"/>
        <pt x="784" y="766" on="0"/>
      </contour>
    </TTGlyph>
    <TTGlyph name="Ocircumflex" xMin="24" yMin="-59" xMax="847" yMax="813">
      <contour>
        <pt x="812" y="356" on="1"/>
        <pt x="812" y="231" on="0"/>
        <pt x="684" y="117" on="1"/>
        <pt x="487" y="-59" on="0"/>
        <pt x="243" y="-59" on="1"/>
        <pt x="216" y="-59" on="0"/>
        <pt x="201" y="-58" on="1"/>
        <pt x="121" y="-54" on="0"/>
        <pt x="24" y="43" on="0"/>
        <pt x="24" y="197" on="0"/>
        <pt x="65" y="288" on="1"/>
        <pt x="117" y="403" on="0"/>
        <pt x="268" y="512" on="1"/>
        <pt x="442" y="636" on="0"/>
        <pt x="628" y="636" on="1"/>
        <pt x="728" y="636" on="0"/>
        <pt x="832" y="558" on="0"/>
        <pt x="832" y="500" on="1"/>
        <pt x="832" y="464" on="0"/>
        <pt x="804" y="411" on="1"/>
        <pt x="812" y="384" on="0"/>
      </contour>
      <contour>
        <pt x="791" y="441" on="1"/>
        <pt x="801" y="465" on="0"/>
        <pt x="801" y="524" on="0"/>
        <pt x="779" y="555" on="1"/>
        <pt x="736" y="615" on="0"/>
        <pt x="627" y="615" on="1"/>
        <pt x="476" y="615" on="0"/>
        <pt x="208" y="428" on="0"/>
        <pt x="133" y="286" on="1"/>
        <pt x="78" y="183" on="0"/>
        <pt x="78" y="101" on="1"/>
        <pt x="78" y="-31" on="0"/>
        <pt x="211" y="-38" on="1"/>
        <pt x="225" y="-39" on="0"/>
        <pt x="239" y="-39" on="1"/>
        <pt x="436" y="-39" on="0"/>
        <pt x="614" y="120" on="1"/>
        <pt x="742" y="234" on="0"/>
        <pt x="752" y="337" on="1"/>
        <pt x="700" y="280" on="0"/>
        <pt x="572" y="201" on="1"/>
        <pt x="564" y="199" on="1"/>
        <pt x="563" y="199" on="0"/>
        <pt x="563" y="200" on="1"/>
        <pt x="563" y="204" on="0"/>
        <pt x="590" y="227" on="1"/>
        <pt x="646" y="273" on="1"/>
        <pt x="718" y="336" on="0"/>
        <pt x="751" y="376" on="1"/>
        <pt x="744" y="432" on="0"/>
        <pt x="657" y="507" on="0"/>
        <pt x="601" y="524" on="1"/>
        <pt x="573" y="531" on="0"/>
        <pt x="456" y="535" on="0"/>
        <pt x="456" y="539" on="0"/>
        <pt x="458" y="541" on="1"/>
        <pt x="504" y="556" on="0"/>
        <pt x="589" y="556" on="0"/>
        <pt x="644" y="543" on="1"/>
        <pt x="749" y="518" on="0"/>
      </contour>
      <contour>
        <pt x="575" y="686" on="1"/>
        <pt x="570" y="687" on="0"/>
        <pt x="570" y="690" on="1"/>
        <pt x="570" y="694" on="0"/>
        <pt x="581" y="703" on="1"/>
        <pt x="690" y="770" on="0"/>
        <pt x="737" y="810" on="1"/>
        <pt x="744" y="813" on="1"/>
        <pt x="756" y="812" on="0"/>
        <pt x="804" y="761" on="1"/>
        <pt x="846" y="713" on="0"/>
        <pt x="846" y="690" on="0"/>
        <pt x="837" y="690" on="1"/>
        <pt x="826" y="690" on="0"/>
        <pt x="761" y="746" on="0"/>
        <pt x="737" y="772" on="1"/>
        <pt x="731" y="768" on="0"/>
        <pt x="676" y="734" on="0"/>
        <pt x="606" y="688" on="0"/>
      </contour>
    </TTGlyph>
    <TTGlyph name="Odieresis" xMin="24" yMin="-59" xMax="832" yMax="789">
      <contour>
        <pt x="812" y="356" on="1"/>
        <pt x="812" y="231" on="0"/>
        <pt x="684" y="117" on="1"/>
        <pt x="487" y="-59" on="0"/>
        <pt x="243" y="-59" on="1"/>
        <pt x="216" y="-59" on="0"/>
        <pt x="201" y="-58" on="1"/>
        <pt x="121" y="-54" on="0"/>
        <pt x="24" y="43" on="0"/>
        <pt x="24" y="197" on="0"/>
        <pt x="65" y="288" on="1"/>
        <pt x="117" y="403" on="0"/>
        <pt x="268" y="512" on="1"/>
        <pt x="442" y="636" on="0"/>
        <pt x="628" y="636" on="1"/>
        <pt x="728" y="636" on="0"/>
        <pt x="832" y="558" on="0"/>
        <pt x="832" y="500" on="1"/>
        <pt x="832" y="464" on="0"/>
        <pt x="804" y="411" on="1"/>
        <pt x="812" y="384" on="0"/>
      </contour>
      <contour>
        <pt x="791" y="441" on="1"/>
        <pt x="801" y="465" on="0"/>
        <pt x="801" y="524" on="0"/>
        <pt x="779" y="555" on="1"/>
        <pt x="736" y="615" on="0"/>
        <pt x="627" y="615" on="1"/>
        <pt x="476" y="615" on="0"/>
        <pt x="208" y="428" on="0"/>
        <pt x="133" y="286" on="1"/>
        <pt x="78" y="183" on="0"/>
        <pt x="78" y="101" on="1"/>
        <pt x="78" y="-31" on="0"/>
        <pt x="211" y="-38" on="1"/>
        <pt x="225" y="-39" on="0"/>
        <pt x="239" y="-39" on="1"/>
        <pt x="436" y="-39" on="0"/>
        <pt x="614" y="120" on="1"/>
        <pt x="742" y="234" on="0"/>
        <pt x="752" y="337" on="1"/>
        <pt x="700" y="280" on="0"/>
        <pt x="572" y="201" on="1"/>
        <pt x="564" y="199" on="1"/>
        <pt x="563" y="199" on="0"/>
        <pt x="563" y="200" on="1"/>
        <pt x="563" y="204" on="0"/>
        <pt x="590" y="227" on="1"/>
        <pt x="646" y="273" on="1"/>
        <pt x="718" y="336" on="0"/>
        <pt x="751" y="376" on="1"/>
        <pt x="744" y="432" on="0"/>
        <pt x="657" y="507" on="0"/>
        <pt x="601" y="524" on="1"/>
        <pt x="573" y="531" on="0"/>
        <pt x="456" y="535" on="0"/>
        <pt x="456" y="539" on="0"/>
        <pt x="458" y="541" on="1"/>
        <pt x="504" y="556" on="0"/>
        <pt x="589" y="556" on="0"/>
        <pt x="644" y="543" on="1"/>
        <pt x="749" y="518" on="0"/>
      </contour>
      <contour>
        <pt x="815" y="788" on="1"/>
        <pt x="814" y="788" on="0"/>
        <pt x="801" y="770" on="1"/>
        <pt x="785" y="730" on="1"/>
        <pt x="773" y="703" on="0"/>
        <pt x="758" y="703" on="1"/>
        <pt x="751" y="703" on="0"/>
        <pt x="737" y="724" on="0"/>
        <pt x="737" y="747" on="0"/>
        <pt x="766" y="768" on="1"/>
        <pt x="796" y="789" on="0"/>
        <pt x="812" y="789" on="1"/>
      </contour>
      <contour>
        <pt x="637" y="703" on="1"/>
        <pt x="630" y="703" on="0"/>
        <pt x="616" y="724" on="0"/>
        <pt x="616" y="747" on="0"/>
        <pt x="645" y="768" on="1"/>
        <pt x="675" y="789" on="0"/>
        <pt x="691" y="789" on="1"/>
        <pt x="692" y="789" on="0"/>
        <pt x="694" y="788" on="1"/>
        <pt x="693" y="788" on="0"/>
        <pt x="680" y="770" on="1"/>
        <pt x="664" y="730" on="1"/>
        <pt x="652" y="703" on="0"/>
      </contour>
      <contour>
        <pt x="816" y="788" on="1"/>
        <pt x="816" y="787" on="1"/>
        <pt x="815" y="788" on="1"/>
      </contour>
      <contour>
        <pt x="695" y="788" on="1"/>
        <pt x="695" y="787" on="1"/>
        <pt x="694" y="788" on="1"/>
      </contour>
    </TTGlyph>
    <TTGlyph name="Ograve" xMin="24" yMin="-59" xMax="832" yMax="805">
      <contour>
        <pt x="812" y="356" on="1"/>
        <pt x="812" y="231" on="0"/>
        <pt x="684" y="117" on="1"/>
        <pt x="487" y="-59" on="0"/>
        <pt x="243" y="-59" on="1"/>
        <pt x="216" y="-59" on="0"/>
        <pt x="201" y="-58" on="1"/>
        <pt x="121" y="-54" on="0"/>
        <pt x="24" y="43" on="0"/>
        <pt x="24" y="197" on="0"/>
        <pt x="65" y="288" on="1"/>
        <pt x="117" y="403" on="0"/>
        <pt x="268" y="512" on="1"/>
        <pt x="442" y="636" on="0"/>
        <pt x="628" y="636" on="1"/>
        <pt x="728" y="636" on="0"/>
        <pt x="832" y="558" on="0"/>
        <pt x="832" y="500" on="1"/>
        <pt x="832" y="464" on="0"/>
        <pt x="804" y="411" on="1"/>
        <pt x="812" y="384" on="0"/>
      </contour>
      <contour>
        <pt x="791" y="441" on="1"/>
        <pt x="801" y="465" on="0"/>
        <pt x="801" y="524" on="0"/>
        <pt x="779" y="555" on="1"/>
        <pt x="736" y="615" on="0"/>
        <pt x="627" y="615" on="1"/>
        <pt x="476" y="615" on="0"/>
        <pt x="208" y="428" on="0"/>
        <pt x="133" y="286" on="1"/>
        <pt x="78" y="183" on="0"/>
        <pt x="78" y="101" on="1"/>
        <pt x="78" y="-31" on="0"/>
        <pt x="211" y="-38" on="1"/>
        <pt x="225" y="-39" on="0"/>
        <pt x="239" y="-39" on="1"/>
        <pt x="436" y="-39" on="0"/>
        <pt x="614" y="120" on="1"/>
        <pt x="742" y="234" on="0"/>
        <pt x="752" y="337" on="1"/>
        <pt x="700" y="280" on="0"/>
        <pt x="572" y="201" on="1"/>
        <pt x="564" y="199" on="1"/>
        <pt x="563" y="199" on="0"/>
        <pt x="563" y="200" on="1"/>
        <pt x="563" y="204" on="0"/>
        <pt x="590" y="227" on="1"/>
        <pt x="646" y="273" on="1"/>
        <pt x="718" y="336" on="0"/>
        <pt x="751" y="376" on="1"/>
        <pt x="744" y="432" on="0"/>
        <pt x="657" y="507" on="0"/>
        <pt x="601" y="524" on="1"/>
        <pt x="573" y="531" on="0"/>
        <pt x="456" y="535" on="0"/>
        <pt x="456" y="539" on="0"/>
        <pt x="458" y="541" on="1"/>
        <pt x="504" y="556" on="0"/>
        <pt x="589" y="556" on="0"/>
        <pt x="644" y="543" on="1"/>
        <pt x="749" y="518" on="0"/>
      </contour>
      <contour>
        <pt x="790" y="715" on="1"/>
        <pt x="794" y="712" on="0"/>
        <pt x="794" y="703" on="0"/>
        <pt x="782" y="703" on="0"/>
        <pt x="676" y="767" on="0"/>
        <pt x="658" y="780" on="0"/>
        <pt x="658" y="805" on="0"/>
        <pt x="668" y="805" on="1"/>
        <pt x="680" y="805" on="0"/>
      </contour>
    </TTGlyph>
    <TTGlyph name="Omega" xMin="23" yMin="-1" xMax="637" yMax="605">
      <contour>
        <pt x="216" y="-1" on="1"/>
        <pt x="57" y="0" on="1"/>
        <pt x="23" y="0" on="0"/>
        <pt x="23" y="18" on="0"/>
        <pt x="34" y="34" on="0"/>
        <pt x="68" y="37" on="0"/>
        <pt x="189" y="37" on="0"/>
        <pt x="204" y="38" on="1"/>
        <pt x="140" y="105" on="0"/>
        <pt x="140" y="225" on="1"/>
        <pt x="140" y="320" on="0"/>
        <pt x="228" y="495" on="0"/>
        <pt x="382" y="605" on="0"/>
        <pt x="550" y="605" on="0"/>
        <pt x="626" y="509" on="0"/>
        <pt x="626" y="429" on="1"/>
        <pt x="626" y="312" on="0"/>
        <pt x="508" y="95" on="0"/>
        <pt x="421" y="36" on="1"/>
        <pt x="619" y="38" on="1"/>
        <pt x="636" y="38" on="0"/>
        <pt x="636" y="29" on="1"/>
        <pt x="636" y="23" on="0"/>
        <pt x="621" y="1" on="0"/>
        <pt x="596" y="0" on="0"/>
        <pt x="406" y="0" on="1"/>
        <pt x="367" y="0" on="0"/>
        <pt x="367" y="8" on="1"/>
        <pt x="370" y="31" on="0"/>
        <pt x="386" y="39" on="1"/>
        <pt x="464" y="76" on="0"/>
        <pt x="581" y="324" on="0"/>
        <pt x="581" y="431" on="1"/>
        <pt x="581" y="581" on="0"/>
        <pt x="470" y="581" on="1"/>
        <pt x="423" y="581" on="0"/>
        <pt x="329" y="527" on="0"/>
        <pt x="255" y="439" on="0"/>
        <pt x="228" y="382" on="1"/>
        <pt x="183" y="289" on="0"/>
        <pt x="183" y="203" on="1"/>
        <pt x="183" y="109" on="0"/>
        <pt x="229" y="46" on="1"/>
        <pt x="244" y="33" on="0"/>
        <pt x="244" y="28" on="1"/>
        <pt x="244" y="12" on="0"/>
        <pt x="232" y="-1" on="0"/>
      </contour>
    </TTGlyph>
    <TTGlyph name="Oslash" xMin="24" yMin="-124" xMax="832" yMax="698">
      <contour>
        <pt x="715" y="698" on="0"/>
        <pt x="737" y="698" on="0"/>
        <pt x="750" y="685" on="0"/>
        <pt x="750" y="671" on="0"/>
        <pt x="741" y="660" on="1"/>
        <pt x="712" y="627" on="1"/>
        <pt x="754" y="616" on="0"/>
        <pt x="781" y="596" on="1"/>
        <pt x="832" y="558" on="0"/>
        <pt x="832" y="500" on="1"/>
        <pt x="832" y="464" on="0"/>
        <pt x="804" y="411" on="1"/>
        <pt x="812" y="384" on="0"/>
        <pt x="812" y="356" on="1"/>
        <pt x="812" y="231" on="0"/>
        <pt x="684" y="117" on="1"/>
        <pt x="487" y="-59" on="0"/>
        <pt x="243" y="-59" on="1"/>
        <pt x="221" y="-59" on="1"/>
        <pt x="219" y="-66" on="0"/>
        <pt x="219" y="-99" on="0"/>
        <pt x="234" y="-106" on="0"/>
        <pt x="230" y="-114" on="1"/>
        <pt x="223" y="-124" on="0"/>
        <pt x="209" y="-124" on="1"/>
        <pt x="192" y="-124" on="0"/>
        <pt x="192" y="-76" on="0"/>
        <pt x="196" y="-57" on="1"/>
        <pt x="118" y="-52" on="0"/>
        <pt x="24" y="44" on="0"/>
        <pt x="24" y="197" on="0"/>
        <pt x="65" y="288" on="1"/>
        <pt x="117" y="403" on="0"/>
        <pt x="268" y="512" on="1"/>
        <pt x="442" y="636" on="0"/>
        <pt x="628" y="636" on="1"/>
        <pt x="651" y="636" on="0"/>
        <pt x="661" y="635" on="1"/>
      </contour>
      <contour>
        <pt x="458" y="541" on="1"/>
        <pt x="504" y="556" on="0"/>
        <pt x="571" y="556" on="0"/>
        <pt x="595" y="552" on="1"/>
        <pt x="605" y="566" on="0"/>
        <pt x="640" y="609" on="0"/>
        <pt x="644" y="614" on="1"/>
        <pt x="639" y="615" on="0"/>
        <pt x="627" y="615" on="1"/>
        <pt x="476" y="615" on="0"/>
        <pt x="208" y="428" on="0"/>
        <pt x="133" y="286" on="1"/>
        <pt x="78" y="183" on="0"/>
        <pt x="78" y="101" on="1"/>
        <pt x="78" y="-25" on="0"/>
        <pt x="201" y="-37" on="1"/>
        <pt x="203" y="-28" on="0"/>
        <pt x="214" y="2" on="1"/>
        <pt x="245" y="87" on="0"/>
        <pt x="475" y="396" on="1"/>
        <pt x="558" y="505" on="0"/>
        <pt x="576" y="528" on="1"/>
        <pt x="557" y="531" on="0"/>
        <pt x="456" y="535" on="0"/>
        <pt x="456" y="539" on="0"/>
      </contour>
      <contour>
        <pt x="240" y="-38" on="1"/>
        <pt x="437" y="-38" on="0"/>
        <pt x="614" y="120" on="1"/>
        <pt x="742" y="234" on="0"/>
        <pt x="752" y="337" on="1"/>
        <pt x="700" y="280" on="0"/>
        <pt x="572" y="201" on="1"/>
        <pt x="564" y="199" on="1"/>
        <pt x="563" y="199" on="0"/>
        <pt x="563" y="200" on="1"/>
        <pt x="563" y="204" on="0"/>
        <pt x="590" y="227" on="1"/>
        <pt x="646" y="273" on="1"/>
        <pt x="718" y="336" on="0"/>
        <pt x="751" y="376" on="1"/>
        <pt x="744" y="432" on="0"/>
        <pt x="697" y="472" on="1"/>
        <pt x="664" y="501" on="0"/>
        <pt x="621" y="517" on="1"/>
        <pt x="555" y="435" on="0"/>
        <pt x="445" y="289" on="1"/>
        <pt x="266" y="51" on="0"/>
        <pt x="228" y="-38" on="1"/>
        <pt x="234" y="-38" on="0"/>
      </contour>
      <contour>
        <pt x="791" y="441" on="1"/>
        <pt x="801" y="465" on="0"/>
        <pt x="801" y="524" on="0"/>
        <pt x="751" y="594" on="0"/>
        <pt x="696" y="607" on="1"/>
        <pt x="689" y="599" on="0"/>
        <pt x="643" y="543" on="1"/>
        <pt x="644" y="543" on="1"/>
        <pt x="749" y="518" on="0"/>
      </contour>
    </TTGlyph>
    <TTGlyph name="Otilde" xMin="24" yMin="-59" xMax="842" yMax="736">
      <contour>
        <pt x="812" y="356" on="1"/>
        <pt x="812" y="231" on="0"/>
        <pt x="684" y="117" on="1"/>
        <pt x="487" y="-59" on="0"/>
        <pt x="243" y="-59" on="1"/>
        <pt x="216" y="-59" on="0"/>
        <pt x="201" y="-58" on="1"/>
        <pt x="121" y="-54" on="0"/>
        <pt x="24" y="43" on="0"/>
        <pt x="24" y="197" on="0"/>
        <pt x="65" y="288" on="1"/>
        <pt x="117" y="403" on="0"/>
        <pt x="268" y="512" on="1"/>
        <pt x="442" y="636" on="0"/>
        <pt x="628" y="636" on="1"/>
        <pt x="728" y="636" on="0"/>
        <pt x="832" y="558" on="0"/>
        <pt x="832" y="500" on="1"/>
        <pt x="832" y="464" on="0"/>
        <pt x="804" y="411" on="1"/>
        <pt x="812" y="384" on="0"/>
      </contour>
      <contour>
        <pt x="791" y="441" on="1"/>
        <pt x="801" y="465" on="0"/>
        <pt x="801" y="524" on="0"/>
        <pt x="779" y="555" on="1"/>
        <pt x="736" y="615" on="0"/>
        <pt x="627" y="615" on="1"/>
        <pt x="476" y="615" on="0"/>
        <pt x="208" y="428" on="0"/>
        <pt x="133" y="286" on="1"/>
        <pt x="78" y="183" on="0"/>
        <pt x="78" y="101" on="1"/>
        <pt x="78" y="-31" on="0"/>
        <pt x="211" y="-38" on="1"/>
        <pt x="225" y="-39" on="0"/>
        <pt x="239" y="-39" on="1"/>
        <pt x="436" y="-39" on="0"/>
        <pt x="614" y="120" on="1"/>
        <pt x="742" y="234" on="0"/>
        <pt x="752" y="337" on="1"/>
        <pt x="700" y="280" on="0"/>
        <pt x="572" y="201" on="1"/>
        <pt x="564" y="199" on="1"/>
        <pt x="563" y="199" on="0"/>
        <pt x="563" y="200" on="1"/>
        <pt x="563" y="204" on="0"/>
        <pt x="590" y="227" on="1"/>
        <pt x="646" y="273" on="1"/>
        <pt x="718" y="336" on="0"/>
        <pt x="751" y="376" on="1"/>
        <pt x="744" y="432" on="0"/>
        <pt x="657" y="507" on="0"/>
        <pt x="601" y="524" on="1"/>
        <pt x="573" y="531" on="0"/>
        <pt x="456" y="535" on="0"/>
        <pt x="456" y="539" on="0"/>
        <pt x="458" y="541" on="1"/>
        <pt x="504" y="556" on="0"/>
        <pt x="589" y="556" on="0"/>
        <pt x="644" y="543" on="1"/>
        <pt x="749" y="518" on="0"/>
      </contour>
      <contour>
        <pt x="842" y="732" on="1"/>
        <pt x="842" y="717" on="0"/>
        <pt x="802" y="690" on="1"/>
        <pt x="789" y="682" on="0"/>
        <pt x="756" y="682" on="0"/>
        <pt x="691" y="709" on="0"/>
        <pt x="658" y="709" on="0"/>
        <pt x="626" y="683" on="0"/>
        <pt x="621" y="683" on="1"/>
        <pt x="620" y="684" on="0"/>
        <pt x="620" y="685" on="1"/>
        <pt x="620" y="701" on="0"/>
        <pt x="663" y="726" on="1"/>
        <pt x="679" y="736" on="0"/>
        <pt x="714" y="736" on="0"/>
        <pt x="777" y="715" on="0"/>
        <pt x="818" y="715" on="0"/>
        <pt x="836" y="736" on="1"/>
        <pt x="842" y="736" on="0"/>
      </contour>
    </TTGlyph>
    <TTGlyph name="P" xMin="43" yMin="-108" xMax="1196" yMax="645">
      <contour>
        <pt x="1196" y="447" on="1"/>
        <pt x="1196" y="396" on="0"/>
        <pt x="1094" y="274" on="0"/>
        <pt x="887" y="198" on="0"/>
        <pt x="692" y="198" on="0"/>
        <pt x="635" y="223" on="1"/>
        <pt x="509" y="38" on="0"/>
        <pt x="471" y="0" on="1"/>
        <pt x="363" y="-108" on="0"/>
        <pt x="213" y="-108" on="1"/>
        <pt x="128" y="-108" on="0"/>
        <pt x="43" y="-29" on="0"/>
        <pt x="43" y="34" on="1"/>
        <pt x="43" y="121" on="0"/>
        <pt x="113" y="198" on="1"/>
        <pt x="190" y="283" on="0"/>
        <pt x="307" y="283" on="1"/>
        <pt x="355" y="283" on="0"/>
        <pt x="421" y="239" on="0"/>
        <pt x="421" y="194" on="1"/>
        <pt x="421" y="164" on="0"/>
        <pt x="353" y="80" on="0"/>
        <pt x="345" y="80" on="1"/>
        <pt x="343" y="80" on="0"/>
        <pt x="343" y="88" on="0"/>
        <pt x="346" y="92" on="1"/>
        <pt x="378" y="139" on="0"/>
        <pt x="378" y="218" on="0"/>
        <pt x="329" y="261" on="0"/>
        <pt x="293" y="261" on="1"/>
        <pt x="209" y="261" on="0"/>
        <pt x="80" y="108" on="0"/>
        <pt x="80" y="30" on="1"/>
        <pt x="80" y="-20" on="0"/>
        <pt x="143" y="-82" on="0"/>
        <pt x="209" y="-82" on="1"/>
        <pt x="332" y="-82" on="0"/>
        <pt x="420" y="1" on="1"/>
        <pt x="471" y="49" on="0"/>
        <pt x="523" y="141" on="1"/>
        <pt x="610" y="298" on="1"/>
        <pt x="674" y="401" on="0"/>
        <pt x="759" y="604" on="1"/>
        <pt x="750" y="604" on="0"/>
        <pt x="741" y="604" on="1"/>
        <pt x="606" y="604" on="0"/>
        <pt x="334" y="545" on="0"/>
        <pt x="264" y="490" on="1"/>
        <pt x="234" y="467" on="0"/>
        <pt x="234" y="423" on="0"/>
        <pt x="281" y="396" on="0"/>
        <pt x="345" y="396" on="0"/>
        <pt x="440" y="421" on="0"/>
        <pt x="464" y="442" on="1"/>
        <pt x="474" y="450" on="0"/>
        <pt x="478" y="450" on="1"/>
        <pt x="486" y="450" on="0"/>
        <pt x="481" y="442" on="1"/>
        <pt x="445" y="400" on="0"/>
        <pt x="372" y="379" on="1"/>
        <pt x="327" y="366" on="0"/>
        <pt x="239" y="366" on="0"/>
        <pt x="183" y="405" on="0"/>
        <pt x="183" y="472" on="0"/>
        <pt x="219" y="506" on="1"/>
        <pt x="287" y="572" on="0"/>
        <pt x="462" y="604" on="1"/>
        <pt x="586" y="626" on="0"/>
        <pt x="747" y="626" on="1"/>
        <pt x="760" y="626" on="0"/>
        <pt x="774" y="626" on="1"/>
        <pt x="796" y="645" on="0"/>
        <pt x="832" y="645" on="0"/>
        <pt x="832" y="631" on="1"/>
        <pt x="832" y="628" on="0"/>
        <pt x="831" y="624" on="1"/>
        <pt x="986" y="613" on="0"/>
        <pt x="1082" y="572" on="1"/>
        <pt x="1196" y="524" on="0"/>
      </contour>
      <contour>
        <pt x="1149" y="457" on="1"/>
        <pt x="1149" y="520" on="0"/>
        <pt x="1047" y="560" on="1"/>
        <pt x="958" y="595" on="0"/>
        <pt x="824" y="602" on="1"/>
        <pt x="792" y="502" on="1"/>
        <pt x="754" y="408" on="0"/>
        <pt x="646" y="240" on="1"/>
        <pt x="656" y="235" on="0"/>
        <pt x="680" y="229" on="1"/>
        <pt x="720" y="222" on="0"/>
        <pt x="742" y="222" on="1"/>
        <pt x="818" y="222" on="0"/>
        <pt x="1016" y="285" on="0"/>
        <pt x="1149" y="406" on="0"/>
      </contour>
    </TTGlyph>
    <TTGlyph name="Q" xMin="24" yMin="-206" xMax="832" yMax="636">
      <contour>
        <pt x="97" y="-82" on="1"/>
        <pt x="86" y="-82" on="0"/>
        <pt x="86" y="-44" on="1"/>
        <pt x="86" y="-30" on="0"/>
        <pt x="88" y="-19" on="1"/>
        <pt x="24" y="30" on="0"/>
        <pt x="24" y="125" on="1"/>
        <pt x="24" y="197" on="0"/>
        <pt x="65" y="288" on="1"/>
        <pt x="117" y="403" on="0"/>
        <pt x="268" y="512" on="1"/>
        <pt x="442" y="636" on="0"/>
        <pt x="628" y="636" on="1"/>
        <pt x="728" y="636" on="0"/>
        <pt x="832" y="558" on="0"/>
        <pt x="832" y="500" on="1"/>
        <pt x="832" y="464" on="0"/>
        <pt x="804" y="411" on="1"/>
        <pt x="812" y="384" on="0"/>
        <pt x="812" y="356" on="1"/>
        <pt x="812" y="231" on="0"/>
        <pt x="684" y="117" on="1"/>
        <pt x="570" y="15" on="0"/>
        <pt x="443" y="-27" on="1"/>
        <pt x="646" y="-173" on="0"/>
        <pt x="717" y="-173" on="1"/>
        <pt x="733" y="-173" on="0"/>
        <pt x="759" y="-156" on="0"/>
        <pt x="759" y="-133" on="0"/>
        <pt x="752" y="-123" on="1"/>
        <pt x="749" y="-116" on="0"/>
        <pt x="749" y="-112" on="1"/>
        <pt x="749" y="-98" on="0"/>
        <pt x="784" y="-136" on="0"/>
        <pt x="784" y="-178" on="0"/>
        <pt x="744" y="-206" on="0"/>
        <pt x="712" y="-206" on="1"/>
        <pt x="608" y="-206" on="0"/>
        <pt x="381" y="-45" on="1"/>
        <pt x="319" y="-59" on="0"/>
        <pt x="165" y="-59" on="0"/>
        <pt x="118" y="-37" on="1"/>
        <pt x="104" y="-82" on="0"/>
      </contour>
      <contour>
        <pt x="791" y="441" on="1"/>
        <pt x="801" y="465" on="0"/>
        <pt x="801" y="524" on="0"/>
        <pt x="779" y="555" on="1"/>
        <pt x="736" y="615" on="0"/>
        <pt x="627" y="615" on="1"/>
        <pt x="476" y="615" on="0"/>
        <pt x="208" y="428" on="0"/>
        <pt x="133" y="286" on="1"/>
        <pt x="78" y="183" on="0"/>
        <pt x="78" y="101" on="1"/>
        <pt x="78" y="49" on="0"/>
        <pt x="100" y="17" on="1"/>
        <pt x="111" y="44" on="0"/>
        <pt x="127" y="66" on="1"/>
        <pt x="152" y="102" on="0"/>
        <pt x="232" y="102" on="0"/>
        <pt x="273" y="79" on="1"/>
        <pt x="327" y="50" on="0"/>
        <pt x="411" y="-5" on="1"/>
        <pt x="518" y="35" on="0"/>
        <pt x="614" y="120" on="1"/>
        <pt x="741" y="232" on="0"/>
        <pt x="752" y="337" on="1"/>
        <pt x="700" y="280" on="0"/>
        <pt x="572" y="201" on="1"/>
        <pt x="564" y="199" on="1"/>
        <pt x="563" y="199" on="0"/>
        <pt x="563" y="200" on="1"/>
        <pt x="563" y="204" on="0"/>
        <pt x="590" y="227" on="1"/>
        <pt x="646" y="273" on="1"/>
        <pt x="718" y="336" on="0"/>
        <pt x="751" y="376" on="1"/>
        <pt x="744" y="432" on="0"/>
        <pt x="657" y="507" on="0"/>
        <pt x="601" y="524" on="1"/>
        <pt x="573" y="531" on="0"/>
        <pt x="456" y="535" on="0"/>
        <pt x="456" y="539" on="0"/>
        <pt x="458" y="541" on="1"/>
        <pt x="504" y="556" on="0"/>
        <pt x="589" y="556" on="0"/>
        <pt x="644" y="543" on="1"/>
        <pt x="749" y="518" on="0"/>
      </contour>
      <contour>
        <pt x="350" y="-24" on="1"/>
        <pt x="235" y="46" on="0"/>
        <pt x="151" y="46" on="0"/>
        <pt x="136" y="14" on="1"/>
        <pt x="126" y="-10" on="1"/>
        <pt x="160" y="-37" on="0"/>
        <pt x="211" y="-38" on="1"/>
        <pt x="221" y="-38" on="0"/>
        <pt x="231" y="-38" on="1"/>
        <pt x="289" y="-38" on="0"/>
      </contour>
    </TTGlyph>
    <TTGlyph name="R" xMin="-42" yMin="-112" xMax="912" yMax="624">
      <contour>
        <pt x="572" y="270" on="1"/>
        <pt x="522" y="270" on="0"/>
        <pt x="479" y="278" on="1"/>
        <pt x="493" y="234" on="0"/>
        <pt x="538" y="79" on="1"/>
        <pt x="552" y="34" on="0"/>
        <pt x="582" y="-12" on="1"/>
        <pt x="623" y="-71" on="0"/>
        <pt x="658" y="-71" on="1"/>
        <pt x="700" y="-71" on="0"/>
        <pt x="728" y="14" on="1"/>
        <pt x="733" y="34" on="0"/>
        <pt x="744" y="34" on="0"/>
        <pt x="749" y="11" on="0"/>
        <pt x="749" y="7" on="1"/>
        <pt x="749" y="-18" on="0"/>
        <pt x="721" y="-57" on="1"/>
        <pt x="684" y="-112" on="0"/>
        <pt x="596" y="-112" on="0"/>
        <pt x="522" y="-24" on="0"/>
        <pt x="451" y="209" on="0"/>
        <pt x="451" y="241" on="1"/>
        <pt x="451" y="246" on="0"/>
        <pt x="452" y="249" on="1"/>
        <pt x="332" y="90" on="0"/>
        <pt x="280" y="39" on="1"/>
        <pt x="164" y="-74" on="0"/>
        <pt x="43" y="-74" on="1"/>
        <pt x="-42" y="-74" on="0"/>
        <pt x="-42" y="-10" on="1"/>
        <pt x="-42" y="22" on="0"/>
        <pt x="-2" y="99" on="0"/>
        <pt x="56" y="157" on="0"/>
        <pt x="78" y="157" on="1"/>
        <pt x="82" y="157" on="0"/>
        <pt x="82" y="155" on="1"/>
        <pt x="82" y="150" on="0"/>
        <pt x="32" y="110" on="0"/>
        <pt x="-14" y="37" on="0"/>
        <pt x="-14" y="7" on="1"/>
        <pt x="-14" y="-46" on="0"/>
        <pt x="57" y="-46" on="1"/>
        <pt x="190" y="-46" on="0"/>
        <pt x="423" y="266" on="1"/>
        <pt x="436" y="283" on="0"/>
        <pt x="445" y="290" on="1"/>
        <pt x="429" y="296" on="1"/>
        <pt x="416" y="291" on="0"/>
        <pt x="408" y="291" on="1"/>
        <pt x="387" y="291" on="0"/>
        <pt x="387" y="308" on="1"/>
        <pt x="387" y="331" on="0"/>
        <pt x="418" y="338" on="1"/>
        <pt x="422" y="339" on="0"/>
        <pt x="425" y="339" on="1"/>
        <pt x="443" y="339" on="0"/>
        <pt x="467" y="321" on="1"/>
        <pt x="555" y="419" on="0"/>
        <pt x="557" y="421" on="1"/>
        <pt x="630" y="496" on="0"/>
        <pt x="681" y="496" on="0"/>
        <pt x="681" y="474" on="1"/>
        <pt x="681" y="464" on="0"/>
        <pt x="672" y="446" on="0"/>
        <pt x="666" y="446" on="1"/>
        <pt x="660" y="444" on="0"/>
        <pt x="660" y="452" on="1"/>
        <pt x="660" y="456" on="0"/>
        <pt x="666" y="464" on="1"/>
        <pt x="667" y="478" on="0"/>
        <pt x="657" y="478" on="1"/>
        <pt x="625" y="478" on="0"/>
        <pt x="502" y="308" on="1"/>
        <pt x="532" y="306" on="0"/>
        <pt x="552" y="306" on="1"/>
        <pt x="784" y="306" on="0"/>
        <pt x="842" y="426" on="1"/>
        <pt x="854" y="452" on="0"/>
        <pt x="854" y="474" on="1"/>
        <pt x="854" y="518" on="0"/>
        <pt x="814" y="550" on="1"/>
        <pt x="750" y="602" on="0"/>
        <pt x="462" y="602" on="0"/>
        <pt x="312" y="529" on="1"/>
        <pt x="130" y="440" on="0"/>
        <pt x="130" y="320" on="1"/>
        <pt x="130" y="281" on="0"/>
        <pt x="228" y="281" on="0"/>
        <pt x="338" y="353" on="0"/>
        <pt x="357" y="388" on="1"/>
        <pt x="364" y="401" on="0"/>
        <pt x="377" y="401" on="0"/>
        <pt x="374" y="393" on="1"/>
        <pt x="355" y="337" on="0"/>
        <pt x="224" y="258" on="0"/>
        <pt x="82" y="258" on="0"/>
        <pt x="82" y="303" on="1"/>
        <pt x="82" y="306" on="0"/>
        <pt x="82" y="310" on="1"/>
        <pt x="97" y="441" on="0"/>
        <pt x="388" y="624" on="0"/>
        <pt x="593" y="624" on="1"/>
        <pt x="784" y="624" on="0"/>
        <pt x="864" y="558" on="1"/>
        <pt x="912" y="518" on="0"/>
        <pt x="912" y="464" on="1"/>
        <pt x="912" y="441" on="0"/>
        <pt x="901" y="414" on="1"/>
        <pt x="870" y="341" on="0"/>
        <pt x="678" y="270" on="0"/>
      </contour>
    </TTGlyph>
    <TTGlyph name="Racute" xMin="-42" yMin="-112" xMax="912" yMax="764">
      <contour>
        <pt x="572" y="270" on="1"/>
        <pt x="522" y="270" on="0"/>
        <pt x="479" y="278" on="1"/>
        <pt x="493" y="234" on="0"/>
        <pt x="538" y="79" on="1"/>
        <pt x="552" y="34" on="0"/>
        <pt x="582" y="-12" on="1"/>
        <pt x="623" y="-71" on="0"/>
        <pt x="658" y="-71" on="1"/>
        <pt x="700" y="-71" on="0"/>
        <pt x="728" y="14" on="1"/>
        <pt x="733" y="34" on="0"/>
        <pt x="744" y="34" on="0"/>
        <pt x="749" y="11" on="0"/>
        <pt x="749" y="7" on="1"/>
        <pt x="749" y="-18" on="0"/>
        <pt x="721" y="-57" on="1"/>
        <pt x="684" y="-112" on="0"/>
        <pt x="596" y="-112" on="0"/>
        <pt x="522" y="-24" on="0"/>
        <pt x="451" y="209" on="0"/>
        <pt x="451" y="241" on="1"/>
        <pt x="451" y="246" on="0"/>
        <pt x="452" y="249" on="1"/>
        <pt x="332" y="90" on="0"/>
        <pt x="280" y="39" on="1"/>
        <pt x="164" y="-74" on="0"/>
        <pt x="43" y="-74" on="1"/>
        <pt x="-42" y="-74" on="0"/>
        <pt x="-42" y="-10" on="1"/>
        <pt x="-42" y="22" on="0"/>
        <pt x="-2" y="99" on="0"/>
        <pt x="56" y="157" on="0"/>
        <pt x="78" y="157" on="1"/>
        <pt x="82" y="157" on="0"/>
        <pt x="82" y="155" on="1"/>
        <pt x="82" y="150" on="0"/>
        <pt x="32" y="110" on="0"/>
        <pt x="-14" y="37" on="0"/>
        <pt x="-14" y="7" on="1"/>
        <pt x="-14" y="-46" on="0"/>
        <pt x="57" y="-46" on="1"/>
        <pt x="190" y="-46" on="0"/>
        <pt x="423" y="266" on="1"/>
        <pt x="436" y="283" on="0"/>
        <pt x="445" y="290" on="1"/>
        <pt x="429" y="296" on="1"/>
        <pt x="416" y="291" on="0"/>
        <pt x="408" y="291" on="1"/>
        <pt x="387" y="291" on="0"/>
        <pt x="387" y="308" on="1"/>
        <pt x="387" y="331" on="0"/>
        <pt x="418" y="338" on="1"/>
        <pt x="422" y="339" on="0"/>
        <pt x="425" y="339" on="1"/>
        <pt x="443" y="339" on="0"/>
        <pt x="467" y="321" on="1"/>
        <pt x="555" y="419" on="0"/>
        <pt x="557" y="421" on="1"/>
        <pt x="630" y="496" on="0"/>
        <pt x="681" y="496" on="0"/>
        <pt x="681" y="474" on="1"/>
        <pt x="681" y="464" on="0"/>
        <pt x="672" y="446" on="0"/>
        <pt x="666" y="446" on="1"/>
        <pt x="660" y="444" on="0"/>
        <pt x="660" y="452" on="1"/>
        <pt x="660" y="456" on="0"/>
        <pt x="666" y="464" on="1"/>
        <pt x="667" y="478" on="0"/>
        <pt x="657" y="478" on="1"/>
        <pt x="625" y="478" on="0"/>
        <pt x="502" y="308" on="1"/>
        <pt x="532" y="306" on="0"/>
        <pt x="552" y="306" on="1"/>
        <pt x="784" y="306" on="0"/>
        <pt x="842" y="426" on="1"/>
        <pt x="854" y="452" on="0"/>
        <pt x="854" y="474" on="1"/>
        <pt x="854" y="518" on="0"/>
        <pt x="814" y="550" on="1"/>
        <pt x="750" y="602" on="0"/>
        <pt x="462" y="602" on="0"/>
        <pt x="312" y="529" on="1"/>
        <pt x="130" y="440" on="0"/>
        <pt x="130" y="320" on="1"/>
        <pt x="130" y="281" on="0"/>
        <pt x="228" y="281" on="0"/>
        <pt x="338" y="353" on="0"/>
        <pt x="357" y="388" on="1"/>
        <pt x="364" y="401" on="0"/>
        <pt x="377" y="401" on="0"/>
        <pt x="374" y="393" on="1"/>
        <pt x="355" y="337" on="0"/>
        <pt x="224" y="258" on="0"/>
        <pt x="82" y="258" on="0"/>
        <pt x="82" y="303" on="1"/>
        <pt x="82" y="306" on="0"/>
        <pt x="82" y="310" on="1"/>
        <pt x="97" y="441" on="0"/>
        <pt x="388" y="624" on="0"/>
        <pt x="593" y="624" on="1"/>
        <pt x="784" y="624" on="0"/>
        <pt x="864" y="558" on="1"/>
        <pt x="912" y="518" on="0"/>
        <pt x="912" y="464" on="1"/>
        <pt x="912" y="441" on="0"/>
        <pt x="901" y="414" on="1"/>
        <pt x="870" y="341" on="0"/>
        <pt x="678" y="270" on="0"/>
      </contour>
      <contour>
        <pt x="691" y="661" on="0"/>
        <pt x="677" y="661" on="0"/>
        <pt x="677" y="671" on="0"/>
        <pt x="681" y="674" on="1"/>
        <pt x="786" y="755" on="1"/>
        <pt x="796" y="764" on="0"/>
        <pt x="812" y="764" on="0"/>
        <pt x="812" y="740" on="0"/>
        <pt x="804" y="732" on="1"/>
        <pt x="795" y="725" on="0"/>
      </contour>
    </TTGlyph>
    <TTGlyph name="Rcommaaccent" xMin="-42" yMin="-252" xMax="912" yMax="624">
      <contour>
        <pt x="572" y="270" on="1"/>
        <pt x="522" y="270" on="0"/>
        <pt x="479" y="278" on="1"/>
        <pt x="493" y="234" on="0"/>
        <pt x="538" y="79" on="1"/>
        <pt x="552" y="34" on="0"/>
        <pt x="582" y="-12" on="1"/>
        <pt x="623" y="-71" on="0"/>
        <pt x="658" y="-71" on="1"/>
        <pt x="700" y="-71" on="0"/>
        <pt x="728" y="14" on="1"/>
        <pt x="733" y="34" on="0"/>
        <pt x="744" y="34" on="0"/>
        <pt x="749" y="11" on="0"/>
        <pt x="749" y="7" on="1"/>
        <pt x="749" y="-18" on="0"/>
        <pt x="721" y="-57" on="1"/>
        <pt x="684" y="-112" on="0"/>
        <pt x="596" y="-112" on="0"/>
        <pt x="522" y="-24" on="0"/>
        <pt x="451" y="209" on="0"/>
        <pt x="451" y="241" on="1"/>
        <pt x="451" y="246" on="0"/>
        <pt x="452" y="249" on="1"/>
        <pt x="332" y="90" on="0"/>
        <pt x="280" y="39" on="1"/>
        <pt x="164" y="-74" on="0"/>
        <pt x="43" y="-74" on="1"/>
        <pt x="-42" y="-74" on="0"/>
        <pt x="-42" y="-10" on="1"/>
        <pt x="-42" y="22" on="0"/>
        <pt x="-2" y="99" on="0"/>
        <pt x="56" y="157" on="0"/>
        <pt x="78" y="157" on="1"/>
        <pt x="82" y="157" on="0"/>
        <pt x="82" y="155" on="1"/>
        <pt x="82" y="150" on="0"/>
        <pt x="32" y="110" on="0"/>
        <pt x="-14" y="37" on="0"/>
        <pt x="-14" y="7" on="1"/>
        <pt x="-14" y="-46" on="0"/>
        <pt x="57" y="-46" on="1"/>
        <pt x="190" y="-46" on="0"/>
        <pt x="423" y="266" on="1"/>
        <pt x="436" y="283" on="0"/>
        <pt x="445" y="290" on="1"/>
        <pt x="429" y="296" on="1"/>
        <pt x="416" y="291" on="0"/>
        <pt x="408" y="291" on="1"/>
        <pt x="387" y="291" on="0"/>
        <pt x="387" y="308" on="1"/>
        <pt x="387" y="331" on="0"/>
        <pt x="418" y="338" on="1"/>
        <pt x="422" y="339" on="0"/>
        <pt x="425" y="339" on="1"/>
        <pt x="443" y="339" on="0"/>
        <pt x="467" y="321" on="1"/>
        <pt x="555" y="419" on="0"/>
        <pt x="557" y="421" on="1"/>
        <pt x="630" y="496" on="0"/>
        <pt x="681" y="496" on="0"/>
        <pt x="681" y="474" on="1"/>
        <pt x="681" y="464" on="0"/>
        <pt x="672" y="446" on="0"/>
        <pt x="666" y="446" on="1"/>
        <pt x="660" y="444" on="0"/>
        <pt x="660" y="452" on="1"/>
        <pt x="660" y="456" on="0"/>
        <pt x="666" y="464" on="1"/>
        <pt x="667" y="478" on="0"/>
        <pt x="657" y="478" on="1"/>
        <pt x="625" y="478" on="0"/>
        <pt x="502" y="308" on="1"/>
        <pt x="532" y="306" on="0"/>
        <pt x="552" y="306" on="1"/>
        <pt x="784" y="306" on="0"/>
        <pt x="842" y="426" on="1"/>
        <pt x="854" y="452" on="0"/>
        <pt x="854" y="474" on="1"/>
        <pt x="854" y="518" on="0"/>
        <pt x="814" y="550" on="1"/>
        <pt x="750" y="602" on="0"/>
        <pt x="462" y="602" on="0"/>
        <pt x="312" y="529" on="1"/>
        <pt x="130" y="440" on="0"/>
        <pt x="130" y="320" on="1"/>
        <pt x="130" y="281" on="0"/>
        <pt x="228" y="281" on="0"/>
        <pt x="338" y="353" on="0"/>
        <pt x="357" y="388" on="1"/>
        <pt x="364" y="401" on="0"/>
        <pt x="377" y="401" on="0"/>
        <pt x="374" y="393" on="1"/>
        <pt x="355" y="337" on="0"/>
        <pt x="224" y="258" on="0"/>
        <pt x="82" y="258" on="0"/>
        <pt x="82" y="303" on="1"/>
        <pt x="82" y="306" on="0"/>
        <pt x="82" y="310" on="1"/>
        <pt x="97" y="441" on="0"/>
        <pt x="388" y="624" on="0"/>
        <pt x="593" y="624" on="1"/>
        <pt x="784" y="624" on="0"/>
        <pt x="864" y="558" on="1"/>
        <pt x="912" y="518" on="0"/>
        <pt x="912" y="464" on="1"/>
        <pt x="912" y="441" on="0"/>
        <pt x="901" y="414" on="1"/>
        <pt x="870" y="341" on="0"/>
        <pt x="678" y="270" on="0"/>
      </contour>
      <contour>
        <pt x="362" y="-142" on="1"/>
        <pt x="362" y="-184" on="0"/>
        <pt x="298" y="-251" on="0"/>
        <pt x="275" y="-251" on="0"/>
        <pt x="275" y="-247" on="0"/>
        <pt x="318" y="-198" on="0"/>
        <pt x="318" y="-168" on="0"/>
        <pt x="291" y="-144" on="0"/>
        <pt x="291" y="-138" on="1"/>
        <pt x="291" y="-108" on="0"/>
        <pt x="320" y="-108" on="1"/>
        <pt x="335" y="-108" on="0"/>
        <pt x="362" y="-128" on="0"/>
      </contour>
    </TTGlyph>
    <TTGlyph name="S" xMin="-17" yMin="-95" xMax="852" yMax="625">
      <contour>
        <pt x="791" y="428" on="1"/>
        <pt x="754" y="413" on="0"/>
        <pt x="701" y="413" on="0"/>
        <pt x="701" y="424" on="1"/>
        <pt x="701" y="431" on="0"/>
        <pt x="760" y="433" on="0"/>
        <pt x="773" y="439" on="1"/>
        <pt x="811" y="459" on="0"/>
        <pt x="811" y="498" on="1"/>
        <pt x="811" y="518" on="0"/>
        <pt x="800" y="540" on="1"/>
        <pt x="768" y="597" on="0"/>
        <pt x="645" y="597" on="1"/>
        <pt x="574" y="597" on="0"/>
        <pt x="432" y="554" on="0"/>
        <pt x="336" y="465" on="0"/>
        <pt x="336" y="427" on="1"/>
        <pt x="336" y="369" on="0"/>
        <pt x="451" y="342" on="1"/>
        <pt x="569" y="320" on="1"/>
        <pt x="640" y="307" on="0"/>
        <pt x="675" y="284" on="1"/>
        <pt x="721" y="256" on="0"/>
        <pt x="721" y="204" on="1"/>
        <pt x="721" y="183" on="0"/>
        <pt x="714" y="159" on="1"/>
        <pt x="682" y="51" on="0"/>
        <pt x="549" y="-6" on="1"/>
        <pt x="438" y="-55" on="0"/>
        <pt x="287" y="-55" on="1"/>
        <pt x="244" y="-55" on="0"/>
        <pt x="212" y="-51" on="1"/>
        <pt x="244" y="-69" on="0"/>
        <pt x="296" y="-82" on="1"/>
        <pt x="300" y="-83" on="0"/>
        <pt x="300" y="-86" on="1"/>
        <pt x="300" y="-95" on="0"/>
        <pt x="279" y="-95" on="1"/>
        <pt x="238" y="-95" on="0"/>
        <pt x="177" y="-46" on="1"/>
        <pt x="94" y="-33" on="0"/>
        <pt x="53" y="0" on="1"/>
        <pt x="27" y="21" on="0"/>
        <pt x="-17" y="103" on="0"/>
        <pt x="-17" y="169" on="0"/>
        <pt x="-4" y="191" on="1"/>
        <pt x="26" y="244" on="0"/>
        <pt x="72" y="244" on="1"/>
        <pt x="107" y="244" on="0"/>
        <pt x="113" y="185" on="1"/>
        <pt x="127" y="71" on="0"/>
        <pt x="132" y="55" on="1"/>
        <pt x="147" y="6" on="0"/>
        <pt x="183" y="-28" on="1"/>
        <pt x="225" y="-37" on="0"/>
        <pt x="274" y="-37" on="1"/>
        <pt x="382" y="-37" on="0"/>
        <pt x="590" y="49" on="0"/>
        <pt x="636" y="128" on="1"/>
        <pt x="655" y="159" on="0"/>
        <pt x="655" y="183" on="1"/>
        <pt x="655" y="230" on="0"/>
        <pt x="572" y="256" on="1"/>
        <pt x="396" y="296" on="1"/>
        <pt x="342" y="309" on="0"/>
        <pt x="277" y="369" on="0"/>
        <pt x="277" y="408" on="1"/>
        <pt x="277" y="468" on="0"/>
        <pt x="352" y="528" on="1"/>
        <pt x="409" y="574" on="0"/>
        <pt x="574" y="625" on="0"/>
        <pt x="733" y="625" on="0"/>
        <pt x="785" y="602" on="1"/>
        <pt x="852" y="571" on="0"/>
        <pt x="852" y="452" on="0"/>
      </contour>
      <contour>
        <pt x="147" y="-18" on="1"/>
        <pt x="89" y="46" on="0"/>
        <pt x="73" y="157" on="1"/>
        <pt x="64" y="220" on="0"/>
        <pt x="48" y="220" on="0"/>
        <pt x="34" y="211" on="0"/>
        <pt x="20" y="181" on="0"/>
        <pt x="20" y="157" on="1"/>
        <pt x="20" y="80" on="0"/>
        <pt x="74" y="25" on="1"/>
        <pt x="101" y="-3" on="0"/>
      </contour>
    </TTGlyph>
</ttFont>
